<?xml version="1.0" encoding="utf-8"?>
<!-- Generator: Adobe Illustrator 21.1.0, SVG Export Plug-In . SVG Version: 6.00 Build 0)  -->
<svg version="1.1" xmlns="http://www.w3.org/2000/svg" xmlns:xlink="http://www.w3.org/1999/xlink" x="0px" y="0px"
	 viewBox="0 0 1964.6 1046.6" style="enable-background:new 0 0 1964.6 1046.6;" xml:space="preserve">
<style type="text/css">
	.st0{fill:#273954;}
	.st1{fill:#3E678C;stroke:#000000;stroke-width:9;stroke-miterlimit:10;}
	.st2{fill:#FF7D93;stroke:#000000;stroke-width:9;stroke-miterlimit:10;}
	.st3{fill:#FFC6D0;}
	.st4{fill:#F9ECEE;}
	.st5{fill:#FDF4E9;}
	.st6{fill:#3E678C;}
	.st7{fill:#903460;}
	.st8{fill:#E79DA0;}
	.st9{fill:#91A9CA;}
	.st10{fill:#BAD9F7;}
	.st11{fill:#F9DEE4;}
	.st12{fill:url(#SVGID_1_);}
	.st13{fill:#FFF8F9;}
	.st14{fill:#E2768D;}
	.st15{fill:#FF7D93;}
	.st16{fill:#A5A5A5;}
	.st17{opacity:0.8;fill:#FFF8F9;}
	.st18{opacity:0.7;fill:#E2768D;}
	.st19{opacity:0.4;fill:#E2768D;}
	.st20{opacity:0.4;}
	.st21{fill:#FEFEFE;}
	.st22{clip-path:url(#SVGID_3_);fill:#E2768D;}
	.st23{clip-path:url(#SVGID_3_);fill:#273954;}
	.st24{clip-path:url(#SVGID_5_);fill:#E2768D;}
	.st25{clip-path:url(#SVGID_5_);fill:#273954;}
	.st26{clip-path:url(#SVGID_7_);fill:#E2768D;}
	.st27{clip-path:url(#SVGID_7_);fill:#273954;}
	.st28{clip-path:url(#SVGID_9_);fill:#E2768D;}
	.st29{clip-path:url(#SVGID_9_);fill:#273954;}
	.st30{clip-path:url(#SVGID_11_);fill:#E2768D;}
	.st31{clip-path:url(#SVGID_11_);fill:#273954;}
	.st32{clip-path:url(#SVGID_13_);fill:#E2768D;}
	.st33{clip-path:url(#SVGID_13_);fill:#273954;}
	.st34{clip-path:url(#SVGID_15_);fill:#E2768D;}
	.st35{clip-path:url(#SVGID_15_);fill:#273954;}
	.st36{clip-path:url(#SVGID_17_);fill:#E2768D;}
	.st37{clip-path:url(#SVGID_17_);fill:#273954;}
	.st38{clip-path:url(#SVGID_19_);fill:#E2768D;}
	.st39{clip-path:url(#SVGID_19_);fill:#273954;}
	.st40{clip-path:url(#SVGID_21_);fill:#E2768D;}
	.st41{clip-path:url(#SVGID_21_);fill:#273954;}
	.st42{clip-path:url(#SVGID_23_);fill:#E2768D;}
	.st43{clip-path:url(#SVGID_23_);fill:#273954;}
	.st44{clip-path:url(#SVGID_25_);fill:#E2768D;}
	.st45{clip-path:url(#SVGID_25_);fill:#273954;}
	.st46{clip-path:url(#SVGID_27_);fill:#E2768D;}
	.st47{clip-path:url(#SVGID_27_);fill:#273954;}
	.st48{clip-path:url(#SVGID_29_);fill:#E2768D;}
	.st49{clip-path:url(#SVGID_29_);fill:#273954;}
	.st50{clip-path:url(#SVGID_31_);fill:#E2768D;}
	.st51{clip-path:url(#SVGID_31_);fill:#273954;}
	.st52{clip-path:url(#SVGID_33_);fill:#E2768D;}
	.st53{clip-path:url(#SVGID_33_);fill:#273954;}
	.st54{clip-path:url(#SVGID_35_);fill:#E2768D;}
	.st55{clip-path:url(#SVGID_35_);fill:#273954;}
	.st56{clip-path:url(#SVGID_37_);fill:#E2768D;}
	.st57{clip-path:url(#SVGID_37_);fill:#273954;}
	.st58{clip-path:url(#SVGID_39_);fill:#E2768D;}
	.st59{clip-path:url(#SVGID_39_);fill:#273954;}
	.st60{clip-path:url(#SVGID_41_);fill:#E2768D;}
	.st61{clip-path:url(#SVGID_41_);fill:#273954;}
	.st62{clip-path:url(#SVGID_43_);fill:#E2768D;}
	.st63{clip-path:url(#SVGID_43_);fill:#273954;}
	.st64{clip-path:url(#SVGID_45_);fill:#E2768D;}
	.st65{clip-path:url(#SVGID_45_);fill:#273954;}
	.st66{opacity:0.6;}
	.st67{clip-path:url(#SVGID_47_);fill:#FEFEFE;}
	.st68{clip-path:url(#SVGID_47_);fill:#FFC6D0;}
	.st69{clip-path:url(#SVGID_49_);fill:#F9ECEE;}
	.st70{opacity:0.4;clip-path:url(#SVGID_49_);fill:#E2768D;}
	.st71{clip-path:url(#SVGID_51_);fill:#E2768D;}
	.st72{clip-path:url(#SVGID_51_);fill:#273954;}
	.st73{fill:#3E678C;stroke:#91A9CA;stroke-miterlimit:10;}
	.st74{fill:url(#SVGID_52_);}
	.st75{opacity:0.3;fill:#FFF8F9;}
	.st76{opacity:0.7;fill:#FFF8F9;}
	.st77{fill:#FFFFFF;}
	.st78{fill:#E2E2E2;}
	.st79{fill:#D1D1D1;}
	.st80{fill:url(#SVGID_53_);}
	.st81{clip-path:url(#SVGID_55_);fill:#E2768D;}
	.st82{clip-path:url(#SVGID_55_);fill:#273954;}
	.st83{clip-path:url(#SVGID_57_);fill:#E2768D;}
	.st84{clip-path:url(#SVGID_57_);fill:#273954;}
	.st85{fill:#AD637A;}
	.st86{opacity:0.7;fill:#AD637A;}
	.st87{clip-path:url(#SVGID_59_);fill:#F9ECEE;}
	.st88{opacity:0.4;clip-path:url(#SVGID_59_);fill:#E2768D;}
	.st89{fill:#AF566D;}
	.st90{fill:#1A1A1A;}
	.st91{fill:url(#SVGID_60_);}
	.st92{fill:#FCFCFC;}
	.st93{fill:none;stroke:#FCFCFC;stroke-miterlimit:10;}
	.st94{fill:#606060;}
	.st95{fill:url(#SVGID_61_);}
	.st96{fill:#4A7BA0;}
	.st97{fill:none;stroke:#273954;stroke-miterlimit:10;}
	.st98{fill:url(#SVGID_62_);}
	.st99{opacity:0.5;fill:#FFF8F9;}
	.st100{clip-path:url(#SVGID_64_);fill:#E2768D;}
	.st101{clip-path:url(#SVGID_64_);fill:#273954;}
	.st102{clip-path:url(#SVGID_66_);fill:#E2768D;}
	.st103{clip-path:url(#SVGID_66_);fill:#273954;}
	.st104{clip-path:url(#SVGID_68_);fill:#E2768D;}
	.st105{clip-path:url(#SVGID_68_);fill:#273954;}
	.st106{clip-path:url(#SVGID_70_);fill:#E2768D;}
	.st107{clip-path:url(#SVGID_70_);fill:#273954;}
	.st108{clip-path:url(#SVGID_72_);fill:#E2768D;}
	.st109{clip-path:url(#SVGID_72_);fill:#273954;}
	.st110{clip-path:url(#SVGID_74_);fill:#E2768D;}
	.st111{clip-path:url(#SVGID_74_);fill:#273954;}
	.st112{clip-path:url(#SVGID_76_);fill:#E2768D;}
	.st113{clip-path:url(#SVGID_76_);fill:#273954;}
	.st114{clip-path:url(#SVGID_78_);fill:#E2768D;}
	.st115{clip-path:url(#SVGID_78_);fill:#273954;}
	.st116{clip-path:url(#SVGID_80_);fill:#FEFEFE;}
	.st117{clip-path:url(#SVGID_80_);fill:#FFC6D0;}
	.st118{clip-path:url(#SVGID_82_);fill:#F9ECEE;}
	.st119{opacity:0.4;clip-path:url(#SVGID_82_);fill:#E2768D;}
	.st120{clip-path:url(#SVGID_84_);fill:#E2768D;}
	.st121{clip-path:url(#SVGID_84_);fill:#273954;}
	.st122{opacity:0.4;fill:url(#SVGID_85_);}
	.st123{fill:url(#SVGID_86_);}
	.st124{opacity:0.5;}
	.st125{opacity:0.5;fill:#FFFFFF;}
	.st126{clip-path:url(#SVGID_88_);fill:#E2768D;}
	.st127{clip-path:url(#SVGID_88_);fill:#273954;}
	.st128{clip-path:url(#SVGID_90_);fill:#E2768D;}
	.st129{clip-path:url(#SVGID_90_);fill:#273954;}
	.st130{clip-path:url(#SVGID_92_);fill:#E2768D;}
	.st131{clip-path:url(#SVGID_92_);fill:#273954;}
	.st132{clip-path:url(#SVGID_94_);fill:#E2768D;}
	.st133{clip-path:url(#SVGID_94_);fill:#273954;}
	.st134{clip-path:url(#SVGID_96_);fill:#E2768D;}
	.st135{clip-path:url(#SVGID_96_);fill:#273954;}
	.st136{clip-path:url(#SVGID_98_);fill:#E2768D;}
	.st137{clip-path:url(#SVGID_98_);fill:#273954;}
	.st138{clip-path:url(#SVGID_100_);fill:#E2768D;}
	.st139{clip-path:url(#SVGID_100_);fill:#273954;}
	.st140{clip-path:url(#SVGID_102_);fill:#E2768D;}
	.st141{clip-path:url(#SVGID_102_);fill:#273954;}
	.st142{clip-path:url(#SVGID_104_);fill:#E2768D;}
	.st143{clip-path:url(#SVGID_104_);fill:#273954;}
	.st144{clip-path:url(#SVGID_106_);fill:#E2768D;}
	.st145{clip-path:url(#SVGID_106_);fill:#273954;}
	.st146{clip-path:url(#SVGID_108_);fill:#E2768D;}
	.st147{clip-path:url(#SVGID_108_);fill:#273954;}
	.st148{clip-path:url(#SVGID_110_);fill:#E2768D;}
	.st149{clip-path:url(#SVGID_110_);fill:#273954;}
	.st150{clip-path:url(#SVGID_112_);fill:#E2768D;}
	.st151{clip-path:url(#SVGID_112_);fill:#273954;}
	.st152{clip-path:url(#SVGID_114_);fill:#E2768D;}
	.st153{clip-path:url(#SVGID_114_);fill:#273954;}
	.st154{clip-path:url(#SVGID_116_);fill:#E2768D;}
	.st155{clip-path:url(#SVGID_116_);fill:#273954;}
	.st156{clip-path:url(#SVGID_118_);fill:#E2768D;}
	.st157{clip-path:url(#SVGID_118_);fill:#273954;}
	.st158{clip-path:url(#SVGID_120_);fill:#E2768D;}
	.st159{clip-path:url(#SVGID_120_);fill:#273954;}
	.st160{clip-path:url(#SVGID_122_);fill:#E2768D;}
	.st161{clip-path:url(#SVGID_122_);fill:#273954;}
	.st162{clip-path:url(#SVGID_124_);fill:#E2768D;}
	.st163{clip-path:url(#SVGID_124_);fill:#273954;}
	.st164{clip-path:url(#SVGID_126_);fill:#E2768D;}
	.st165{clip-path:url(#SVGID_126_);fill:#273954;}
	.st166{clip-path:url(#SVGID_128_);fill:#E2768D;}
	.st167{clip-path:url(#SVGID_128_);fill:#273954;}
	.st168{clip-path:url(#SVGID_130_);fill:#E2768D;}
	.st169{clip-path:url(#SVGID_130_);fill:#273954;}
	.st170{clip-path:url(#SVGID_132_);fill:#FEFEFE;}
	.st171{clip-path:url(#SVGID_132_);fill:#FFC6D0;}
	.st172{clip-path:url(#SVGID_134_);fill:#F9ECEE;}
	.st173{opacity:0.4;clip-path:url(#SVGID_134_);fill:#E2768D;}
	.st174{clip-path:url(#SVGID_136_);fill:#E2768D;}
	.st175{clip-path:url(#SVGID_136_);fill:#273954;}
</style>
<g id="Colours">
</g>
<g id="Cloud_shapes">
</g>
<g id="bg-gradient">
</g>
<g id="Layer_14">
</g>
<g id="Layer_15">
</g>
<g id="Layer_9">
</g>
<g id="Layer_7">
</g>
<g id="Layer_6">
</g>
<g id="Layer_11">
</g>
<g id="Layer_12">
</g>
<g id="Layer_13">
	<g>
		<path class="st14" d="M1897.4,449.8v27.8c0,0.1,0.4,0.1,1,0.1h2.7c0.6,0,1-0.1,1-0.1v-27.8c0-0.1-0.4-0.1-1-0.1h-2.7
			C1897.8,449.7,1897.4,449.7,1897.4,449.8z"/>
		<path class="st14" d="M1886.3,449.8v27.8c0,0.1,0.4,0.1,1,0.1h2.7c0.6,0,1-0.1,1-0.1v-27.8c0-0.1-0.4-0.1-1-0.1h-2.7
			C1886.7,449.7,1886.3,449.7,1886.3,449.8z"/>
		<path class="st14" d="M1875.1,449.8v27.8c0,0.1,0.4,0.1,1,0.1h2.7c0.6,0,1-0.1,1-0.1v-27.8c0-0.1-0.4-0.1-1-0.1h-2.7
			C1875.6,449.7,1875.1,449.7,1875.1,449.8z"/>
		<path class="st14" d="M1864,449.8v27.8c0,0.1,0.4,0.1,1,0.1h2.7c0.6,0,1-0.1,1-0.1v-27.8c0-0.1-0.4-0.1-1-0.1h-2.7
			C1864.5,449.7,1864,449.7,1864,449.8z"/>
		<path class="st14" d="M1852.9,449.8v27.8c0,0.1,0.4,0.1,1,0.1h2.7c0.6,0,1-0.1,1-0.1v-27.8c0-0.1-0.4-0.1-1-0.1h-2.7
			C1853.4,449.7,1852.9,449.7,1852.9,449.8z"/>
		<path class="st14" d="M1841.8,449.8v27.8c0,0.1,0.4,0.1,1,0.1h2.7c0.6,0,1-0.1,1-0.1v-27.8c0-0.1-0.4-0.1-1-0.1h-2.7
			C1842.3,449.7,1841.8,449.7,1841.8,449.8z"/>
		<path class="st14" d="M1830.7,449.8v27.8c0,0.1,0.4,0.1,1,0.1h2.7c0.6,0,1-0.1,1-0.1v-27.8c0-0.1-0.4-0.1-1-0.1h-2.7
			C1831.2,449.7,1830.7,449.7,1830.7,449.8z"/>
		<path class="st14" d="M1819.6,449.8v27.8c0,0.1,0.4,0.1,1,0.1h2.7c0.6,0,1-0.1,1-0.1v-27.8c0-0.1-0.4-0.1-1-0.1h-2.7
			C1820,449.7,1819.6,449.7,1819.6,449.8z"/>
		<path class="st14" d="M1808.5,449.8v27.8c0,0.1,0.4,0.1,1,0.1h2.7c0.6,0,1-0.1,1-0.1v-27.8c0-0.1-0.4-0.1-1-0.1h-2.7
			C1808.9,449.7,1808.5,449.7,1808.5,449.8z"/>
		<path class="st14" d="M1797.4,449.8v27.8c0,0.1,0.4,0.1,1,0.1h2.7c0.6,0,1-0.1,1-0.1v-27.8c0-0.1-0.4-0.1-1-0.1h-2.7
			C1797.8,449.7,1797.4,449.7,1797.4,449.8z"/>
		<path class="st14" d="M1786.3,449.8v27.8c0,0.1,0.4,0.1,1,0.1h2.7c0.6,0,1-0.1,1-0.1v-27.8c0-0.1-0.4-0.1-1-0.1h-2.7
			C1786.7,449.7,1786.3,449.7,1786.3,449.8z"/>
		<path class="st14" d="M1775.1,449.8v27.8c0,0.1,0.4,0.1,1,0.1h2.7c0.6,0,1-0.1,1-0.1v-27.8c0-0.1-0.4-0.1-1-0.1h-2.7
			C1775.6,449.7,1775.1,449.7,1775.1,449.8z"/>
		<path class="st14" d="M1764,449.8v27.8c0,0.1,0.4,0.1,1,0.1h2.7c0.6,0,1-0.1,1-0.1v-27.8c0-0.1-0.4-0.1-1-0.1h-2.7
			C1764.5,449.7,1764,449.7,1764,449.8z"/>
		<path class="st14" d="M1752.9,449.8v27.8c0,0.1,0.4,0.1,1,0.1h2.7c0.6,0,1-0.1,1-0.1v-27.8c0-0.1-0.4-0.1-1-0.1h-2.7
			C1753.4,449.7,1752.9,449.7,1752.9,449.8z"/>
		<path class="st14" d="M1741.8,449.8v27.8c0,0.1,0.4,0.1,1,0.1h2.7c0.6,0,1-0.1,1-0.1v-27.8c0-0.1-0.4-0.1-1-0.1h-2.7
			C1742.3,449.7,1741.8,449.7,1741.8,449.8z"/>
		<path class="st14" d="M1730.7,449.8v27.8c0,0.1,0.4,0.1,1,0.1h2.7c0.6,0,1-0.1,1-0.1v-27.8c0-0.1-0.4-0.1-1-0.1h-2.7
			C1731.2,449.7,1730.7,449.7,1730.7,449.8z"/>
		<path class="st14" d="M1719.6,449.8v27.8c0,0.1,0.4,0.1,1,0.1h2.7c0.6,0,1-0.1,1-0.1v-27.8c0-0.1-0.4-0.1-1-0.1h-2.7
			C1720,449.7,1719.6,449.7,1719.6,449.8z"/>
		<path class="st14" d="M1907.2,473.7h-192.7c-0.5,0-0.9,0.4-0.9,1v2.7c0,0.6,0.4,1,0.9,1h192.7c0.5,0,0.9-0.4,0.9-1v-2.7
			C1908.1,474.1,1907.7,473.7,1907.2,473.7z"/>
	</g>
	<path class="st4" d="M1690.4,357.3v685.2c0,2.3,2,4.2,4.4,4.2h230.8c2.4,0,4.4-1.9,4.4-4.2V357.3c0-2.3-2-4.2-4.4-4.2h-230.8
		C1692.4,353.1,1690.4,355,1690.4,357.3z M1730.2,399.2c0-2.5,2-4.5,4.4-4.5h152c2.4,0,4.4,2,4.4,4.5v87.4c0,2.5-2,4.5-4.4,4.5h-152
		c-2.4,0-4.4-2-4.4-4.5V399.2z"/>
	<g>
		<path class="st14" d="M65.4,449.8v27.8c0,0.1-0.4,0.1-1,0.1h-2.7c-0.6,0-1-0.1-1-0.1v-27.8c0-0.1,0.4-0.1,1-0.1h2.7
			C64.9,449.7,65.4,449.7,65.4,449.8z"/>
		<path class="st14" d="M76.5,449.8v27.8c0,0.1-0.4,0.1-1,0.1h-2.7c-0.6,0-1-0.1-1-0.1v-27.8c0-0.1,0.4-0.1,1-0.1h2.7
			C76.1,449.7,76.5,449.7,76.5,449.8z"/>
		<path class="st14" d="M87.6,449.8v27.8c0,0.1-0.4,0.1-1,0.1H84c-0.6,0-1-0.1-1-0.1v-27.8c0-0.1,0.4-0.1,1-0.1h2.7
			C87.2,449.7,87.6,449.7,87.6,449.8z"/>
		<path class="st14" d="M98.7,449.8v27.8c0,0.1-0.4,0.1-1,0.1h-2.7c-0.6,0-1-0.1-1-0.1v-27.8c0-0.1,0.4-0.1,1-0.1h2.7
			C98.3,449.7,98.7,449.7,98.7,449.8z"/>
		<path class="st14" d="M109.8,449.8v27.8c0,0.1-0.4,0.1-1,0.1h-2.7c-0.6,0-1-0.1-1-0.1v-27.8c0-0.1,0.4-0.1,1-0.1h2.7
			C109.4,449.7,109.8,449.7,109.8,449.8z"/>
		<path class="st14" d="M121,449.8v27.8c0,0.1-0.4,0.1-1,0.1h-2.7c-0.6,0-1-0.1-1-0.1v-27.8c0-0.1,0.4-0.1,1-0.1h2.7
			C120.5,449.7,121,449.7,121,449.8z"/>
		<path class="st14" d="M132.1,449.8v27.8c0,0.1-0.4,0.1-1,0.1h-2.7c-0.6,0-1-0.1-1-0.1v-27.8c0-0.1,0.4-0.1,1-0.1h2.7
			C131.6,449.7,132.1,449.7,132.1,449.8z"/>
		<path class="st14" d="M143.2,449.8v27.8c0,0.1-0.4,0.1-1,0.1h-2.7c-0.6,0-1-0.1-1-0.1v-27.8c0-0.1,0.4-0.1,1-0.1h2.7
			C142.7,449.7,143.2,449.7,143.2,449.8z"/>
		<path class="st14" d="M154.3,449.8v27.8c0,0.1-0.4,0.1-1,0.1h-2.7c-0.6,0-1-0.1-1-0.1v-27.8c0-0.1,0.4-0.1,1-0.1h2.7
			C153.8,449.7,154.3,449.7,154.3,449.8z"/>
		<path class="st14" d="M165.4,449.8v27.8c0,0.1-0.4,0.1-1,0.1h-2.7c-0.6,0-1-0.1-1-0.1v-27.8c0-0.1,0.4-0.1,1-0.1h2.7
			C164.9,449.7,165.4,449.7,165.4,449.8z"/>
		<path class="st14" d="M176.5,449.8v27.8c0,0.1-0.4,0.1-1,0.1h-2.7c-0.6,0-1-0.1-1-0.1v-27.8c0-0.1,0.4-0.1,1-0.1h2.7
			C176.1,449.7,176.5,449.7,176.5,449.8z"/>
		<path class="st14" d="M187.6,449.8v27.8c0,0.1-0.4,0.1-1,0.1H184c-0.6,0-1-0.1-1-0.1v-27.8c0-0.1,0.4-0.1,1-0.1h2.7
			C187.2,449.7,187.6,449.7,187.6,449.8z"/>
		<path class="st14" d="M198.7,449.8v27.8c0,0.1-0.4,0.1-1,0.1h-2.7c-0.6,0-1-0.1-1-0.1v-27.8c0-0.1,0.4-0.1,1-0.1h2.7
			C198.3,449.7,198.7,449.7,198.7,449.8z"/>
		<path class="st14" d="M209.8,449.8v27.8c0,0.1-0.4,0.1-1,0.1h-2.7c-0.6,0-1-0.1-1-0.1v-27.8c0-0.1,0.4-0.1,1-0.1h2.7
			C209.4,449.7,209.8,449.7,209.8,449.8z"/>
		<path class="st14" d="M220.9,449.8v27.8c0,0.1-0.4,0.1-1,0.1h-2.7c-0.6,0-1-0.1-1-0.1v-27.8c0-0.1,0.4-0.1,1-0.1h2.7
			C220.5,449.7,220.9,449.7,220.9,449.8z"/>
		<path class="st14" d="M232.1,449.8v27.8c0,0.1-0.4,0.1-1,0.1h-2.7c-0.6,0-1-0.1-1-0.1v-27.8c0-0.1,0.4-0.1,1-0.1h2.7
			C231.6,449.7,232.1,449.7,232.1,449.8z"/>
		<path class="st14" d="M243.2,449.8v27.8c0,0.1-0.4,0.1-1,0.1h-2.7c-0.6,0-1-0.1-1-0.1v-27.8c0-0.1,0.4-0.1,1-0.1h2.7
			C242.7,449.7,243.2,449.7,243.2,449.8z"/>
		<path class="st14" d="M55.6,473.7h192.7c0.5,0,0.9,0.4,0.9,1v2.7c0,0.6-0.4,1-0.9,1H55.6c-0.5,0-0.9-0.4-0.9-1v-2.7
			C54.6,474.1,55,473.7,55.6,473.7z"/>
	</g>
	<path class="st4" d="M267.9,353.1H37.1c-2.4,0-4.4,1.9-4.4,4.2v685.2c0,2.3,2,4.2,4.4,4.2h230.8c2.4,0,4.4-1.9,4.4-4.2V357.3
		C272.4,355,270.4,353.1,267.9,353.1z M232.6,486.5c0,2.5-2,4.5-4.4,4.5h-152c-2.4,0-4.4-2-4.4-4.5v-87.4c0-2.5,2-4.5,4.4-4.5h152
		c2.4,0,4.4,2,4.4,4.5V486.5z"/>
	<g>
		<g class="st20">
			<g>
				<path class="st14" d="M103.4,531.4h-5.9H82.6h-5.9c0,0-11,274.6,0,286.8H79h22.2h2.3C114.4,806,103.4,531.4,103.4,531.4z"/>
				<path class="st14" d="M108.9,531.4H71.2c-4.5,0-8.2-3.7-8.2-8.2V517c0-4.5,3.7-8.2,8.2-8.2h37.7c4.5,0,8.2,3.7,8.2,8.2v6.2
					C117.1,527.7,113.4,531.4,108.9,531.4z"/>
			</g>
			<path class="st14" d="M112.8,831.7H67.3c-4.5,0-8.2-3.7-8.2-8.2v-10.6c0-4.5,3.7-8.2,8.2-8.2h45.4c4.5,0,8.2,3.7,8.2,8.2v10.6
				C121,828.1,117.3,831.7,112.8,831.7z"/>
		</g>
		<g>
			<g>
				<path class="st21" d="M108.3,531.4h-5.9H87.4h-5.9c0,0-11,274.6,0,286.8h2.3H106h2.3C119.2,806,108.3,531.4,108.3,531.4z"/>
				<path class="st21" d="M113.7,531.4H76c-4.5,0-8.2-3.7-8.2-8.2V517c0-4.5,3.7-8.2,8.2-8.2h37.7c4.5,0,8.2,3.7,8.2,8.2v6.2
					C121.9,527.7,118.2,531.4,113.7,531.4z"/>
			</g>
			<path class="st21" d="M117.6,831.7H72.2c-4.5,0-8.2-3.7-8.2-8.2v-10.6c0-4.5,3.7-8.2,8.2-8.2h45.4c4.5,0,8.2,3.7,8.2,8.2v10.6
				C125.8,828,122.1,831.7,117.6,831.7z"/>
		</g>
	</g>
	<g>
		<g class="st20">
			<g>
				<path class="st14" d="M226.2,531.4h-5.9h-14.9h-5.9c0,0-11,274.6,0,286.8h2.3h22.2h2.3C237.2,806,226.2,531.4,226.2,531.4z"/>
				<path class="st14" d="M231.6,531.4H194c-4.5,0-8.2-3.7-8.2-8.2V517c0-4.5,3.7-8.2,8.2-8.2h37.7c4.5,0,8.2,3.7,8.2,8.2v6.2
					C239.9,527.7,236.2,531.4,231.6,531.4z"/>
			</g>
			<path class="st14" d="M235.5,831.7h-45.4c-4.5,0-8.2-3.7-8.2-8.2v-10.6c0-4.5,3.7-8.2,8.2-8.2h45.4c4.5,0,8.2,3.7,8.2,8.2v10.6
				C243.7,828.1,240.1,831.7,235.5,831.7z"/>
		</g>
		<g>
			<g>
				<path class="st21" d="M229.9,530.4h-5.9H209h-5.9c0,0-11,274.6,0,286.8h2.3h22.2h2.3C240.8,805,229.9,530.4,229.9,530.4z"/>
				<path class="st21" d="M235.3,530.4h-37.7c-4.5,0-8.2-3.7-8.2-8.2V516c0-4.5,3.7-8.2,8.2-8.2h37.7c4.5,0,8.2,3.7,8.2,8.2v6.2
					C243.5,526.7,239.8,530.4,235.3,530.4z"/>
			</g>
			<path class="st21" d="M239.2,830.7h-45.4c-4.5,0-8.2-3.7-8.2-8.2v-10.6c0-4.5,3.7-8.2,8.2-8.2h45.4c4.5,0,8.2,3.7,8.2,8.2v10.6
				C247.4,827,243.7,830.7,239.2,830.7z"/>
		</g>
	</g>
	<path class="st3" d="M1964.6,481.3v-14c0-0.7-0.7-1.3-1.7-1.3h-65.5v0H67.2v-0.1H1.6c-0.9,0-1.6,0.6-1.6,1.3v14.2
		c0,0.7,0.6,1.2,1.5,1.3c4.6,0.2,19.1,1.5,32.1,8.8v0.1H1914l16.5,0c0.3,0,0.6-0.1,0.9-0.2c12.9-7.1,27-8.3,31.6-8.6"/>
	<rect x="271.4" y="384.8" class="st4" width="1420" height="81.1"/>
	<rect x="32.7" y="491.4" class="st14" width="1898.1" height="17.9"/>
	<path class="st4" d="M609,363.7v7.4c0,0.6,0.4,1,1,1l0,0c2.6,0,4.9,1.3,6.4,3.3l2.9,4.2c2.1,3,3.2,6.6,3.2,10.3v59.7
		c0,0.6,0.4,1,1,1h45.4c0.6,0,1-0.4,1-1v-85.9c0-0.6-0.4-1-1-1H610C609.4,362.7,609,363.1,609,363.7z"/>
	<path class="st4" d="M686,362.7h-62.8c-0.9,0-1.6-0.7-1.6-1.6v-29.5c0-0.9,0.7-1.6,1.6-1.6H686c0.9,0,1.6,0.7,1.6,1.6v29.5
		C687.6,362,686.8,362.7,686,362.7z"/>
	<path class="st4" d="M1357.2,363.7v7.4c0,0.6-0.4,1-1,1l0,0c-2.6,0-4.9,1.3-6.4,3.3l-2.9,4.2c-2.1,3-3.2,6.6-3.2,10.3v59.7
		c0,0.6-0.4,1-1,1h-45.4c-0.6,0-1-0.4-1-1v-85.9c0-0.6,0.4-1,1-1h58.9C1356.7,362.7,1357.2,363.1,1357.2,363.7z"/>
	<path class="st3" d="M1928.8,336h-35.1c-1.1,0-2,0.9-2,2l0,13c0,1-0.8,1.9-1.9,1.9l-156.5,0c-1,0-1.9-0.9-1.9-1.9V338
		c0-1.1-0.9-2-2-2h-35.1c-1.1,0-2,0.9-2,2l0.1,14.9l-710.6,0l-710.6,0l0-14.9c0-1.1-0.9-2-2-2h-35.1c-1.1,0-2,0.9-2,2v13.1
		c0,1-0.8,1.9-1.9,1.9l-156.5,0c-1,0-1.9-0.9-1.9-1.9l0-13c0-1.1-0.9-2-2-2H34.7c-1.1,0-2,0.9-2,2v16.2v0.8v6.2v15.4h1896.1
		c1.1,0,2-0.9,2-2v-13.4V355v-0.8V338C1930.8,336.9,1929.9,336,1928.8,336z"/>
	<path class="st4" d="M1280.3,368h62.5c1,0,1.7-0.8,1.7-1.7v-34.5c0-1-0.8-1.7-1.7-1.7h-62.5c-1,0-1.7,0.8-1.7,1.7v34.5
		C1278.6,367.2,1279.4,368,1280.3,368z"/>
	<path class="st14" d="M668.7,349.1v16.8c0,1.1,0.9,2,2,2h616.4c1.1,0,2-0.9,2-2v-14.2c0-1.1-0.9-2-2-2l-616.4-2.6
		C669.6,347.1,668.7,348,668.7,349.1z"/>
	<path class="st21" d="M1297.1,443.3H669.6c-0.4,0-0.7-0.3-0.7-0.7v-74.2c0-0.4,0.3-0.7,0.7-0.7h627.5c0.4,0,0.7,0.3,0.7,0.7v74.2
		C1297.7,443,1297.5,443.3,1297.1,443.3z"/>
	<g>
		<defs>
			<path id="SVGID_54_" d="M770.6,450.6h-61.5c-2.9,0-5.3-2.4-5.3-5.3v-49.8c0-13,10.5-23.5,23.5-23.5h25.2
				c13,0,23.5,10.5,23.5,23.5v49.8C775.9,448.2,773.5,450.6,770.6,450.6z"/>
		</defs>
		<clipPath id="SVGID_1_">
			<use xlink:href="#SVGID_54_"  style="overflow:visible;"/>
		</clipPath>
		<path style="clip-path:url(#SVGID_1_);fill:#E2768D;" d="M770.6,450.6h-61.5c-2.9,0-5.3-2.4-5.3-5.3v-49.8
			c0-13,10.5-23.5,23.5-23.5h25.2c13,0,23.5,10.5,23.5,23.5v49.8C775.9,448.2,773.5,450.6,770.6,450.6z"/>
		<path style="clip-path:url(#SVGID_1_);fill:#273954;" d="M769.6,448H727c-5.1,0-9.3-4.2-9.3-9.3v-32.3c0-13.1,10.7-23.8,23.8-23.8
			h37.3v56.1C778.9,443.8,774.7,448,769.6,448z"/>
	</g>
	<g>
		<defs>
			<path id="SVGID_56_" d="M1191.5,450.6h61.5c2.9,0,5.3-2.4,5.3-5.3v-49.8c0-13-10.5-23.5-23.5-23.5h-25.2
				c-13,0-23.5,10.5-23.5,23.5v49.8C1186.1,448.2,1188.5,450.6,1191.5,450.6z"/>
		</defs>
		<clipPath id="SVGID_3_">
			<use xlink:href="#SVGID_56_"  style="overflow:visible;"/>
		</clipPath>
		<path class="st22" d="M1191.5,450.6h61.5c2.9,0,5.3-2.4,5.3-5.3v-49.8c0-13-10.5-23.5-23.5-23.5h-25.2c-13,0-23.5,10.5-23.5,23.5
			v49.8C1186.1,448.2,1188.5,450.6,1191.5,450.6z"/>
		<path class="st23" d="M1192.5,448h42.5c5.1,0,9.3-4.2,9.3-9.3v-32.3c0-13.1-10.7-23.8-23.8-23.8h-37.3v56.1
			C1183.2,443.8,1187.4,448,1192.5,448z"/>
	</g>
	<rect x="1030.5" y="163.6" class="st4" width="113.1" height="107.4"/>
	<rect x="917.3" y="163.6" class="st3" width="113.1" height="107.4"/>
	<rect x="811.8" y="163.6" class="st15" width="106.9" height="107.4"/>
	<g>
		<path class="st4" d="M668.7,325.1v11.8c0,1.2,1,2.1,2.1,2.1h616.3c1.2,0,2.1-1,2.1-2.1v-9.8c0-1.2-0.9-2.1-2.1-2.1l-616.3-2
			C669.6,323,668.7,324,668.7,325.1z"/>
		<path class="st4" d="M974.6,336L652,334.9c-1.2,0-2.1,1-2.1,2.1v5.9c0,0.7,0.3,1.3,0.9,1.7l8.6,6.3c2,1.4,4.4,2.2,6.8,2.2h308h1
			h308.7c2,0,3.9-0.6,5.6-1.8l9.2-6.7c0.5-0.4,0.9-1,0.9-1.7V337c0-1.2-1-2.1-2.1-2.1L974.6,336z"/>
	</g>
	<path class="st4" d="M1148.8,187.1h-125.2c-4.2,0-7.6-3.4-7.6-7.6v-13.1c0-4.2,3.4-7.6,7.6-7.6h125.2c4.2,0,7.6,3.4,7.6,7.6v13.1
		C1156.4,183.7,1153,187.1,1148.8,187.1z"/>
	<path class="st14" d="M1102.2,253.9h-29.1c-1.8,0-3.2-1.4-3.2-3.2v-61.3c0-7.8,6.3-14,14-14h7.4c7.8,0,14,6.3,14,14v61.3
		C1105.4,252.5,1103.9,253.9,1102.2,253.9z"/>
	<path class="st0" d="M1092.4,251.3h-22.5v-61.1h22.5c3.4,0,6.1,2.7,6.1,6.1v48.8C1098.6,248.6,1095.8,251.3,1092.4,251.3z"/>
	<path class="st3" d="M1035.6,187.1H910.4c-4.2,0-7.6-3.4-7.6-7.6v-13.1c0-4.2,3.4-7.6,7.6-7.6h125.2c4.2,0,7.6,3.4,7.6,7.6v13.1
		C1043.2,183.7,1039.8,187.1,1035.6,187.1z"/>
	<path class="st14" d="M997.9,253.9h-42.5c-2.5,0-4.5-2-4.5-4.5v-54.2c0-10.9,8.9-19.8,19.8-19.8h11.8c10.9,0,19.8,8.9,19.8,19.8
		v54.2C1002.4,251.9,1000.4,253.9,997.9,253.9z"/>
	<path class="st0" d="M990.1,251.3h-26.8c-4.1,0-7.4-3.3-7.4-7.4v-46.3c0-4.1,3.3-7.4,7.4-7.4h26.8c4.1,0,7.4,3.3,7.4,7.4v46.3
		C997.5,248,994.2,251.3,990.1,251.3z"/>
	<path class="st15" d="M923.5,187.1h-118c-4.1,0-7.4-3.3-7.4-7.4v-13.6c0-4.1,3.3-7.4,7.4-7.4h118c4.1,0,7.4,3.3,7.4,7.4v13.6
		C930.9,183.8,927.6,187.1,923.5,187.1z"/>
	<path class="st14" d="M880.4,253.9h-29.7c-1.8,0-3.3-1.5-3.3-3.3v-60.9c0-7.9,6.4-14.4,14.4-14.4h7.5c7.9,0,14.4,6.4,14.4,14.4
		v60.9C883.6,252.5,882.2,253.9,880.4,253.9z"/>
	<path class="st0" d="M883.6,251.3h-23.1c-3.4,0-6.2-2.8-6.2-6.2v-48.7c0-3.4,2.8-6.2,6.2-6.2h23.1V251.3z"/>
	<polygon class="st18" points="811.8,163.6 1143.6,163.6 811.8,182.4 	"/>
	<path class="st14" d="M32.7,375.8v9v4.1c0,1.3,1,2.3,2.3,2.3h34.6c1.3,0,2.3-1,2.3-2.3v-4.1h160.6v4.1c0,1.3,1,2.3,2.3,2.3h34.6
		c1.3,0,2.3-1,2.3-2.3v-4.1h1420.4v4.1c0,1.3,1,2.3,2.3,2.3h34.6c1.3,0,2.3-1,2.3-2.3v-4.1h160.6v4.1c0,1.3,1,2.3,2.3,2.3h34.6
		c1.3,0,2.3-1,2.3-2.3v-4.1v-9H32.7z"/>
	<path class="st14" d="M1317.9,442.3v16.4c0,0.6-0.5,1-1,1h-9.5c-4.3,0-8.3,1.8-11.2,5l0,0c-0.2,0.2-0.5,0.4-0.8,0.4h-119.7
		c-0.6,0-1-0.5-1-1v-21.8c0-0.6,0.5-1,1-1h141.2C1317.4,441.3,1317.9,441.8,1317.9,442.3z"/>
	<rect x="660.7" y="465.2" class="st3" width="628.9" height="318.1"/>
	<path class="st21" d="M1181.1,475.4H784.5c-2.2,0-3.9-1.8-3.9-4l-0.1-13.6c0-0.8,0.7-1.5,1.5-1.5h399.1c0.8,0,1.5,0.7,1.5,1.5v16.1
		C1182.6,474.7,1181.9,475.4,1181.1,475.4z"/>
	<g>
		<path class="st21" d="M816.2,496.5h-5.9h-14.9h-5.9c0,0-11,274.6,0,286.8h2.3h22.2h2.3C827.2,771.1,816.2,496.5,816.2,496.5z"/>
		<path class="st21" d="M821.7,496.5H784c-4.5,0-8.2-3.7-8.2-8.2v-6.2c0-4.5,3.7-8.2,8.2-8.2h37.7c4.5,0,8.2,3.7,8.2,8.2v6.2
			C829.9,492.9,826.2,496.5,821.7,496.5z"/>
	</g>
	<g>
		<path class="st21" d="M937.8,496.5h-5.9H917H911c0,0-11,274.6,0,286.8h2.3h22.2h2.3C948.8,771.1,937.8,496.5,937.8,496.5z"/>
		<path class="st21" d="M943.2,496.5h-37.7c-4.5,0-8.2-3.7-8.2-8.2v-6.2c0-4.5,3.7-8.2,8.2-8.2h37.7c4.5,0,8.2,3.7,8.2,8.2v6.2
			C951.5,492.9,947.8,496.5,943.2,496.5z"/>
	</g>
	<g>
		<path class="st21" d="M1062.9,496.5h-5.9H1042h-5.9c0,0-11,274.6,0,286.8h2.3h22.2h2.3C1073.9,771.1,1062.9,496.5,1062.9,496.5z"
			/>
		<path class="st21" d="M1068.3,496.5h-37.7c-4.5,0-8.2-3.7-8.2-8.2v-6.2c0-4.5,3.7-8.2,8.2-8.2h37.7c4.5,0,8.2,3.7,8.2,8.2v6.2
			C1076.5,492.9,1072.9,496.5,1068.3,496.5z"/>
	</g>
	<g>
		<path class="st21" d="M1172.5,496.5h-5.9h-14.9h-5.9c0,0-11,274.6,0,286.8h2.3h22.2h2.3C1183.4,771.1,1172.5,496.5,1172.5,496.5z"
			/>
		<path class="st21" d="M1177.9,496.5h-37.7c-4.5,0-8.2-3.7-8.2-8.2v-6.2c0-4.5,3.7-8.2,8.2-8.2h37.7c4.5,0,8.2,3.7,8.2,8.2v6.2
			C1186.1,492.9,1182.5,496.5,1177.9,496.5z"/>
	</g>
	<path class="st19" d="M1182.6,465.2l107.1,0L809.6,783.3H609.1l-0.3-318.1l171.6,0l0.2,6.6c0.1,2,1.7,3.6,3.8,3.6h396.7
		c1,0,1.6-0.8,1.6-1.8L1182.6,465.2z"/>
	<g>
		<path class="st14" d="M1011.8,612.4h-53.6c-3.3,0-5.9-2.6-5.9-5.9v-74.1c0-14.3,11.6-25.9,25.9-25.9h13.5
			c14.3,0,25.9,11.6,25.9,25.9v74.1C1017.7,609.8,1015,612.4,1011.8,612.4z"/>
		<path class="st0" d="M1000.9,608.9h-32.4c-5.3,0-9.6-4.3-9.6-9.6V536c0-5.3,4.3-9.6,9.6-9.6h32.4c5.3,0,9.6,4.3,9.6,9.6v63.3
			C1010.4,604.6,1006.1,608.9,1000.9,608.9z"/>
	</g>
	<g>
		<path class="st14" d="M1120.9,612.4h-41.4c-2.9,0-5.2-2.3-5.2-5.2v-77.6c0-12.8,10.3-23.1,23.1-23.1h5.7
			c12.8,0,23.1,10.3,23.1,23.1v77.6C1126.1,610.1,1123.8,612.4,1120.9,612.4z"/>
		<path class="st0" d="M1107.9,608.9H1084c-4.7,0-8.5-3.8-8.5-8.5V535c0-4.7,3.8-8.5,8.5-8.5h23.8c4.7,0,8.5,3.8,8.5,8.5v65.4
			C1116.4,605.1,1112.6,608.9,1107.9,608.9z"/>
	</g>
	<g>
		<path class="st14" d="M1242.9,612.4h-41.4c-2.9,0-5.2-2.3-5.2-5.2v-77.6c0-12.8,10.3-23.1,23.1-23.1h5.7
			c12.8,0,23.1,10.3,23.1,23.1v77.6C1248.2,610.1,1245.8,612.4,1242.9,612.4z"/>
		<path class="st0" d="M1233.9,608.9h-23.8c-4.7,0-8.5-3.8-8.5-8.5V535c0-4.7,3.8-8.5,8.5-8.5h23.8c4.7,0,8.5,3.8,8.5,8.5v65.4
			C1242.4,605.1,1238.6,608.9,1233.9,608.9z"/>
		<path class="st14" d="M1242.9,612.4h-41.4c-2.9,0-5.2-2.3-5.2-5.2v-77.6c0-12.8,10.3-23.1,23.1-23.1h5.7
			c12.8,0,23.1,10.3,23.1,23.1v77.6C1248.2,610.1,1245.8,612.4,1242.9,612.4z"/>
		<path class="st0" d="M1228.6,608.9h-32.4v-82.4h32.4c4.7,0,8.5,3.8,8.5,8.5v65.4C1237.2,605.1,1233.3,608.9,1228.6,608.9z"/>
	</g>
	<g>
		<path class="st14" d="M842.6,612.4h41.4c2.9,0,5.2-2.3,5.2-5.2v-77.6c0-12.8-10.3-23.1-23.1-23.1h-5.7
			c-12.8,0-23.1,10.3-23.1,23.1v77.6C837.3,610.1,839.7,612.4,842.6,612.4z"/>
		<path class="st0" d="M855.4,608.9h23.8c4.7,0,8.5-3.8,8.5-8.5V535c0-4.7-3.8-8.5-8.5-8.5h-23.8c-4.7,0-8.5,3.8-8.5,8.5v65.4
			C846.8,605.1,850.7,608.9,855.4,608.9z"/>
	</g>
	<g>
		<path class="st14" d="M720.5,612.4h41.4c2.9,0,5.2-2.3,5.2-5.2v-77.6c0-12.8-10.3-23.1-23.1-23.1h-5.7
			c-12.8,0-23.1,10.3-23.1,23.1v77.6C715.3,610.1,717.6,612.4,720.5,612.4z"/>
		<path class="st0" d="M735,608.9h32.4v-82.4H735c-4.7,0-8.5,3.8-8.5,8.5v65.4C726.4,605.1,730.3,608.9,735,608.9z"/>
	</g>
	<g>
		<path class="st14" d="M1011.8,759.7h-53.6c-3.3,0-5.9-2.6-5.9-5.9v-74.1c0-14.3,11.6-25.9,25.9-25.9h13.5
			c14.3,0,25.9,11.6,25.9,25.9v74.1C1017.7,757.1,1015,759.7,1011.8,759.7z"/>
		<path class="st0" d="M1000.9,756.1h-32.4c-5.3,0-9.6-4.3-9.6-9.6v-63.3c0-5.3,4.3-9.6,9.6-9.6h32.4c5.3,0,9.6,4.3,9.6,9.6v63.3
			C1010.4,751.9,1006.1,756.1,1000.9,756.1z"/>
	</g>
	<g>
		<path class="st14" d="M1120.9,759.7h-41.4c-2.9,0-5.2-2.3-5.2-5.2v-77.6c0-12.8,10.3-23.1,23.1-23.1h5.7
			c12.8,0,23.1,10.3,23.1,23.1v77.6C1126.1,757.4,1123.8,759.7,1120.9,759.7z"/>
		<path class="st0" d="M1107.9,756.1H1084c-4.7,0-8.5-3.8-8.5-8.5v-65.4c0-4.7,3.8-8.5,8.5-8.5h23.8c4.7,0,8.5,3.8,8.5,8.5v65.4
			C1116.4,752.3,1112.6,756.1,1107.9,756.1z"/>
	</g>
	<g>
		<path class="st14" d="M1242.9,759.7h-41.4c-2.9,0-5.2-2.3-5.2-5.2v-77.6c0-12.8,10.3-23.1,23.1-23.1h5.7
			c12.8,0,23.1,10.3,23.1,23.1v77.6C1248.2,757.4,1245.8,759.7,1242.9,759.7z"/>
		<path class="st0" d="M1233.9,756.1h-23.8c-4.7,0-8.5-3.8-8.5-8.5v-65.4c0-4.7,3.8-8.5,8.5-8.5h23.8c4.7,0,8.5,3.8,8.5,8.5v65.4
			C1242.4,752.3,1238.6,756.1,1233.9,756.1z"/>
		<path class="st14" d="M1242.9,759.7h-41.4c-2.9,0-5.2-2.3-5.2-5.2v-77.6c0-12.8,10.3-23.1,23.1-23.1h5.7
			c12.8,0,23.1,10.3,23.1,23.1v77.6C1248.2,757.4,1245.8,759.7,1242.9,759.7z"/>
		<path class="st0" d="M1228.6,756.1h-32.4v-82.4h32.4c4.7,0,8.5,3.8,8.5,8.5v65.4C1237.2,752.3,1233.3,756.1,1228.6,756.1z"/>
	</g>
	<g>
		<path class="st14" d="M842.6,759.7h41.4c2.9,0,5.2-2.3,5.2-5.2v-77.6c0-12.8-10.3-23.1-23.1-23.1h-5.7
			c-12.8,0-23.1,10.3-23.1,23.1v77.6C837.3,757.4,839.7,759.7,842.6,759.7z"/>
		<path class="st0" d="M855.4,756.1h23.8c4.7,0,8.5-3.8,8.5-8.5v-65.4c0-4.7-3.8-8.5-8.5-8.5h-23.8c-4.7,0-8.5,3.8-8.5,8.5v65.4
			C846.8,752.3,850.7,756.1,855.4,756.1z"/>
	</g>
	<g>
		<path class="st14" d="M720.5,759.7h41.4c2.9,0,5.2-2.3,5.2-5.2v-77.6c0-12.8-10.3-23.1-23.1-23.1h-5.7
			c-12.8,0-23.1,10.3-23.1,23.1v77.6C715.3,757.4,717.6,759.7,720.5,759.7z"/>
		<path class="st0" d="M735,756.1h32.4v-82.4H735c-4.7,0-8.5,3.8-8.5,8.5v65.4C726.4,752.3,730.3,756.1,735,756.1z"/>
	</g>
	<path class="st3" d="M978.2,330.1l-225,78.1c-0.8,0.3-1.2,1.2-0.9,2l6.6,17.2c0.2,0.6,0.8,1,1.4,1h210.3h10.2h216.3
		c0.6,0,1.2-0.4,1.4-1l6.6-17.2c0.3-0.8-0.1-1.7-0.9-2l-225-78.1C978.9,330,978.5,330,978.2,330.1z"/>
	<path class="st14" d="M982.6,428.3L982.6,428.3H759.4l8.5,27.9c0.4,1.2,1.5,2.1,2.8,2.1h211.8v0h204c1.3,0,2.4-0.8,2.8-2.1
		l8.7-27.9H982.6z"/>
	<path class="st14" d="M977.6,350.6l-174.7,62c-1.2,0.4-0.9,2.2,0.4,2.2H831c6.8,0,13.5-1.1,19.9-3.3l126.7-43.6
		c0.7-0.2,1.4-0.2,2.1,0l129.6,44.6c4.5,1.6,9.2,2.3,14,2.3h30.7c1.3,0,1.6-1.7,0.4-2.2l-174.7-62
		C979.1,350.3,978.3,350.3,977.6,350.6z"/>
	<g>
		<circle class="st14" cx="978.7" cy="392.4" r="19"/>
		<circle class="st0" cx="978.7" cy="392.4" r="12"/>
	</g>
	<path class="st4" d="M609,363.7v7.4c0,0.6,0.4,1,1,1l0,0c2.6,0,4.9,1.3,6.4,3.3l2.9,4.2c2.1,3,3.2,6.6,3.2,10.3v59.7
		c0,0.6,0.4,1,1,1h45.4c0.6,0,1-0.4,1-1v-85.9c0-0.6-0.4-1-1-1H610C609.4,362.7,609,363.1,609,363.7z"/>
	<path class="st4" d="M686,362.7h-62.8c-0.9,0-1.6-0.7-1.6-1.6v-29.5c0-0.9,0.7-1.6,1.6-1.6H686c0.9,0,1.6,0.7,1.6,1.6v29.5
		C687.6,362,686.8,362.7,686,362.7z"/>
	<path class="st4" d="M1357.2,363.7v7.4c0,0.6-0.4,1-1,1l0,0c-2.6,0-4.9,1.3-6.4,3.3l-2.9,4.2c-2.1,3-3.2,6.6-3.2,10.3v59.7
		c0,0.6-0.4,1-1,1h-45.4c-0.6,0-1-0.4-1-1v-85.9c0-0.6,0.4-1,1-1h58.9C1356.7,362.7,1357.2,363.1,1357.2,363.7z"/>
	<path class="st4" d="M1280.3,368h62.5c1,0,1.7-0.8,1.7-1.7v-34.5c0-1-0.8-1.7-1.7-1.7h-62.5c-1,0-1.7,0.8-1.7,1.7v34.5
		C1278.6,367.2,1279.4,368,1280.3,368z"/>
	<path class="st14" d="M668.7,349.1v16.8c0,1.1,0.9,2,2,2h616.4c1.1,0,2-0.9,2-2v-14.2c0-1.1-0.9-2-2-2l-616.4-2.6
		C669.6,347.1,668.7,348,668.7,349.1z"/>
	<path class="st21" d="M1297.1,443.3H669.6c-0.4,0-0.7-0.3-0.7-0.7v-74.2c0-0.4,0.3-0.7,0.7-0.7h627.5c0.4,0,0.7,0.3,0.7,0.7v74.2
		C1297.7,443,1297.5,443.3,1297.1,443.3z"/>
	<path class="st19" d="M1190.8,465.2l98.9,0L846.3,783.3H661.1l-0.2-318.1l119.5,0l0.2,6.6c0.1,2,1.6,3.6,3.5,3.6h405.3
		c0.9,0,1.5-0.8,1.5-1.8L1190.8,465.2z"/>
	<rect x="272.4" y="509.3" class="st4" width="1419.1" height="331"/>
	<rect x="271.4" y="854.6" class="st4" width="1420" height="138.2"/>
	<path class="st3" d="M1964.6,840v-8.1c0-0.4-0.7-0.8-1.7-0.8h-65.4v0H71.3V831H5.9c-0.9,0-1.6,0.3-1.6,0.7v8.2
		c0,0.4,0.6,0.7,1.5,0.7c4.6,0.1,19,0.8,32,5.1v0.1h1876.3l16.5,0c0.3,0,0.6,0,0.9-0.1c12.8-4.1,26.9-4.8,31.6-5"/>
	<rect x="36.4" y="845.8" class="st14" width="1894.5" height="10.5"/>
	<rect x="1030.5" y="163.6" class="st4" width="113.1" height="107.4"/>
	<rect x="917.3" y="163.6" class="st3" width="113.1" height="107.4"/>
	<g class="st66">
		<g>
			<path class="st14" d="M812.4,496.9h-5.9h-14.9h-5.9c0,0-11,274.6,0,286.8h2.3H810h2.3C823.3,771.5,812.4,496.9,812.4,496.9z"/>
			<path class="st14" d="M817.8,496.9h-37.7c-4.5,0-8.2-3.7-8.2-8.2v-6.2c0-4.5,3.7-8.2,8.2-8.2h37.7c4.5,0,8.2,3.7,8.2,8.2v6.2
				C826,493.2,822.3,496.9,817.8,496.9z"/>
		</g>
		<path class="st14" d="M821.7,797.2h-45.4c-4.5,0-8.2-3.7-8.2-8.2v-10.6c0-4.5,3.7-8.2,8.2-8.2h45.4c4.5,0,8.2,3.7,8.2,8.2V789
			C829.9,793.5,826.2,797.2,821.7,797.2z"/>
	</g>
	<rect x="811.8" y="163.6" class="st14" width="106.9" height="107.4"/>
	<g>
		<path class="st0" d="M1130.7,161.1c0-83.2-67.5-150.7-150.7-150.7S829.4,77.8,829.4,161.1H1130.7z"/>
		<path class="st0" d="M980.1,10.4c16.1,0,31.7,2.6,46.3,7.3c-3.3-7.5-23.6-13.3-48.3-13.3c-26.3,0-47.7,6.6-48.7,14.8
			C945.2,13.5,962.3,10.4,980.1,10.4z"/>
		<path class="st0" d="M980.2,5.9c11.6,0,22.3,1.3,30.7,3.4c-5.1-5.5-16.9-9.3-30.7-9.3c-13.8,0-25.6,3.8-30.7,9.3
			C957.9,7.2,968.5,5.9,980.2,5.9z"/>
		<path class="st0" d="M1130.7,161.1c0-83.2-67.5-150.7-150.7-150.7S829.4,77.8,829.4,161.1H1130.7z"/>
		<path class="st0" d="M980.1,10.4c16.1,0,31.7,2.6,46.3,7.3c-3.3-7.5-23.6-13.3-48.3-13.3c-26.3,0-47.7,6.6-48.7,14.8
			C945.2,13.5,962.3,10.4,980.1,10.4z"/>
		<path class="st0" d="M980.2,5.9c11.6,0,22.3,1.3,30.7,3.4c-5.1-5.5-16.9-9.3-30.7-9.3c-13.8,0-25.6,3.8-30.7,9.3
			C957.9,7.2,968.5,5.9,980.2,5.9z"/>
	</g>
	<g>
		<path class="st4" d="M668.7,325.1v11.8c0,1.2,1,2.1,2.1,2.1h616.3c1.2,0,2.1-1,2.1-2.1v-9.8c0-1.2-0.9-2.1-2.1-2.1l-616.3-2
			C669.6,323,668.7,324,668.7,325.1z"/>
		<path class="st4" d="M974.6,336L652,334.9c-1.2,0-2.1,1-2.1,2.1v5.9c0,0.7,0.3,1.3,0.9,1.7l8.6,6.3c2,1.4,4.4,2.2,6.8,2.2h308h1
			h308.7c2,0,3.9-0.6,5.6-1.8l9.2-6.7c0.5-0.4,0.9-1,0.9-1.7V337c0-1.2-1-2.1-2.1-2.1L974.6,336z"/>
	</g>
	<path class="st4" d="M1148.8,187.1h-125.2c-4.2,0-7.6-3.4-7.6-7.6v-13.1c0-4.2,3.4-7.6,7.6-7.6h125.2c4.2,0,7.6,3.4,7.6,7.6v13.1
		C1156.4,183.7,1153,187.1,1148.8,187.1z"/>
	<g>
		<path class="st14" d="M1102.2,268.1h-29.1c-1.8,0-3.2-1.4-3.2-3.2v-61.3c0-7.8,6.3-14,14-14h7.4c7.8,0,14,6.3,14,14v61.3
			C1105.4,266.7,1103.9,268.1,1102.2,268.1z"/>
		<path class="st0" d="M1092.4,265.4h-22.5v-61.1h22.5c3.4,0,6.1,2.7,6.1,6.1v48.8C1098.6,262.7,1095.8,265.4,1092.4,265.4z"/>
	</g>
	<path class="st3" d="M1035.6,187.1H910.4c-4.2,0-7.6-3.4-7.6-7.6v-13.1c0-4.2,3.4-7.6,7.6-7.6h125.2c4.2,0,7.6,3.4,7.6,7.6v13.1
		C1043.2,183.7,1039.8,187.1,1035.6,187.1z"/>
	<g>
		<path class="st14" d="M997.9,268.1h-42.5c-2.5,0-4.5-2-4.5-4.5v-54.2c0-10.9,8.9-19.8,19.8-19.8h11.8c10.9,0,19.8,8.9,19.8,19.8
			v54.2C1002.4,266.1,1000.4,268.1,997.9,268.1z"/>
		<path class="st0" d="M990.1,265.4h-26.8c-4.1,0-7.4-3.3-7.4-7.4v-41.3c0-6.8,5.5-12.3,12.3-12.3h16.9c6.8,0,12.3,5.5,12.3,13.3
			V259C997.5,262.1,994.2,265.4,990.1,265.4z"/>
	</g>
	<path class="st14" d="M923.5,187.1h-118c-4.1,0-7.4-3.3-7.4-7.4v-13.6c0-4.1,3.3-7.4,7.4-7.4h118c4.1,0,7.4,3.3,7.4,7.4v13.6
		C930.9,183.8,927.6,187.1,923.5,187.1z"/>
	<g>
		<path class="st85" d="M880.4,268.1h-29.7c-1.8,0-3.3-1.5-3.3-3.3v-60.9c0-7.9,6.4-14.4,14.4-14.4h7.5c7.9,0,14.4,6.4,14.4,14.4
			v60.9C883.6,266.6,882.2,268.1,880.4,268.1z"/>
		<path class="st0" d="M883.6,265.4h-23.1c-3.4,0-6.2-2.8-6.2-6.2v-48.7c0-3.4,2.8-6.2,6.2-6.2h23.1V265.4z"/>
	</g>
	<polygon class="st86" points="811.8,187.1 1143.6,187.1 811.8,206 	"/>
	<rect x="660.7" y="465.2" class="st3" width="628.9" height="318.1"/>
	<g>
		<defs>
			<path id="SVGID_58_" d="M1363.7,441.3h-74.1c-0.7,0-1.3,2-1.3,4.4v15.4H668.7v-15.4c0-2.5-0.6-4.4-1.3-4.4h-74.1
				c-0.7,0-1.3,2-1.3,4.4v32.7c0,2.5,0.6,4.4,1.3,4.4c3.2,0,6.2,5.6,8,14.9l3.7,18.8c2.6,13.4,4,29.3,4,45.6v265.5
				c0,2.5,0.6,4.4,1.3,4.4H660h7.5h622.2h8.1h49c0.7,0,1.3-2,1.3-4.4V562.2c0-16.3,1.4-32.2,4-45.6l3.7-18.8
				c1.8-9.3,4.8-14.9,8-14.9c0.7,0,1.3-2,1.3-4.4v-32.7C1365,443.3,1364.4,441.3,1363.7,441.3z"/>
		</defs>
		<clipPath id="SVGID_5_">
			<use xlink:href="#SVGID_58_"  style="overflow:visible;"/>
		</clipPath>
		<path style="clip-path:url(#SVGID_5_);fill:#F9ECEE;" d="M1363.7,441.3h-74.1c-0.7,0-1.3,2.3-1.3,5.1v17.7H668.7v-17.7
			c0-2.8-0.6-5.1-1.3-5.1h-74.1c-0.7,0-1.3,2.3-1.3,5.1v37.5c0,2.8,0.6,5.1,1.3,5.1c3.2,0,6.2,6.4,8,17.1l3.7,21.5
			c2.6,15.3,4,33.6,4,52.2v304.2c0,2.8,0.6,5.1,1.3,5.1H660h7.5h622.2h8.1h49c0.7,0,1.3-2.3,1.3-5.1V579.9c0-18.7,1.4-36.9,4-52.2
			l3.7-21.5c1.8-10.7,4.8-17.1,8-17.1c0.7,0,1.3-2.3,1.3-5.1v-37.5C1365,443.6,1364.4,441.3,1363.7,441.3z"/>
		<path style="opacity:0.4;clip-path:url(#SVGID_5_);fill:#E2768D;" d="M1152.7,436.4l107.5,0L778.4,832.1H577.2l-0.3-395.7l172.2,0
			l0.2,8.2c0.1,2.5,1.7,4.5,3.8,4.5h398.1c1,0,1.6-1,1.6-2.3L1152.7,436.4z"/>
	</g>
	<polygon class="st19" points="752.2,832.4 752.2,458.7 1229,462 778.4,832.1 	"/>
	<g class="st20">
		<g>
			<path class="st14" d="M934.7,497.9h-5.9h-14.9h-5.9c0,0-11,274.6,0,286.8h2.3h22.2h2.3C945.6,772.5,934.7,497.9,934.7,497.9z"/>
			<path class="st14" d="M940.1,497.9h-37.7c-4.5,0-8.2-3.7-8.2-8.2v-6.2c0-4.5,3.7-8.2,8.2-8.2h37.7c4.5,0,8.2,3.7,8.2,8.2v6.2
				C948.3,494.2,944.6,497.9,940.1,497.9z"/>
		</g>
		<path class="st14" d="M944,798.2h-45.4c-4.5,0-8.2-3.7-8.2-8.2v-10.6c0-4.5,3.7-8.2,8.2-8.2H944c4.5,0,8.2,3.7,8.2,8.2V790
			C952.2,794.5,948.5,798.2,944,798.2z"/>
	</g>
	<g class="st20">
		<g>
			<path class="st14" d="M814,498.9h-5.9h-14.9h-5.9c0,0-11,274.6,0,286.8h2.3h22.2h2.3C825,773.5,814,498.9,814,498.9z"/>
			<path class="st14" d="M819.5,498.9h-37.7c-4.5,0-8.2-3.7-8.2-8.2v-6.2c0-4.5,3.7-8.2,8.2-8.2h37.7c4.5,0,8.2,3.7,8.2,8.2v6.2
				C827.7,495.2,824,498.9,819.5,498.9z"/>
		</g>
		<path class="st14" d="M823.3,799.2h-45.4c-4.5,0-8.2-3.7-8.2-8.2v-10.6c0-4.5,3.7-8.2,8.2-8.2h45.4c4.5,0,8.2,3.7,8.2,8.2V791
			C831.6,795.5,827.9,799.2,823.3,799.2z"/>
	</g>
	<g>
		<path class="st14" d="M363.8,992.9h-65.4c-1.4,0-2.5-1.1-2.5-2.5v-68.1c0-18.5,15-33.5,33.5-33.5h3.4c18.5,0,33.5,15,33.5,33.5
			v68.1C366.2,991.8,365.1,992.9,363.8,992.9z"/>
		<path class="st0" d="M360.8,992.2h-47.2c-1.3,0-2.4-1.1-2.4-2.4v-67.4c0-14.1,11.4-25.6,25.6-25.6h0.9c14.1,0,25.6,11.4,25.6,25.6
			v67.4C363.2,991.1,362.2,992.2,360.8,992.2z"/>
	</g>
	<g>
		<path class="st14" d="M443,992.9h-65.4c-1.4,0-2.5-1.1-2.5-2.5v-68.1c0-18.5,15-33.5,33.5-33.5h3.4c18.5,0,33.5,15,33.5,33.5v68.1
			C445.4,991.8,444.3,992.9,443,992.9z"/>
		<path class="st0" d="M440,992.2h-47.2c-1.3,0-2.4-1.1-2.4-2.4v-67.4c0-14.1,11.4-25.6,25.6-25.6h0.9c14.1,0,25.6,11.4,25.6,25.6
			v67.4C442.4,991.1,441.3,992.2,440,992.2z"/>
	</g>
	<path class="st14" d="M1131.9,776.7H825.7c-1.1,0-2-0.9-2-2v-13.5c0-1.1,0.9-2,2-2h306.2c1.1,0,2,0.9,2,2v13.5
		C1133.9,775.8,1133,776.7,1131.9,776.7z"/>
	<path class="st14" d="M1143.6,794.9H817.4c-1.1,0-2.1-0.9-2.1-2.1V779c0-1.1,0.9-2.1,2.1-2.1h326.2c1.1,0,2.1,0.9,2.1,2.1v13.9
		C1145.7,794,1144.8,794.9,1143.6,794.9z"/>
	<rect x="823.7" y="776.2" class="st89" width="310.2" height="1.6"/>
	<path class="st14" d="M212,1043.3H105.9c-2.2,0-4-1.8-4-4V927.4c0-30.2,24.5-54.6,54.6-54.6h4.9c30.2,0,54.6,24.5,54.6,54.6v111.9
		C216,1041.5,214.2,1043.3,212,1043.3z"/>
	<g>
		<g>
			<path class="st21" d="M816.2,497.5h-5.9h-14.9h-5.9c0,0-11,274.6,0,286.8h2.3h22.2h2.3C827.2,772.1,816.2,497.5,816.2,497.5z"/>
			<path class="st21" d="M821.7,497.5H784c-4.5,0-8.2-3.7-8.2-8.2v-6.2c0-4.5,3.7-8.2,8.2-8.2h37.7c4.5,0,8.2,3.7,8.2,8.2v6.2
				C829.9,493.9,826.2,497.5,821.7,497.5z"/>
		</g>
		<path class="st21" d="M825.6,797.9h-45.4c-4.5,0-8.2-3.7-8.2-8.2V779c0-4.5,3.7-8.2,8.2-8.2h45.4c4.5,0,8.2,3.7,8.2,8.2v10.6
			C833.8,794.2,830.1,797.9,825.6,797.9z"/>
	</g>
	<path class="st0" d="M206.9,1042.2H125c-2.2,0-4.1-1.8-4.1-4.1V928.8c0-23.8,19.3-43,43-43h3.9c23.8,0,43,19.3,43,43v109.3
		C210.9,1040.4,209.1,1042.2,206.9,1042.2z"/>
	<g>
		<path class="st14" d="M769.5,436.7h-77.8c-3.3,0-5.9-2.7-5.9-5.9v-51.9c0-3.3,2.7-5.9,5.9-5.9h77.8c3.3,0,5.9,2.7,5.9,5.9v51.9
			C775.5,434,772.8,436.7,769.5,436.7z"/>
		<path class="st0" d="M764.3,432.9h-26.5c-1.9,0-3.4-1.5-3.4-3.4v-48.8c0-1.9,1.5-3.4,3.4-3.4h26.5c1.9,0,3.4,1.5,3.4,3.4v48.8
			C767.6,431.4,766.1,432.9,764.3,432.9z"/>
		<path class="st0" d="M723.7,432.9H697c-1.9,0-3.4-1.5-3.4-3.4v-48.8c0-1.9,1.5-3.4,3.4-3.4h26.7c1.9,0,3.4,1.5,3.4,3.4v48.8
			C727.1,431.4,725.6,432.9,723.7,432.9z"/>
	</g>
	<g>
		<path class="st14" d="M1276.6,436.7h-77.8c-3.3,0-5.9-2.7-5.9-5.9v-51.9c0-3.3,2.7-5.9,5.9-5.9h77.8c3.3,0,5.9,2.7,5.9,5.9v51.9
			C1282.6,434,1279.9,436.7,1276.6,436.7z"/>
		<path class="st0" d="M1271.3,432.9h-26.5c-1.9,0-3.4-1.5-3.4-3.4v-48.8c0-1.9,1.5-3.4,3.4-3.4h26.5c1.9,0,3.4,1.5,3.4,3.4v48.8
			C1274.7,431.4,1273.2,432.9,1271.3,432.9z"/>
		<path class="st0" d="M1230.8,432.9h-26.7c-1.9,0-3.4-1.5-3.4-3.4v-48.8c0-1.9,1.5-3.4,3.4-3.4h26.7c1.9,0,3.4,1.5,3.4,3.4v48.8
			C1234.2,431.4,1232.7,432.9,1230.8,432.9z"/>
	</g>
	<path class="st3" d="M978.2,330.1l-225,78.1c-0.8,0.3-1.2,1.2-0.9,2l6.6,17.2c0.2,0.6,0.8,1,1.4,1h210.3h10.2h216.3
		c0.6,0,1.2-0.4,1.4-1l6.6-17.2c0.3-0.8-0.1-1.7-0.9-2l-225-78.1C978.9,330,978.5,330,978.2,330.1z"/>
	<path class="st14" d="M982.6,428.3L982.6,428.3H759.4l8.5,27.9c0.4,1.2,1.5,2.1,2.8,2.1h211.8v0h204c1.3,0,2.4-0.8,2.8-2.1
		l8.7-27.9H982.6z"/>
	<path class="st14" d="M977.6,350.6l-174.7,62c-1.2,0.4-0.9,2.2,0.4,2.2H831c6.8,0,13.5-1.1,19.9-3.3l126.7-43.6
		c0.7-0.2,1.4-0.2,2.1,0l129.6,44.6c4.5,1.6,9.2,2.3,14,2.3h30.7c1.3,0,1.6-1.7,0.4-2.2l-174.7-62
		C979.1,350.3,978.3,350.3,977.6,350.6z"/>
	<g>
		<circle class="st14" cx="978.7" cy="392.4" r="19"/>
		<circle class="st0" cx="978.7" cy="392.4" r="12"/>
	</g>
	<g class="st20">
		<g>
			<path class="st14" d="M1168.6,498h-5.9h-14.9h-5.9c0,0-11,274.6,0,286.8h2.3h22.2h2.3C1179.5,772.6,1168.6,498,1168.6,498z"/>
			<path class="st14" d="M1174,498h-37.7c-4.5,0-8.2-3.7-8.2-8.2v-6.2c0-4.5,3.7-8.2,8.2-8.2h37.7c4.5,0,8.2,3.7,8.2,8.2v6.2
				C1182.2,494.4,1178.5,498,1174,498z"/>
		</g>
		<path class="st14" d="M1177.9,798.4h-45.4c-4.5,0-8.2-3.7-8.2-8.2v-10.6c0-4.5,3.7-8.2,8.2-8.2h45.4c4.5,0,8.2,3.7,8.2,8.2v10.6
			C1186.1,794.7,1182.4,798.4,1177.9,798.4z"/>
	</g>
	<g class="st20">
		<g>
			<path class="st14" d="M1055.1,497.9h-5.9h-14.9h-5.9c0,0-11,274.6,0,286.8h2.3h22.2h2.3C1066.1,772.5,1055.1,497.9,1055.1,497.9z
				"/>
			<path class="st14" d="M1060.5,497.9h-37.7c-4.5,0-8.2-3.7-8.2-8.2v-6.2c0-4.5,3.7-8.2,8.2-8.2h37.7c4.5,0,8.2,3.7,8.2,8.2v6.2
				C1068.7,494.2,1065.1,497.9,1060.5,497.9z"/>
		</g>
		<path class="st14" d="M1064.4,798.2H1019c-4.5,0-8.2-3.7-8.2-8.2v-10.6c0-4.5,3.7-8.2,8.2-8.2h45.4c4.5,0,8.2,3.7,8.2,8.2V790
			C1072.6,794.5,1069,798.2,1064.4,798.2z"/>
	</g>
	<path class="st21" d="M1181.1,475.4H784.5c-2.2,0-3.9-1.8-3.9-4l-0.1-13.6c0-0.8,0.7-1.5,1.5-1.5h399.1c0.8,0,1.5,0.7,1.5,1.5v16.1
		C1182.6,474.7,1181.9,475.4,1181.1,475.4z"/>
	<g>
		<g>
			<path class="st21" d="M1172.5,496.5h-5.9h-14.9h-5.9c0,0-11,274.6,0,286.8h2.3h22.2h2.3C1183.4,771.1,1172.5,496.5,1172.5,496.5z
				"/>
			<path class="st21" d="M1177.9,496.5h-37.7c-4.5,0-8.2-3.7-8.2-8.2v-6.2c0-4.5,3.7-8.2,8.2-8.2h37.7c4.5,0,8.2,3.7,8.2,8.2v6.2
				C1186.1,492.9,1182.5,496.5,1177.9,496.5z"/>
		</g>
		<path class="st21" d="M1181.8,796.9h-45.4c-4.5,0-8.2-3.7-8.2-8.2V778c0-4.5,3.7-8.2,8.2-8.2h45.4c4.5,0,8.2,3.7,8.2,8.2v10.6
			C1190,793.2,1186.3,796.9,1181.8,796.9z"/>
	</g>
	<g>
		<g>
			<path class="st21" d="M937.8,496.5h-5.9H917H911c0,0-11,274.6,0,286.8h2.3h22.2h2.3C948.8,771.1,937.8,496.5,937.8,496.5z"/>
			<path class="st21" d="M943.2,496.5h-37.7c-4.5,0-8.2-3.7-8.2-8.2v-6.2c0-4.5,3.7-8.2,8.2-8.2h37.7c4.5,0,8.2,3.7,8.2,8.2v6.2
				C951.5,492.9,947.8,496.5,943.2,496.5z"/>
		</g>
		<path class="st21" d="M947.1,796.9h-45.4c-4.5,0-8.2-3.7-8.2-8.2V778c0-4.5,3.7-8.2,8.2-8.2h45.4c4.5,0,8.2,3.7,8.2,8.2v10.6
			C955.4,793.2,951.7,796.9,947.1,796.9z"/>
	</g>
	<g>
		<g>
			<path class="st21" d="M1059,496.5h-5.9h-14.9h-5.9c0,0-11,274.6,0,286.8h2.3h22.2h2.3C1070,771.1,1059,496.5,1059,496.5z"/>
			<path class="st21" d="M1064.4,496.5h-37.7c-4.5,0-8.2-3.7-8.2-8.2v-6.2c0-4.5,3.7-8.2,8.2-8.2h37.7c4.5,0,8.2,3.7,8.2,8.2v6.2
				C1072.6,492.9,1069,496.5,1064.4,496.5z"/>
		</g>
		<path class="st21" d="M1068.3,796.9h-45.4c-4.5,0-8.2-3.7-8.2-8.2V778c0-4.5,3.7-8.2,8.2-8.2h45.4c4.5,0,8.2,3.7,8.2,8.2v10.6
			C1076.5,793.2,1072.9,796.9,1068.3,796.9z"/>
	</g>
	<polygon class="st19" points="271.4,384.8 622.5,384.8 271.4,394.6 	"/>
	<polygon class="st19" points="33,384.8 271.4,384.8 33,394.6 	"/>
	<path class="st0" d="M1128.8,158.8H831.3c-1.1,0-1.9-0.9-1.9-1.9v-31.5c0-1.1,0.9-1.9,1.9-1.9h297.5c1.1,0,1.9,0.9,1.9,1.9v31.5
		C1130.7,158,1129.9,158.8,1128.8,158.8z"/>
	<g>
		<g>
			<path class="st14" d="M126,665.7h57.2c3.4,0,6.2-2.8,6.2-6.2V549.9c0-3.4-2.8-6.2-6.2-6.2H126c-3.4,0-6.2,2.8-6.2,6.2v109.6
				C119.8,662.9,122.6,665.7,126,665.7z"/>
		</g>
		<path class="st0" d="M141.1,659.3h41.6c3.6,0,6.6-3,6.6-6.6v-94c0-3.6-3-6.6-6.6-6.6h-41.6c-3.6,0-6.6,3-6.6,6.6v94
			C134.5,656.4,137.5,659.3,141.1,659.3z"/>
	</g>
	<g>
		<g>
			<path class="st14" d="M126,793.3h57.2c3.4,0,6.2-2.8,6.2-6.2V677.5c0-3.4-2.8-6.2-6.2-6.2H126c-3.4,0-6.2,2.8-6.2,6.2v109.6
				C119.8,790.5,122.6,793.3,126,793.3z"/>
		</g>
		<path class="st0" d="M141.1,786.9h41.6c3.6,0,6.6-3,6.6-6.6v-94c0-3.6-3-6.6-6.6-6.6h-41.6c-3.6,0-6.6,3-6.6,6.6v94
			C134.5,784,137.5,786.9,141.1,786.9z"/>
	</g>
	<g>
		<g>
			<path class="st14" d="M650.6,654.5h67c4,0,7.3-3.3,7.3-7.3V518.9c0-4-3.3-7.3-7.3-7.3h-67c-4,0-7.3,3.3-7.3,7.3v128.3
				C643.4,651.2,646.6,654.5,650.6,654.5z"/>
		</g>
		<path class="st0" d="M668.4,647h48.8c4.3,0,7.7-3.5,7.7-7.7V529.2c0-4.3-3.5-7.7-7.7-7.7h-48.8c-4.3,0-7.7,3.5-7.7,7.7v110.1
			C660.6,643.6,664.1,647,668.4,647z"/>
	</g>
	<g>
		<g>
			<path class="st14" d="M650.6,812.5h67c4,0,7.3-3.3,7.3-7.3V677c0-4-3.3-7.3-7.3-7.3h-67c-4,0-7.3,3.3-7.3,7.3v128.3
				C643.4,809.3,646.6,812.5,650.6,812.5z"/>
		</g>
		<path class="st0" d="M668.4,805.1h48.8c4.3,0,7.7-3.5,7.7-7.7V687.3c0-4.3-3.5-7.7-7.7-7.7h-48.8c-4.3,0-7.7,3.5-7.7,7.7v110.1
			C660.6,801.6,664.1,805.1,668.4,805.1z"/>
	</g>
	<g>
		<g>
			<path class="st14" d="M1305.8,654.5h-67c-4,0-7.3-3.3-7.3-7.3V518.9c0-4,3.3-7.3,7.3-7.3h67c4,0,7.3,3.3,7.3,7.3v128.3
				C1313.1,651.2,1309.8,654.5,1305.8,654.5z"/>
		</g>
		<path class="st0" d="M1288.1,647h-48.8c-4.3,0-7.7-3.5-7.7-7.7V529.2c0-4.3,3.5-7.7,7.7-7.7h48.8c4.3,0,7.7,3.5,7.7,7.7v110.1
			C1295.8,643.6,1292.4,647,1288.1,647z"/>
	</g>
	<g>
		<g>
			<path class="st14" d="M1305.8,812.5h-67c-4,0-7.3-3.3-7.3-7.3V677c0-4,3.3-7.3,7.3-7.3h67c4,0,7.3,3.3,7.3,7.3v128.3
				C1313.1,809.3,1309.8,812.5,1305.8,812.5z"/>
		</g>
		<path class="st0" d="M1288.1,805.1h-48.8c-4.3,0-7.7-3.5-7.7-7.7V687.3c0-4.3,3.5-7.7,7.7-7.7h48.8c4.3,0,7.7,3.5,7.7,7.7v110.1
			C1295.8,801.6,1292.4,805.1,1288.1,805.1z"/>
	</g>
	<polyline class="st19" points="609,509.3 271.4,522.1 271.4,509.3 	"/>
	<polyline class="st19" points="271.4,509.3 32.7,522.5 32.7,509.8 	"/>
	<polyline class="st19" points="271.4,854.5 771.9,854.6 271.4,866.7 	"/>
	<polyline class="st19" points="32.5,854 286.2,854.6 32.5,866.3 	"/>
	<g>
		<path class="st14" d="M521.1,992.9h-65.4c-1.4,0-2.5-1.1-2.5-2.5v-68.1c0-18.5,15-33.5,33.5-33.5h3.4c18.5,0,33.5,15,33.5,33.5
			v68.1C523.5,991.8,522.4,992.9,521.1,992.9z"/>
		<path class="st0" d="M518.1,992.2h-47.2c-1.3,0-2.4-1.1-2.4-2.4v-67.4c0-14.1,11.4-25.6,25.6-25.6h0.9c14.1,0,25.6,11.4,25.6,25.6
			v67.4C520.5,991.1,519.4,992.2,518.1,992.2z"/>
	</g>
	<g>
		<path class="st14" d="M600.2,992.9h-65.4c-1.4,0-2.5-1.1-2.5-2.5v-68.1c0-18.5,15-33.5,33.5-33.5h3.4c18.5,0,33.5,15,33.5,33.5
			v68.1C602.7,991.8,601.6,992.9,600.2,992.9z"/>
		<path class="st0" d="M597.4,992.2h-47.2c-1.3,0-2.4-1.1-2.4-2.4v-67.4c0-14.1,11.4-25.6,25.6-25.6h0.9c14.1,0,25.6,11.4,25.6,25.6
			v67.4C599.8,991.1,598.7,992.2,597.4,992.2z"/>
	</g>
	<g>
		<path class="st14" d="M678.4,992.9H613c-1.4,0-2.5-1.1-2.5-2.5v-68.1c0-18.5,15-33.5,33.5-33.5h3.4c18.5,0,33.5,15,33.5,33.5v68.1
			C680.8,991.8,679.7,992.9,678.4,992.9z"/>
		<path class="st0" d="M675.6,992.2h-47.2c-1.3,0-2.4-1.1-2.4-2.4v-67.4c0-14.1,11.4-25.6,25.6-25.6h0.9c14.1,0,25.6,11.4,25.6,25.6
			v67.4C678,991.1,676.9,992.2,675.6,992.2z"/>
	</g>
	<g>
		<path class="st14" d="M757.6,992.9h-65.4c-1.4,0-2.5-1.1-2.5-2.5v-68.1c0-18.5,15-33.5,33.5-33.5h3.4c18.5,0,33.5,15,33.5,33.5
			v68.1C760,991.8,758.9,992.9,757.6,992.9z"/>
		<path class="st0" d="M754.2,992.2H707c-1.3,0-2.4-1.1-2.4-2.4v-67.4c0-14.1,11.4-25.6,25.6-25.6h0.9c14.1,0,25.6,11.4,25.6,25.6
			v67.4C756.6,991.1,755.6,992.2,754.2,992.2z"/>
	</g>
	<g>
		<path class="st14" d="M1598.8,992.9h65.4c1.4,0,2.5-1.1,2.5-2.5v-68.1c0-18.5-15-33.5-33.5-33.5h-3.4c-18.5,0-33.5,15-33.5,33.5
			v68.1C1596.3,991.8,1597.5,992.9,1598.8,992.9z"/>
		<path class="st0" d="M1601.8,992.2h47.2c1.3,0,2.4-1.1,2.4-2.4v-67.4c0-14.1-11.4-25.6-25.6-25.6h-0.9
			c-14.1,0-25.6,11.4-25.6,25.6v67.4C1599.3,991.1,1600.4,992.2,1601.8,992.2z"/>
	</g>
	<g>
		<path class="st14" d="M1519.6,992.9h65.4c1.4,0,2.5-1.1,2.5-2.5v-68.1c0-18.5-15-33.5-33.5-33.5h-3.4c-18.5,0-33.5,15-33.5,33.5
			v68.1C1517.2,991.8,1518.3,992.9,1519.6,992.9z"/>
		<path class="st0" d="M1522.6,992.2h47.2c1.3,0,2.4-1.1,2.4-2.4v-67.4c0-14.1-11.4-25.6-25.6-25.6h-0.9
			c-14.1,0-25.6,11.4-25.6,25.6v67.4C1520.2,991.1,1521.2,992.2,1522.6,992.2z"/>
	</g>
	<g>
		<path class="st14" d="M1441.5,992.9h65.4c1.4,0,2.5-1.1,2.5-2.5v-68.1c0-18.5-15-33.5-33.5-33.5h-3.4c-18.5,0-33.5,15-33.5,33.5
			v68.1C1439.1,991.8,1440.2,992.9,1441.5,992.9z"/>
		<path class="st0" d="M1444.5,992.2h47.2c1.3,0,2.4-1.1,2.4-2.4v-67.4c0-14.1-11.4-25.6-25.6-25.6h-0.9
			c-14.1,0-25.6,11.4-25.6,25.6v67.4C1442.1,991.1,1443.1,992.2,1444.5,992.2z"/>
	</g>
	<g>
		<path class="st14" d="M1362.4,992.9h65.4c1.4,0,2.5-1.1,2.5-2.5v-68.1c0-18.5-15-33.5-33.5-33.5h-3.4c-18.5,0-33.5,15-33.5,33.5
			v68.1C1359.9,991.8,1361,992.9,1362.4,992.9z"/>
		<path class="st0" d="M1365.2,992.2h47.2c1.3,0,2.4-1.1,2.4-2.4v-67.4c0-14.1-11.4-25.6-25.6-25.6h-0.9
			c-14.1,0-25.6,11.4-25.6,25.6v67.4C1362.8,991.1,1363.9,992.2,1365.2,992.2z"/>
	</g>
	<g>
		<path class="st14" d="M1284.2,992.9h65.4c1.4,0,2.5-1.1,2.5-2.5v-68.1c0-18.5-15-33.5-33.5-33.5h-3.4c-18.5,0-33.5,15-33.5,33.5
			v68.1C1281.7,991.8,1282.8,992.9,1284.2,992.9z"/>
		<path class="st0" d="M1287,992.2h47.2c1.3,0,2.4-1.1,2.4-2.4v-67.4c0-14.1-11.4-25.6-25.6-25.6h-0.9c-14.1,0-25.6,11.4-25.6,25.6
			v67.4C1284.6,991.1,1285.7,992.2,1287,992.2z"/>
	</g>
	<g>
		<path class="st14" d="M1205,992.9h65.4c1.4,0,2.5-1.1,2.5-2.5v-68.1c0-18.5-15-33.5-33.5-33.5h-3.4c-18.5,0-33.5,15-33.5,33.5
			v68.1C1202.6,991.8,1203.7,992.9,1205,992.9z"/>
		<path class="st0" d="M1208.4,992.2h47.2c1.3,0,2.4-1.1,2.4-2.4v-67.4c0-14.1-11.4-25.6-25.6-25.6h-0.9
			c-14.1,0-25.6,11.4-25.6,25.6v67.4C1205.9,991.1,1207,992.2,1208.4,992.2z"/>
	</g>
	<g>
		<path class="st0" d="M333,552.8h-36c-3.2,0-5.7,2.7-5.7,6v85.7c0,3.3,2.6,6,5.7,6h36c3.2,0,5.7-2.7,5.7-6v-85.7
			C338.7,555.5,336.2,552.8,333,552.8z"/>
		<path class="st14" d="M343.1,540.1h-68.8c-1,0-1.9,0.9-1.9,2v5.7c0,1.1,0.8,2,1.9,2h4.3v97.7c0,3.1,2.4,5.7,5.4,5.7h49.4
			c3,0,5.4-2.5,5.4-5.7v-97.7h4.3c1,0,1.9-0.9,1.9-2v-5.7C345,541,344.1,540.1,343.1,540.1z M338.7,644.5c0,3.3-2.6,6-5.7,6h-36
			c-3.2,0-5.7-2.7-5.7-6v-85.7c0-3.3,2.6-6,5.7-6h36c3.2,0,5.7,2.7,5.7,6V644.5z"/>
	</g>
	<g>
		<path class="st0" d="M333,693.7h-36c-3.2,0-5.7,2.7-5.7,6v85.7c0,3.3,2.6,6,5.7,6h36c3.2,0,5.7-2.7,5.7-6v-85.7
			C338.7,696.4,336.2,693.7,333,693.7z"/>
		<path class="st14" d="M343.1,680.6h-68.8c-1,0-1.9,0.9-1.9,2v5.7c0,1.1,0.8,2,1.9,2h4.5c-0.1,0.4-0.2,0.9-0.2,1.3v99.8
			c0,3.1,2.4,5.7,5.4,5.7h49.4c3,0,5.4-2.5,5.4-5.7v-99.8c0-0.5-0.1-0.9-0.2-1.3h4.5c1,0,1.9-0.9,1.9-2v-5.7
			C345,681.5,344.1,680.6,343.1,680.6z M338.7,785.4c0,3.3-2.6,6-5.7,6h-36c-3.2,0-5.7-2.7-5.7-6v-85.7c0-3.3,2.6-6,5.7-6h36
			c3.2,0,5.7,2.7,5.7,6V785.4z"/>
	</g>
	<g>
		<path class="st0" d="M418.8,552.8h-36c-3.2,0-5.7,2.7-5.7,6v85.7c0,3.3,2.6,6,5.7,6h36c3.2,0,5.7-2.7,5.7-6v-85.7
			C424.5,555.5,421.9,552.8,418.8,552.8z"/>
		<path class="st14" d="M428.8,540.1H360c-1,0-1.9,0.9-1.9,2v5.7c0,1.1,0.8,2,1.9,2h4.3v97.7c0,3.1,2.4,5.7,5.4,5.7h49.4
			c3,0,5.4-2.5,5.4-5.7v-97.7h4.3c1,0,1.9-0.9,1.9-2v-5.7C430.7,541,429.9,540.1,428.8,540.1z M424.5,644.5c0,3.3-2.6,6-5.7,6h-36
			c-3.2,0-5.7-2.7-5.7-6v-85.7c0-3.3,2.6-6,5.7-6h36c3.2,0,5.7,2.7,5.7,6V644.5z"/>
	</g>
	<g>
		<path class="st0" d="M418.8,693.7h-36c-3.2,0-5.7,2.7-5.7,6v85.7c0,3.3,2.6,6,5.7,6h36c3.2,0,5.7-2.7,5.7-6v-85.7
			C424.5,696.4,421.9,693.7,418.8,693.7z"/>
		<path class="st14" d="M428.8,680.6H360c-1,0-1.9,0.9-1.9,2v5.7c0,1.1,0.8,2,1.9,2h4.5c-0.1,0.4-0.2,0.9-0.2,1.3v99.8
			c0,3.1,2.4,5.7,5.4,5.7h49.4c3,0,5.4-2.5,5.4-5.7v-99.8c0-0.5-0.1-0.9-0.2-1.3h4.5c1,0,1.9-0.9,1.9-2v-5.7
			C430.7,681.5,429.9,680.6,428.8,680.6z M424.5,785.4c0,3.3-2.6,6-5.7,6h-36c-3.2,0-5.7-2.7-5.7-6v-85.7c0-3.3,2.6-6,5.7-6h36
			c3.2,0,5.7,2.7,5.7,6V785.4z"/>
	</g>
	<g>
		<path class="st0" d="M504.5,552.8h-36c-3.2,0-5.7,2.7-5.7,6v85.7c0,3.3,2.6,6,5.7,6h36c3.2,0,5.7-2.7,5.7-6v-85.7
			C510.2,555.5,507.7,552.8,504.5,552.8z"/>
		<path class="st14" d="M514.6,540.1h-68.8c-1,0-1.9,0.9-1.9,2v5.7c0,1.1,0.8,2,1.9,2h4.3v97.7c0,3.1,2.4,5.7,5.4,5.7h49.4
			c3,0,5.4-2.5,5.4-5.7v-97.7h4.3c1,0,1.9-0.9,1.9-2v-5.7C516.5,541,515.6,540.1,514.6,540.1z M510.2,644.5c0,3.3-2.6,6-5.7,6h-36
			c-3.2,0-5.7-2.7-5.7-6v-85.7c0-3.3,2.6-6,5.7-6h36c3.2,0,5.7,2.7,5.7,6V644.5z"/>
	</g>
	<g>
		<path class="st0" d="M504.5,693.7h-36c-3.2,0-5.7,2.7-5.7,6v85.7c0,3.3,2.6,6,5.7,6h36c3.2,0,5.7-2.7,5.7-6v-85.7
			C510.2,696.4,507.7,693.7,504.5,693.7z"/>
		<path class="st14" d="M514.6,680.6h-68.8c-1,0-1.9,0.9-1.9,2v5.7c0,1.1,0.8,2,1.9,2h4.5c-0.1,0.4-0.2,0.9-0.2,1.3v99.8
			c0,3.1,2.4,5.7,5.4,5.7h49.4c3,0,5.4-2.5,5.4-5.7v-99.8c0-0.5-0.1-0.9-0.2-1.3h4.5c1,0,1.9-0.9,1.9-2v-5.7
			C516.5,681.5,515.6,680.6,514.6,680.6z M510.2,785.4c0,3.3-2.6,6-5.7,6h-36c-3.2,0-5.7-2.7-5.7-6v-85.7c0-3.3,2.6-6,5.7-6h36
			c3.2,0,5.7,2.7,5.7,6V785.4z"/>
	</g>
	<g>
		<path class="st0" d="M590.2,552.8h-36c-3.2,0-5.7,2.7-5.7,6v85.7c0,3.3,2.6,6,5.7,6h36c3.2,0,5.7-2.7,5.7-6v-85.7
			C596,555.5,593.4,552.8,590.2,552.8z"/>
		<path class="st14" d="M600.3,540.1h-68.8c-1,0-1.9,0.9-1.9,2v5.7c0,1.1,0.8,2,1.9,2h4.3v97.7c0,3.1,2.4,5.7,5.4,5.7h49.4
			c3,0,5.4-2.5,5.4-5.7v-97.7h4.3c1,0,1.9-0.9,1.9-2v-5.7C602.2,541,601.4,540.1,600.3,540.1z M596,644.5c0,3.3-2.6,6-5.7,6h-36
			c-3.2,0-5.7-2.7-5.7-6v-85.7c0-3.3,2.6-6,5.7-6h36c3.2,0,5.7,2.7,5.7,6V644.5z"/>
	</g>
	<g>
		<path class="st0" d="M590.2,552.8h-36c-3.2,0-5.7,2.7-5.7,6v85.7c0,3.3,2.6,6,5.7,6h36c3.2,0,5.7-2.7,5.7-6v-85.7
			C596,555.5,593.4,552.8,590.2,552.8z"/>
		<path class="st14" d="M600.3,540.1h-68.8c-1,0-1.9,0.9-1.9,2v5.7c0,1.1,0.8,2,1.9,2h4.3v97.7c0,3.1,2.4,5.7,5.4,5.7h49.4
			c3,0,5.4-2.5,5.4-5.7v-97.7h4.3c1,0,1.9-0.9,1.9-2v-5.7C602.2,541,601.4,540.1,600.3,540.1z M596,644.5c0,3.3-2.6,6-5.7,6h-36
			c-3.2,0-5.7-2.7-5.7-6v-85.7c0-3.3,2.6-6,5.7-6h36c3.2,0,5.7,2.7,5.7,6V644.5z"/>
	</g>
	<g>
		<path class="st0" d="M590.2,693.7h-36c-3.2,0-5.7,2.7-5.7,6v85.7c0,3.3,2.6,6,5.7,6h36c3.2,0,5.7-2.7,5.7-6v-85.7
			C596,696.4,593.4,693.7,590.2,693.7z"/>
		<path class="st14" d="M600.3,680.6h-68.8c-1,0-1.9,0.9-1.9,2v5.7c0,1.1,0.8,2,1.9,2h4.5c-0.1,0.4-0.2,0.9-0.2,1.3v99.8
			c0,3.1,2.4,5.7,5.4,5.7h49.4c3,0,5.4-2.5,5.4-5.7v-99.8c0-0.5-0.1-0.9-0.2-1.3h4.5c1,0,1.9-0.9,1.9-2v-5.7
			C602.2,681.5,601.4,680.6,600.3,680.6z M596,785.4c0,3.3-2.6,6-5.7,6h-36c-3.2,0-5.7-2.7-5.7-6v-85.7c0-3.3,2.6-6,5.7-6h36
			c3.2,0,5.7,2.7,5.7,6V785.4z"/>
	</g>
	<g>
		<path class="st0" d="M1623.4,552.7h36c3.2,0,5.7,2.7,5.7,6v85.7c0,3.3-2.6,6-5.7,6h-36c-3.2,0-5.7-2.7-5.7-6v-85.7
			C1617.7,555.4,1620.2,552.7,1623.4,552.7z"/>
		<path class="st14" d="M1611.4,541.9v5.7c0,1.1,0.8,2,1.9,2h4.3v97.7c0,3.1,2.4,5.7,5.4,5.7h49.4c3,0,5.4-2.5,5.4-5.7v-97.7h4.3
			c1,0,1.9-0.9,1.9-2v-5.7c0-1.1-0.8-2-1.9-2h-68.8C1612.3,539.9,1611.4,540.8,1611.4,541.9z M1617.7,558.7c0-3.3,2.6-6,5.7-6h36
			c3.2,0,5.7,2.7,5.7,6v85.7c0,3.3-2.6,6-5.7,6h-36c-3.2,0-5.7-2.7-5.7-6V558.7z"/>
	</g>
	<g>
		<path class="st0" d="M1623.4,693.6h36c3.2,0,5.7,2.7,5.7,6v85.7c0,3.3-2.6,6-5.7,6h-36c-3.2,0-5.7-2.7-5.7-6v-85.7
			C1617.7,696.3,1620.2,693.6,1623.4,693.6z"/>
		<path class="st14" d="M1611.4,682.5v5.7c0,1.1,0.8,2,1.9,2h4.5c-0.1,0.4-0.2,0.9-0.2,1.3v99.8c0,3.1,2.4,5.7,5.4,5.7h49.4
			c3,0,5.4-2.5,5.4-5.7v-99.8c0-0.5-0.1-0.9-0.2-1.3h4.5c1,0,1.9-0.9,1.9-2v-5.7c0-1.1-0.8-2-1.9-2h-68.8
			C1612.2,680.5,1611.4,681.4,1611.4,682.5z M1617.7,699.6c0-3.3,2.6-6,5.7-6h36c3.2,0,5.7,2.7,5.7,6v85.7c0,3.3-2.6,6-5.7,6h-36
			c-3.2,0-5.7-2.7-5.7-6V699.6z"/>
	</g>
	<g>
		<path class="st0" d="M1537.6,552.7h36c3.2,0,5.7,2.7,5.7,6v85.7c0,3.3-2.6,6-5.7,6h-36c-3.2,0-5.7-2.7-5.7-6v-85.7
			C1531.9,555.4,1534.5,552.7,1537.6,552.7z"/>
		<path class="st14" d="M1525.7,541.9v5.7c0,1.1,0.8,2,1.9,2h4.3v97.7c0,3.1,2.4,5.7,5.4,5.7h49.4c3,0,5.4-2.5,5.4-5.7v-97.7h4.3
			c1,0,1.9-0.9,1.9-2v-5.7c0-1.1-0.8-2-1.9-2h-68.8C1526.5,539.9,1525.7,540.8,1525.7,541.9z M1531.9,558.7c0-3.3,2.6-6,5.7-6h36
			c3.2,0,5.7,2.7,5.7,6v85.7c0,3.3-2.6,6-5.7,6h-36c-3.2,0-5.7-2.7-5.7-6V558.7z"/>
	</g>
	<g>
		<path class="st0" d="M1537.6,693.6h36c3.2,0,5.7,2.7,5.7,6v85.7c0,3.3-2.6,6-5.7,6h-36c-3.2,0-5.7-2.7-5.7-6v-85.7
			C1531.9,696.3,1534.5,693.6,1537.6,693.6z"/>
		<path class="st14" d="M1525.7,682.5v5.7c0,1.1,0.8,2,1.9,2h4.5c-0.1,0.4-0.2,0.9-0.2,1.3v99.8c0,3.1,2.4,5.7,5.4,5.7h49.4
			c3,0,5.4-2.5,5.4-5.7v-99.8c0-0.5-0.1-0.9-0.2-1.3h4.5c1,0,1.9-0.9,1.9-2v-5.7c0-1.1-0.8-2-1.9-2h-68.8
			C1526.5,680.5,1525.7,681.4,1525.7,682.5z M1531.9,699.6c0-3.3,2.6-6,5.7-6h36c3.2,0,5.7,2.7,5.7,6v85.7c0,3.3-2.6,6-5.7,6h-36
			c-3.2,0-5.7-2.7-5.7-6V699.6z"/>
	</g>
	<g>
		<path class="st0" d="M1451.9,552.7h36c3.2,0,5.7,2.7,5.7,6v85.7c0,3.3-2.6,6-5.7,6h-36c-3.2,0-5.7-2.7-5.7-6v-85.7
			C1446.2,555.4,1448.7,552.7,1451.9,552.7z"/>
		<path class="st14" d="M1439.9,541.9v5.7c0,1.1,0.8,2,1.9,2h4.3v97.7c0,3.1,2.4,5.7,5.4,5.7h49.4c3,0,5.4-2.5,5.4-5.7v-97.7h4.3
			c1,0,1.9-0.9,1.9-2v-5.7c0-1.1-0.8-2-1.9-2h-68.8C1440.8,539.9,1439.9,540.8,1439.9,541.9z M1446.2,558.7c0-3.3,2.6-6,5.7-6h36
			c3.2,0,5.7,2.7,5.7,6v85.7c0,3.3-2.6,6-5.7,6h-36c-3.2,0-5.7-2.7-5.7-6V558.7z"/>
	</g>
	<g>
		<path class="st0" d="M1451.9,693.6h36c3.2,0,5.7,2.7,5.7,6v85.7c0,3.3-2.6,6-5.7,6h-36c-3.2,0-5.7-2.7-5.7-6v-85.7
			C1446.2,696.3,1448.7,693.6,1451.9,693.6z"/>
		<path class="st14" d="M1439.9,682.5v5.7c0,1.1,0.8,2,1.9,2h4.5c-0.1,0.4-0.2,0.9-0.2,1.3v99.8c0,3.1,2.4,5.7,5.4,5.7h49.4
			c3,0,5.4-2.5,5.4-5.7v-99.8c0-0.5-0.1-0.9-0.2-1.3h4.5c1,0,1.9-0.9,1.9-2v-5.7c0-1.1-0.8-2-1.9-2h-68.8
			C1440.8,680.5,1439.9,681.4,1439.9,682.5z M1446.2,699.6c0-3.3,2.6-6,5.7-6h36c3.2,0,5.7,2.7,5.7,6v85.7c0,3.3-2.6,6-5.7,6h-36
			c-3.2,0-5.7-2.7-5.7-6V699.6z"/>
	</g>
	<g>
		<path class="st0" d="M1366.1,552.7h36c3.2,0,5.7,2.7,5.7,6v85.7c0,3.3-2.6,6-5.7,6h-36c-3.2,0-5.7-2.7-5.7-6v-85.7
			C1360.4,555.4,1363,552.7,1366.1,552.7z"/>
		<path class="st14" d="M1354.2,541.9v5.7c0,1.1,0.8,2,1.9,2h4.3v97.7c0,3.1,2.4,5.7,5.4,5.7h49.4c3,0,5.4-2.5,5.4-5.7v-97.7h4.3
			c1,0,1.9-0.9,1.9-2v-5.7c0-1.1-0.8-2-1.9-2h-68.8C1355,539.9,1354.2,540.8,1354.2,541.9z M1360.4,558.7c0-3.3,2.6-6,5.7-6h36
			c3.2,0,5.7,2.7,5.7,6v85.7c0,3.3-2.6,6-5.7,6h-36c-3.2,0-5.7-2.7-5.7-6V558.7z"/>
	</g>
	<g>
		<path class="st0" d="M1366.1,693.6h36c3.2,0,5.7,2.7,5.7,6v85.7c0,3.3-2.6,6-5.7,6h-36c-3.2,0-5.7-2.7-5.7-6v-85.7
			C1360.4,696.3,1363,693.6,1366.1,693.6z"/>
		<path class="st14" d="M1354.2,682.5v5.7c0,1.1,0.8,2,1.9,2h4.5c-0.1,0.4-0.2,0.9-0.2,1.3v99.8c0,3.1,2.4,5.7,5.4,5.7h49.4
			c3,0,5.4-2.5,5.4-5.7v-99.8c0-0.5-0.1-0.9-0.2-1.3h4.5c1,0,1.9-0.9,1.9-2v-5.7c0-1.1-0.8-2-1.9-2h-68.8
			C1355,680.5,1354.2,681.4,1354.2,682.5z M1360.4,699.6c0-3.3,2.6-6,5.7-6h36c3.2,0,5.7,2.7,5.7,6v85.7c0,3.3-2.6,6-5.7,6h-36
			c-3.2,0-5.7-2.7-5.7-6V699.6z"/>
	</g>
	<path class="st14" d="M68.2,445.7h168.5c0.4,0,0.8,0.4,0.8,1v2.7c0,0.6-0.4,1-0.8,1H68.2c-0.4,0-0.8-0.4-0.8-1v-2.7
		C67.4,446.1,67.8,445.7,68.2,445.7z"/>
	<line class="st19" x1="1930.7" y1="872.4" x2="1930.7" y2="853.6"/>
	<g>
		<g class="st20">
			<g>
				<path class="st14" d="M1859.3,531.4h5.9h14.9h5.9c0,0,11,274.6,0,286.8h-2.3h-22.2h-2.3C1848.4,806,1859.3,531.4,1859.3,531.4z"
					/>
				<path class="st14" d="M1853.9,531.4h37.7c4.5,0,8.2-3.7,8.2-8.2V517c0-4.5-3.7-8.2-8.2-8.2h-37.7c-4.5,0-8.2,3.7-8.2,8.2v6.2
					C1845.7,527.7,1849.4,531.4,1853.9,531.4z"/>
			</g>
			<path class="st14" d="M1850,831.7h45.4c4.5,0,8.2-3.7,8.2-8.2v-10.6c0-4.5-3.7-8.2-8.2-8.2H1850c-4.5,0-8.2,3.7-8.2,8.2v10.6
				C1841.8,828.1,1845.5,831.7,1850,831.7z"/>
		</g>
		<g>
			<g>
				<path class="st21" d="M1854.5,531.4h5.9h14.9h5.9c0,0,11,274.6,0,286.8h-2.3h-22.2h-2.3C1843.5,806,1854.5,531.4,1854.5,531.4z"
					/>
				<path class="st21" d="M1849.1,531.4h37.7c4.5,0,8.2-3.7,8.2-8.2V517c0-4.5-3.7-8.2-8.2-8.2h-37.7c-4.5,0-8.2,3.7-8.2,8.2v6.2
					C1840.8,527.7,1844.5,531.4,1849.1,531.4z"/>
			</g>
			<path class="st21" d="M1845.2,831.7h45.4c4.5,0,8.2-3.7,8.2-8.2v-10.6c0-4.5-3.7-8.2-8.2-8.2h-45.4c-4.5,0-8.2,3.7-8.2,8.2v10.6
				C1837,828,1840.6,831.7,1845.2,831.7z"/>
		</g>
	</g>
	<g>
		<g class="st20">
			<g>
				<path class="st14" d="M1736.5,531.4h5.9h14.9h5.9c0,0,11,274.6,0,286.8h-2.3h-22.2h-2.3C1725.6,806,1736.5,531.4,1736.5,531.4z"
					/>
				<path class="st14" d="M1731.1,531.4h37.7c4.5,0,8.2-3.7,8.2-8.2V517c0-4.5-3.7-8.2-8.2-8.2h-37.7c-4.5,0-8.2,3.7-8.2,8.2v6.2
					C1722.9,527.7,1726.6,531.4,1731.1,531.4z"/>
			</g>
			<path class="st14" d="M1727.2,831.7h45.4c4.5,0,8.2-3.7,8.2-8.2v-10.6c0-4.5-3.7-8.2-8.2-8.2h-45.4c-4.5,0-8.2,3.7-8.2,8.2v10.6
				C1719,828.1,1722.7,831.7,1727.2,831.7z"/>
		</g>
		<g>
			<g>
				<path class="st21" d="M1732.9,530.4h5.9h14.9h5.9c0,0,11,274.6,0,286.8h-2.3h-22.2h-2.3C1721.9,805,1732.9,530.4,1732.9,530.4z"
					/>
				<path class="st21" d="M1727.5,530.4h37.7c4.5,0,8.2-3.7,8.2-8.2V516c0-4.5-3.7-8.2-8.2-8.2h-37.7c-4.5,0-8.2,3.7-8.2,8.2v6.2
					C1719.3,526.7,1722.9,530.4,1727.5,530.4z"/>
			</g>
			<path class="st21" d="M1723.6,830.7h45.4c4.5,0,8.2-3.7,8.2-8.2v-10.6c0-4.5-3.7-8.2-8.2-8.2h-45.4c-4.5,0-8.2,3.7-8.2,8.2v10.6
				C1715.4,827,1719,830.7,1723.6,830.7z"/>
		</g>
	</g>
	<path class="st14" d="M1750.8,1043.3h106.1c2.2,0,4-1.8,4-4V927.4c0-30.2-24.5-54.6-54.6-54.6h-4.9c-30.2,0-54.6,24.5-54.6,54.6
		v111.9C1746.8,1041.5,1748.5,1043.3,1750.8,1043.3z"/>
	<path class="st0" d="M1755.9,1042.2h81.8c2.2,0,4.1-1.8,4.1-4.1V928.8c0-23.8-19.3-43-43-43h-3.9c-23.8,0-43,19.3-43,43v109.3
		C1751.9,1040.4,1753.7,1042.2,1755.9,1042.2z"/>
	<g>
		<g>
			<path class="st14" d="M1836.8,665.7h-57.2c-3.4,0-6.2-2.8-6.2-6.2V549.9c0-3.4,2.8-6.2,6.2-6.2h57.2c3.4,0,6.2,2.8,6.2,6.2v109.6
				C1843,662.9,1840.2,665.7,1836.8,665.7z"/>
		</g>
		<path class="st0" d="M1821.6,659.3H1780c-3.7,0-6.6-3-6.6-6.6v-94c0-3.6,3-6.6,6.6-6.6h41.6c3.6,0,6.6,3,6.6,6.6v94
			C1828.2,656.4,1825.3,659.3,1821.6,659.3z"/>
	</g>
	<g>
		<g>
			<path class="st14" d="M1836.8,793.3h-57.2c-3.4,0-6.2-2.8-6.2-6.2V677.5c0-3.4,2.8-6.2,6.2-6.2h57.2c3.4,0,6.2,2.8,6.2,6.2v109.6
				C1843,790.5,1840.2,793.3,1836.8,793.3z"/>
		</g>
		<path class="st0" d="M1821.6,786.9H1780c-3.7,0-6.6-3-6.6-6.6v-94c0-3.6,3-6.6,6.6-6.6h41.6c3.6,0,6.6,3,6.6,6.6v94
			C1828.2,784,1825.3,786.9,1821.6,786.9z"/>
	</g>
	<path class="st14" d="M592.1,442.7v22.7c0,0.8,0.6,1.4,1.4,1.4h12.5c5.6,0,11,2.5,14.7,7l0,0c0.3,0.3,0.6,0.5,1,0.5h157.2
		c0.8,0,1.4-0.6,1.4-1.4v-30.1c0-0.8-0.6-1.4-1.4-1.4H593.4C592.7,441.3,592.1,441.9,592.1,442.7z"/>
	<path class="st14" d="M1894.6,445.7h-168.5c-0.4,0-0.8,0.4-0.8,1v2.7c0,0.6,0.4,1,0.8,1h168.5c0.4,0,0.8-0.4,0.8-1v-2.7
		C1895.4,446.1,1895,445.7,1894.6,445.7z"/>
	<path class="st14" d="M1371.2,442.7v22.7c0,0.8-0.6,1.4-1.4,1.4h-12.5c-5.6,0-11,2.5-14.7,7l0,0c-0.3,0.3-0.6,0.5-1,0.5h-157.2
		c-0.8,0-1.4-0.6-1.4-1.4v-30.1c0-0.8,0.6-1.4,1.4-1.4h185.3C1370.6,441.3,1371.2,441.9,1371.2,442.7z"/>
	<g>
		<path class="st14" d="M355.2,461.2h-77.8c-3.3,0-5.9-2.7-5.9-5.9v-51.9c0-3.3,2.7-5.9,5.9-5.9h77.8c3.3,0,5.9,2.7,5.9,5.9v51.9
			C361.1,458.5,358.5,461.2,355.2,461.2z"/>
		<path class="st0" d="M349.9,457.4h-26.5c-1.9,0-3.4-1.5-3.4-3.4v-48.8c0-1.9,1.5-3.4,3.4-3.4h26.5c1.9,0,3.4,1.5,3.4,3.4V454
			C353.3,455.9,351.8,457.4,349.9,457.4z"/>
		<path class="st0" d="M309.4,457.4h-26.7c-1.9,0-3.4-1.5-3.4-3.4v-48.8c0-1.9,1.5-3.4,3.4-3.4h26.7c1.9,0,3.4,1.5,3.4,3.4V454
			C312.7,455.9,311.2,457.4,309.4,457.4z"/>
	</g>
	<g>
		<path class="st14" d="M467,461.2h-77.8c-3.3,0-5.9-2.7-5.9-5.9v-51.9c0-3.3,2.7-5.9,5.9-5.9H467c3.3,0,5.9,2.7,5.9,5.9v51.9
			C472.9,458.5,470.3,461.2,467,461.2z"/>
		<path class="st0" d="M461.7,457.4h-26.5c-1.9,0-3.4-1.5-3.4-3.4v-48.8c0-1.9,1.5-3.4,3.4-3.4h26.5c1.9,0,3.4,1.5,3.4,3.4V454
			C465.1,455.9,463.6,457.4,461.7,457.4z"/>
		<path class="st0" d="M421.2,457.4h-26.7c-1.9,0-3.4-1.5-3.4-3.4v-48.8c0-1.9,1.5-3.4,3.4-3.4h26.7c1.9,0,3.4,1.5,3.4,3.4V454
			C424.5,455.9,423,457.4,421.2,457.4z"/>
	</g>
	<g>
		<path class="st14" d="M578.8,461.2H501c-3.3,0-5.9-2.7-5.9-5.9v-51.9c0-3.3,2.7-5.9,5.9-5.9h77.8c3.3,0,5.9,2.7,5.9,5.9v51.9
			C584.8,458.5,582.1,461.2,578.8,461.2z"/>
		<path class="st0" d="M573.5,457.4h-26.5c-1.9,0-3.4-1.5-3.4-3.4v-48.8c0-1.9,1.5-3.4,3.4-3.4h26.5c1.9,0,3.4,1.5,3.4,3.4V454
			C576.9,455.9,575.4,457.4,573.5,457.4z"/>
		<path class="st0" d="M533,457.4h-26.7c-1.9,0-3.4-1.5-3.4-3.4v-48.8c0-1.9,1.5-3.4,3.4-3.4H533c1.9,0,3.4,1.5,3.4,3.4V454
			C536.4,455.9,534.9,457.4,533,457.4z"/>
	</g>
	<g>
		<path class="st14" d="M1461.9,461.2H1384c-3.3,0-5.9-2.7-5.9-5.9v-51.9c0-3.3,2.7-5.9,5.9-5.9h77.8c3.3,0,5.9,2.7,5.9,5.9v51.9
			C1467.8,458.5,1465.1,461.2,1461.9,461.2z"/>
		<path class="st0" d="M1456.6,457.4h-26.5c-1.9,0-3.4-1.5-3.4-3.4v-48.8c0-1.9,1.5-3.4,3.4-3.4h26.5c1.9,0,3.4,1.5,3.4,3.4V454
			C1459.9,455.9,1458.4,457.4,1456.6,457.4z"/>
		<path class="st0" d="M1416,457.4h-26.7c-1.9,0-3.4-1.5-3.4-3.4v-48.8c0-1.9,1.5-3.4,3.4-3.4h26.7c1.9,0,3.4,1.5,3.4,3.4V454
			C1419.4,455.9,1417.9,457.4,1416,457.4z"/>
	</g>
	<g>
		<path class="st14" d="M1573.7,461.2h-77.8c-3.3,0-5.9-2.7-5.9-5.9v-51.9c0-3.3,2.7-5.9,5.9-5.9h77.8c3.3,0,5.9,2.7,5.9,5.9v51.9
			C1579.6,458.5,1577,461.2,1573.7,461.2z"/>
		<path class="st0" d="M1568.4,457.4h-26.5c-1.9,0-3.4-1.5-3.4-3.4v-48.8c0-1.9,1.5-3.4,3.4-3.4h26.5c1.9,0,3.4,1.5,3.4,3.4V454
			C1571.8,455.9,1570.2,457.4,1568.4,457.4z"/>
		<path class="st0" d="M1527.8,457.4h-26.7c-1.9,0-3.4-1.5-3.4-3.4v-48.8c0-1.9,1.5-3.4,3.4-3.4h26.7c1.9,0,3.4,1.5,3.4,3.4V454
			C1531.2,455.9,1529.7,457.4,1527.8,457.4z"/>
	</g>
	<g>
		<path class="st14" d="M1685.5,461.2h-77.8c-3.3,0-5.9-2.7-5.9-5.9v-51.9c0-3.3,2.7-5.9,5.9-5.9h77.8c3.3,0,5.9,2.7,5.9,5.9v51.9
			C1691.4,458.5,1688.8,461.2,1685.5,461.2z"/>
		<path class="st0" d="M1680.2,457.4h-26.5c-1.9,0-3.4-1.5-3.4-3.4v-48.8c0-1.9,1.5-3.4,3.4-3.4h26.5c1.9,0,3.4,1.5,3.4,3.4V454
			C1683.6,455.9,1682.1,457.4,1680.2,457.4z"/>
		<path class="st0" d="M1639.6,457.4H1613c-1.9,0-3.4-1.5-3.4-3.4v-48.8c0-1.9,1.5-3.4,3.4-3.4h26.7c1.9,0,3.4,1.5,3.4,3.4V454
			C1643,455.9,1641.5,457.4,1639.6,457.4z"/>
	</g>
	<g>
		<path class="st0" d="M884.9,529.5h-30.1c-2.8,0-5,2.2-5,5v73.6c0,2.8,2.2,5,5,5h30.1c2.8,0,5-2.2,5-5v-73.6
			C889.8,531.7,887.6,529.5,884.9,529.5z"/>
		<path class="st14" d="M894.8,516.1h-57c-0.1,0-1,0.9-1,2v6.8c0,1.1,0.9,2,2,2h3.1v84c0,2.6,2.1,4.7,4.7,4.7H888
			c2.6,0,4.7-2.1,4.7-4.7v-84h3.1c1.1,0,2-0.9,2-2v-6.8C897.8,517,896.9,516.1,894.8,516.1z M889.8,608.1c0,2.8-2.2,5-5,5h-30.1
			c-2.8,0-5-2.2-5-5v-73.6c0-2.8,2.2-5,5-5h30.1c2.8,0,5,2.2,5,5V608.1z"/>
	</g>
	<g>
		<path class="st0" d="M884.9,651.6h-30.1c-2.8,0-5,2.2-5,5v73.6c0,2.8,2.2,5,5,5h30.1c2.8,0,5-2.2,5-5v-73.6
			C889.8,653.9,887.6,651.6,884.9,651.6z"/>
		<path class="st14" d="M894.8,638.3h-57c-0.1,0-1,0.9-1,2v6.8c0,1.1,0.9,2,2,2h3.1v84c0,2.6,2.1,4.7,4.7,4.7H888
			c2.6,0,4.7-2.1,4.7-4.7v-84h3.1c1.1,0,2-0.9,2-2v-6.8C897.8,639.2,896.9,638.3,894.8,638.3z M889.8,730.2c0,2.8-2.2,5-5,5h-30.1
			c-2.8,0-5-2.2-5-5v-73.6c0-2.8,2.2-5,5-5h30.1c2.8,0,5,2.2,5,5V730.2z"/>
	</g>
	<g>
		<path class="st0" d="M1083.8,529.5h30.1c2.8,0,5,2.2,5,5v73.6c0,2.8-2.2,5-5,5h-30.1c-2.8,0-5-2.2-5-5v-73.6
			C1078.8,531.7,1081,529.5,1083.8,529.5z"/>
		<path class="st14" d="M1070.8,518.1v6.8c0,1.1,0.9,2,2,2h3.1v84c0,2.6,2.1,4.7,4.7,4.7h41.4c2.6,0,4.7-2.1,4.7-4.7v-84h3.1
			c1.1,0,2-0.9,2-2v-6.8c0-1.1-0.9-2-1-2h-57C1071.7,516.1,1070.8,517,1070.8,518.1z M1078.8,534.5c0-2.8,2.2-5,5-5h30.1
			c2.8,0,5,2.2,5,5v73.6c0,2.8-2.2,5-5,5h-30.1c-2.8,0-5-2.2-5-5V534.5z"/>
	</g>
	<g>
		<path class="st0" d="M1083.8,651.6h30.1c2.8,0,5,2.2,5,5v73.6c0,2.8-2.2,5-5,5h-30.1c-2.8,0-5-2.2-5-5v-73.6
			C1078.8,653.9,1081,651.6,1083.8,651.6z"/>
		<path class="st14" d="M1070.8,640.3v6.8c0,1.1,0.9,2,2,2h3.1v84c0,2.6,2.1,4.7,4.7,4.7h41.4c2.6,0,4.7-2.1,4.7-4.7v-84h3.1
			c1.1,0,2-0.9,2-2v-6.8c0-1.1-0.9-2-1-2h-57C1071.7,638.3,1070.8,639.2,1070.8,640.3z M1078.8,656.6c0-2.8,2.2-5,5-5h30.1
			c2.8,0,5,2.2,5,5v73.6c0,2.8-2.2,5-5,5h-30.1c-2.8,0-5-2.2-5-5V656.6z"/>
	</g>
	<g>
		<g>
			<path class="st14" d="M1021.9,516.1h-77.2c-0.1,0-1.4,0.9-1.4,2v6.8c0,1.1,1.2,2,2.7,2h4.2v84c0,2.6,2.8,4.7,6.3,4.7h56.1
				c3.5,0,6.3-2.1,6.3-4.7v-84h4.2c1.5,0,2.7-0.9,2.7-2v-6.8C1026,517,1024.8,516.1,1021.9,516.1z"/>
		</g>
		<path class="st0" d="M978.9,529.5h-21.2c-1.9,0-3.5,2.2-3.5,5v73.6c0,2.8,1.6,5,3.5,5h21.2c1.9,0,3.5-2.2,3.5-5v-73.6
			C982.4,531.7,980.9,529.5,978.9,529.5z"/>
		<path class="st0" d="M1011.7,529.5h-22.1c-2,0-3.7,2.2-3.7,5v73.6c0,2.8,1.6,5,3.7,5h22.1c2,0,3.7-2.2,3.7-5v-73.6
			C1015.3,531.7,1013.7,529.5,1011.7,529.5z"/>
	</g>
	<g>
		<g>
			<path class="st14" d="M1021.9,638.3h-77.2c-0.1,0-1.4,0.9-1.4,2v6.8c0,1.1,1.2,2,2.7,2h4.2v84c0,2.6,2.8,4.7,6.3,4.7h56.1
				c3.5,0,6.3-2.1,6.3-4.7v-84h4.2c1.5,0,2.7-0.9,2.7-2v-6.8C1026,639.2,1024.8,638.3,1021.9,638.3z"/>
		</g>
		<path class="st0" d="M978.9,651.6h-21.2c-1.9,0-3.5,2.2-3.5,5v73.6c0,2.8,1.6,5,3.5,5h21.2c1.9,0,3.5-2.2,3.5-5v-73.6
			C982.4,653.9,980.9,651.6,978.9,651.6z"/>
		<path class="st0" d="M1011.7,651.6h-22.1c-2,0-3.7,2.2-3.7,5v73.6c0,2.8,1.6,5,3.7,5h22.1c2,0,3.7-2.2,3.7-5v-73.6
			C1015.3,653.9,1013.7,651.6,1011.7,651.6z"/>
	</g>
	<rect x="889.5" y="240.5" class="st3" width="176.4" height="3.8"/>
	<rect x="888.1" y="255" class="st3" width="176.4" height="3.8"/>
	<path class="st3" d="M897,271H750.1c-1,0-1.8-0.8-1.8-1.8v-26.9c0-1,0.8-1.8,1.8-1.8H897c1,0,1.8,0.8,1.8,1.8v26.9
		C898.8,270.2,898,271,897,271z"/>
	<path class="st3" d="M1207,271H1060c-1,0-1.8-0.8-1.8-1.8v-26.9c0-1,0.8-1.8,1.8-1.8H1207c1,0,1.8,0.8,1.8,1.8v26.9
		C1208.8,270.2,1208,271,1207,271z"/>
	<rect x="888.1" y="267.3" class="st3" width="176.4" height="3.8"/>
	<g>
		<path class="st3" d="M926,269.1h-1.6c-0.5,0-1-0.4-1-1v-25.8c0-0.5,0.4-1,1-1h1.6c0.5,0,1,0.4,1,1v25.8
			C926.9,268.7,926.5,269.1,926,269.1z"/>
		<path class="st3" d="M911.9,269.1h-1.6c-0.5,0-1-0.4-1-1v-25.8c0-0.5,0.4-1,1-1h1.6c0.5,0,1,0.4,1,1v25.8
			C912.9,268.7,912.5,269.1,911.9,269.1z"/>
		<path class="st3" d="M897.9,269.1h-1.6c-0.5,0-1-0.4-1-1v-25.8c0-0.5,0.4-1,1-1h1.6c0.5,0,1,0.4,1,1v25.8
			C898.8,268.7,898.4,269.1,897.9,269.1z"/>
		<path class="st3" d="M939.7,269.1h-1.6c-0.5,0-1-0.4-1-1v-25.8c0-0.5,0.4-1,1-1h1.6c0.5,0,1,0.4,1,1v25.8
			C940.7,268.7,940.3,269.1,939.7,269.1z"/>
		<path class="st3" d="M953.5,269.1h-1.6c-0.5,0-1-0.4-1-1v-25.8c0-0.5,0.4-1,1-1h1.6c0.5,0,1,0.4,1,1v25.8
			C954.5,268.7,954,269.1,953.5,269.1z"/>
		<path class="st3" d="M967.3,269.1h-1.6c-0.5,0-1-0.4-1-1v-25.8c0-0.5,0.4-1,1-1h1.6c0.5,0,1,0.4,1,1v25.8
			C968.2,268.7,967.8,269.1,967.3,269.1z"/>
		<path class="st3" d="M981,269.1h-1.6c-0.5,0-1-0.4-1-1v-25.8c0-0.5,0.4-1,1-1h1.6c0.5,0,1,0.4,1,1v25.8
			C982,268.7,981.5,269.1,981,269.1z"/>
		<path class="st3" d="M994.8,269.1h-1.6c-0.5,0-1-0.4-1-1v-25.8c0-0.5,0.4-1,1-1h1.6c0.5,0,1,0.4,1,1v25.8
			C995.7,268.7,995.3,269.1,994.8,269.1z"/>
		<path class="st3" d="M1008.5,269.1h-1.6c-0.5,0-1-0.4-1-1v-25.8c0-0.5,0.4-1,1-1h1.6c0.5,0,1,0.4,1,1v25.8
			C1009.5,268.7,1009.1,269.1,1008.5,269.1z"/>
		<path class="st3" d="M1022.3,269.1h-1.6c-0.5,0-1-0.4-1-1v-25.8c0-0.5,0.4-1,1-1h1.6c0.5,0,1,0.4,1,1v25.8
			C1023.3,268.7,1022.8,269.1,1022.3,269.1z"/>
		<path class="st3" d="M1036.1,269.1h-1.6c-0.5,0-1-0.4-1-1v-25.8c0-0.5,0.4-1,1-1h1.6c0.5,0,1,0.4,1,1v25.8
			C1037,268.7,1036.6,269.1,1036.1,269.1z"/>
		<path class="st3" d="M1049.8,269.1h-1.6c-0.5,0-1-0.4-1-1v-25.8c0-0.5,0.4-1,1-1h1.6c0.5,0,1,0.4,1,1v25.8
			C1050.8,268.7,1050.3,269.1,1049.8,269.1z"/>
	</g>
	<path class="st4" d="M1241.6,270.8h-9.7V258c0-1.5-1.1-2.6-2.4-2.6h-104.2c-1.3,0-2.4,1.2-2.4,2.6v12.8H835.2V258
		c0-1.5-1.1-2.6-2.4-2.6H728.6c-1.3,0-2.4,1.2-2.4,2.6v12.8H717c-0.8,0-1.5,0.7-1.5,1.7v10c0,0.9,0.7,1.7,1.5,1.7h9.2v37.3
		c0,1.5,1.1,2.6,2.4,2.6h104.2c0.2,0,0.5,0,0.7-0.1h291.1c0.2,0.1,0.4,0.1,0.7,0.1h104.2c1.3,0,2.4-1.2,2.4-2.6v-37.3h9.7
		c0.8,0,1.5-0.7,1.5-1.7v-10C1243.1,271.5,1242.4,270.8,1241.6,270.8z"/>
	<rect x="726.2" y="314" class="st14" width="505.7" height="10.8"/>
	<path class="st3" d="M1188.3,794.9h-46.7H820.4h-46.7h-14.2v9.2c0,0.6,0.4,1.1,1,1.1h1.1c1.8,0,3.6,1,4.6,2.7l3.6,5.7
		c0.9,1.4,1.6,3,2.2,4.6v226.5c0,1,0.8,1.9,1.7,1.9h414.7c1,0,1.7-0.8,1.7-1.9V818.4c0.5-1.7,1.3-3.3,2.2-4.8l3.6-5.7
		c1-1.7,2.8-2.7,4.6-2.7h1.1c0.6,0,1-0.5,1-1.1v-9.2H1188.3z"/>
	<g>
		<path class="st14" d="M1039.8,1028.1H929.5c-2.4,0-4.4-2-4.4-4.4V891.8c0-32.9,26.7-59.5,59.5-59.5h0c32.9,0,59.5,26.7,59.5,59.5
			v131.9C1044.2,1026.1,1042.2,1028.1,1039.8,1028.1z"/>
		<path class="st0" d="M1027.2,1026.8h-85c-2.4,0-4.4-2-4.4-4.4V894.1c0-25.9,21-46.9,46.9-46.9h0c25.9,0,46.9,21,46.9,46.9v128.3
			C1031.6,1024.8,1029.6,1026.8,1027.2,1026.8z"/>
	</g>
	<g>
		<path class="st14" d="M910.6,1028.1h-99.1c-2.2,0-3.9-1.8-3.9-3.9V885.7c0-29.5,23.9-53.5,53.5-53.5h0c29.5,0,53.5,23.9,53.5,53.5
			v138.5C914.5,1026.3,912.8,1028.1,910.6,1028.1z"/>
		<path class="st0" d="M907,1026.8h-76.3c-2.2,0-4-1.8-4-4V889.3c0-23.3,18.9-42.1,42.1-42.1h0c23.3,0,42.1,18.9,42.1,42.1v133.6
			C910.9,1025,909.2,1026.8,907,1026.8z"/>
	</g>
	<g>
		<path class="st14" d="M1058.3,1028.1h97.4c2.1,0,3.9-1.7,3.9-3.9V884.8c0-29-23.5-52.6-52.6-52.6h0c-29,0-52.6,23.5-52.6,52.6
			v139.4C1054.4,1026.4,1056.1,1028.1,1058.3,1028.1z"/>
		<path class="st0" d="M1061.9,1026.8h75c2.2,0,3.9-1.7,3.9-3.9V888.6c0-22.9-18.5-41.4-41.4-41.4h0c-22.9,0-41.4,18.5-41.4,41.4
			v134.3C1058,1025.1,1059.7,1026.8,1061.9,1026.8z"/>
	</g>
</g>
<g id="Layer_17">
</g>
<g id="Layer_16">
</g>
<g id="Menu">
</g>
<g id="Layer_18">
</g>
</svg>
