<?xml version="1.0" encoding="utf-8"?>
<!-- Generator: Adobe Illustrator 21.1.0, SVG Export Plug-In . SVG Version: 6.00 Build 0)  -->
<svg version="1.1" xmlns="http://www.w3.org/2000/svg" xmlns:xlink="http://www.w3.org/1999/xlink" x="0px" y="0px"
	 viewBox="0 0 1351.2 673.9" style="enable-background:new 0 0 1351.2 673.9;" xml:space="preserve">
<style type="text/css">
	.st0{fill:#896764;}
	.st1{fill:#FFFFFF;}
	.st2{fill:#262422;}
	.st3{fill:#F7DECB;}
	.st4{fill:#F3AEAE;}
	.st5{fill:none;stroke:#273954;stroke-width:1.8433;stroke-linecap:round;stroke-miterlimit:10;}
	.st6{fill:#F9ECEE;stroke:#273954;stroke-width:2;stroke-linecap:round;stroke-miterlimit:10;}
	.st7{fill:#F9ECEE;}
	.st8{fill:#FAC7D0;}
	.st9{fill:#F37D93;}
	.st10{fill:#FEF4E9;}
	.st11{fill:#273954;}
	.st12{fill:#3F688D;stroke:#010101;stroke-width:9;stroke-miterlimit:10;}
	.st13{fill:#F37D93;stroke:#010101;stroke-width:9;stroke-miterlimit:10;}
	.st14{fill:#FAC6D0;}
	.st15{fill:#FDF4E9;}
	.st16{fill:none;stroke:#273954;stroke-width:2;stroke-linecap:round;stroke-miterlimit:10;}
	.st17{fill:none;}
	.st18{fill:#DB9E5F;}
	.st19{fill:#B57A2B;}
	.st20{fill:#18120B;}
	.st21{fill:#7A2434;}
	.st22{fill:#71471C;}
	.st23{fill:#E5B68B;}
	.st24{fill:#3F688D;}
	.st25{fill:#F9ECEE;stroke:#273954;stroke-width:1.8433;stroke-linecap:round;stroke-miterlimit:10;}
</style>
<g id="Layer_8">
	<g>
		<path class="st0" d="M55.6,635.7c-5.7-0.3-9.9-1.9-9.2-3.5c0.6-1.6,5.8-2.6,11.5-2.2s9.9,1.9,9.2,3.5
			C66.5,635,61.3,636,55.6,635.7z"/>
		<path class="st0" d="M34.8,641.4c-3.7-1.7-4.2-3.8-1.1-4.9c3.1-1,8.5-0.5,12.2,1.2c3.7,1.7,4.2,3.8,1.1,4.9
			C44,643.6,38.5,643,34.8,641.4z"/>
		<path class="st0" d="M58.1,626.3c-5,1.1-10.7,0.9-12.8-0.5s0.4-3.4,5.4-4.5c5-1.1,10.7-0.9,12.8,0.5
			C65.5,623.2,63.1,625.2,58.1,626.3z"/>
		<path class="st0" d="M41,620.5c-3,1.9-8.4,2.8-11.9,2s-4-3.1-1-5s8.4-2.8,11.9-2C43.6,616.3,44,618.6,41,620.5z"/>
		<path class="st0" d="M3.5,628.8c0,0,1.8,1.3,0.9,3.8c-0.4,1.3-4.7,6.2,5.6,6.3c9.7,0.1,31.3-5.2,31.1-9.3
			c-0.2-3.5-23.2-9.2-36.4-7.9C-3.2,622.5,0.7,626.7,3.5,628.8z"/>
	</g>
	<g>
		<path class="st0" d="M178.2,596.7c-5.7-0.3-9.9-1.9-9.2-3.5c0.6-1.6,5.8-2.6,11.5-2.2c5.7,0.3,9.9,1.9,9.2,3.5
			C189.1,596,183.9,597,178.2,596.7z"/>
		<path class="st0" d="M157.5,602.4c-3.7-1.7-4.2-3.8-1.1-4.9s8.5-0.5,12.2,1.2c3.7,1.7,4.2,3.8,1.1,4.9
			C166.6,604.6,161.1,604.1,157.5,602.4z"/>
		<path class="st0" d="M180.7,587.4c-5,1.1-10.7,0.9-12.8-0.5c-2-1.4,0.4-3.4,5.4-4.5c5-1.1,10.7-0.9,12.8,0.5
			C188.1,584.2,185.7,586.2,180.7,587.4z"/>
		<path class="st0" d="M163.6,581.6c-3,1.9-8.4,2.8-11.9,2c-3.6-0.8-4-3.1-1-5c3-1.9,8.4-2.8,11.9-2
			C166.2,577.4,166.7,579.6,163.6,581.6z"/>
		<path class="st0" d="M126.1,589.8c0,0,1.8,1.3,0.9,3.8c-0.4,1.3-4.7,6.2,5.6,6.3c9.7,0.1,31.3-5.2,31.1-9.3
			c-0.2-3.5-23.2-9.2-36.4-7.9C119.4,583.5,123.3,587.7,126.1,589.8z"/>
	</g>
	<g>
		<path class="st0" d="M299.4,637c-5.7-0.3-9.9-1.9-9.2-3.5c0.6-1.6,5.8-2.6,11.5-2.2c5.7,0.3,9.9,1.9,9.2,3.5
			C310.3,636.3,305.2,637.3,299.4,637z"/>
		<path class="st0" d="M278.7,642.7c-3.7-1.7-4.2-3.8-1.1-4.9c3.1-1,8.5-0.5,12.2,1.2c3.7,1.7,4.2,3.8,1.1,4.9
			S282.3,644.4,278.7,642.7z"/>
		<path class="st0" d="M301.9,627.7c-5,1.1-10.7,0.9-12.8-0.5c-2-1.4,0.4-3.4,5.4-4.5c5-1.1,10.7-0.9,12.8,0.5
			C309.3,624.5,306.9,626.6,301.9,627.7z"/>
		<path class="st0" d="M284.8,621.9c-3,1.9-8.4,2.8-11.9,2s-4-3.1-1-5s8.4-2.8,11.9-2C287.5,617.7,287.9,619.9,284.8,621.9z"/>
		<path class="st0" d="M247.3,630.1c0,0,1.8,1.3,0.9,3.8c-0.4,1.3-4.7,6.2,5.6,6.3c9.7,0.1,31.3-5.2,31.1-9.3
			c-0.2-3.5-23.2-9.2-36.4-7.9C240.6,623.9,244.6,628,247.3,630.1z"/>
	</g>
	<g>
		<path class="st0" d="M417.2,597.3c-5.7-0.3-9.9-1.9-9.2-3.5c0.6-1.6,5.8-2.6,11.5-2.2s9.9,1.9,9.2,3.5
			C428.1,596.6,423,597.6,417.2,597.3z"/>
		<path class="st0" d="M396.5,603c-3.7-1.7-4.2-3.8-1.1-4.9c3.1-1,8.5-0.5,12.2,1.2c3.7,1.7,4.2,3.8,1.1,4.9
			C405.6,605.2,400.2,604.7,396.5,603z"/>
		<path class="st0" d="M419.7,588c-5,1.1-10.7,0.9-12.8-0.5c-2-1.4,0.4-3.4,5.4-4.5c5-1.1,10.7-0.9,12.8,0.5
			C427.2,584.8,424.8,586.8,419.7,588z"/>
		<path class="st0" d="M402.7,582.2c-3,1.9-8.4,2.8-11.9,2s-4-3.1-1-5c3-1.9,8.4-2.8,11.9-2C405.3,578,405.7,580.2,402.7,582.2z"/>
		<path class="st0" d="M365.1,590.4c0,0,1.8,1.3,0.9,3.8c-0.4,1.3-4.7,6.2,5.6,6.3c9.7,0.1,31.3-5.2,31.1-9.3
			c-0.2-3.5-23.2-9.2-36.4-7.9C358.4,584.2,362.4,588.3,365.1,590.4z"/>
	</g>
	<g>
		<path class="st0" d="M525.2,637c-5.7-0.3-9.9-1.9-9.2-3.5c0.6-1.6,5.8-2.6,11.5-2.2c5.7,0.3,9.9,1.9,9.2,3.5
			C536.1,636.3,531,637.3,525.2,637z"/>
		<path class="st0" d="M504.5,642.7c-3.7-1.7-4.2-3.8-1.1-4.9c3.1-1,8.5-0.5,12.2,1.2c3.7,1.7,4.2,3.8,1.1,4.9
			C513.6,644.9,508.1,644.4,504.5,642.7z"/>
		<path class="st0" d="M527.7,627.7c-5,1.1-10.7,0.9-12.8-0.5c-2-1.4,0.4-3.4,5.4-4.5c5-1.1,10.7-0.9,12.8,0.5
			S532.7,626.6,527.7,627.7z"/>
		<path class="st0" d="M510.7,621.9c-3,1.9-8.4,2.8-11.9,2s-4-3.1-1-5s8.4-2.8,11.9-2C513.3,617.7,513.7,619.9,510.7,621.9z"/>
		<path class="st0" d="M473.1,630.1c0,0,1.8,1.3,0.9,3.8c-0.4,1.3-4.7,6.2,5.6,6.3c9.7,0.1,31.3-5.2,31.1-9.3
			c-0.2-3.5-23.2-9.2-36.4-7.9C466.4,623.9,470.4,628,473.1,630.1z"/>
	</g>
	<g>
		<path class="st0" d="M641.8,597.3c-5.7-0.3-9.9-1.9-9.2-3.5c0.6-1.6,5.8-2.6,11.5-2.2c5.7,0.3,9.9,1.9,9.2,3.5
			C652.6,596.6,647.5,597.6,641.8,597.3z"/>
		<path class="st0" d="M621,603c-3.7-1.7-4.2-3.8-1.1-4.9c3.1-1,8.5-0.5,12.2,1.2c3.7,1.7,4.2,3.8,1.1,4.9
			C630.1,605.2,624.7,604.7,621,603z"/>
		<path class="st0" d="M644.2,588c-5,1.1-10.7,0.9-12.8-0.5c-2-1.4,0.4-3.4,5.4-4.5c5-1.1,10.7-0.9,12.8,0.5
			C651.7,584.8,649.3,586.8,644.2,588z"/>
		<path class="st0" d="M627.2,582.2c-3,1.9-8.4,2.8-11.9,2c-3.6-0.8-4-3.1-1-5c3-1.9,8.4-2.8,11.9-2S630.2,580.2,627.2,582.2z"/>
		<path class="st0" d="M589.7,590.4c0,0,1.8,1.3,0.9,3.8c-0.4,1.3-4.7,6.2,5.6,6.3c9.7,0.1,31.3-5.2,31.1-9.3
			c-0.2-3.5-23.2-9.2-36.4-7.9C582.9,584.2,586.9,588.3,589.7,590.4z"/>
	</g>
</g>
<g id="Layer_1">
</g>
<g id="Layer_7">
</g>
<g id="Layer_2">
</g>
<g id="Layer_3">
</g>
<g id="Layer_5">
</g>
<g id="Layer_4">
</g>
<g id="Layer_6">
	<path class="st5" d="M1060,203.1c0,0,1.9,56.3,30.1,92c43.8,55.3,46.5,100.1,46.5,100.1"/>
	<path class="st5" d="M1137.1,395.2c0,0-36.7-83.6-90.6-80.5c-57.6,3.3-72.3-31.8-72.3-31.8"/>
	<path class="st2" d="M1323.2,410.8c0,0,1.9,2.6,3.3,7.7c1.4,5.1-15.1-10.1-15.1-10.1S1319.3,406.1,1323.2,410.8"/>
	<path class="st3" d="M1313,409.7c0,0,9,2.4,11,6.7c2,4.3-10.7-0.7-10.7-0.7L1313,409.7z"/>
	<path class="st4" d="M1293.4,391.4c0,0,16.2,9.7,25.6,20.1c1.5,1.6,2.7,6,2,7.6l-18.9-9.5l-26.5-18.8L1293.4,391.4z"/>
	<path class="st1" d="M1282.4,391.6c0.3,0.1,0.6,0.2,0.8,0.5c1.2,1.6,6.7,7.9,21.9,14.2c10.5,4.4,2.7,2.6,3.4,4.9s11.2,7,13.9,5.5
		c0.2-0.1,1.9-1.5,2.4-0.6c0.9,1.7,1.4,3.8-0.8,4c-4.1,0.3-8.4-0.8-9.6-1.1c-0.2,0-0.4-0.1-0.5-0.2l-32.5-25
		C1280.4,393.1,1281.1,391.4,1282.4,391.6L1282.4,391.6z"/>
	<g>
		<path class="st2" d="M1326.6,419.3c0.1-0.3-0.6-0.8-0.9-0.7c-3.5,1.6-15-2.7-17.8-4.5c-1.6-1-1.9-5.5-4.6-5.5
			c-1.4,0-7.1-3.8-13.3-8.3c-1.9-1.4-8.4-6.5-9-7.6c-1-1.6,4.9-1.4,10.4,1c0.3,0.1,0.6-0.2,0.4-0.5c-1.8-2.7-7.3-9.7-15-6.5
			l-6.2,2.8c-0.2,0.1-0.3,0.4-0.1,0.6c4.4,3.8,41.7,35.7,49.3,34.3C1324.5,423.6,1326.1,420.7,1326.6,419.3z"/>
		<path class="st1" d="M1293,394.5c0.1,0.1,0.3,0.1,0.4,0.2C1293.3,394.6,1293.1,394.6,1293,394.5z"/>
		<path class="st1" d="M1293.4,394.7c0.1,0.1,0.3,0.1,0.4,0.2C1293.7,394.8,1293.5,394.8,1293.4,394.7z"/>
		<path class="st1" d="M1292.7,394.3c0.1,0.1,0.2,0.1,0.3,0.2C1292.9,394.4,1292.8,394.4,1292.7,394.3z"/>
		<path class="st1" d="M1292.4,394.2C1292.4,394.2,1292.4,394.2,1292.4,394.2C1292.4,394.2,1292.4,394.2,1292.4,394.2z"/>
		<path class="st1" d="M1292.5,394.2c0.1,0,0.1,0.1,0.2,0.1C1292.6,394.3,1292.5,394.3,1292.5,394.2z"/>
		<path class="st1" d="M1293.8,394.9c0.2,0.1,0.5,0.2,0.7,0.3C1294.3,395.1,1294.1,395,1293.8,394.9z"/>
		<path class="st1" d="M1294.5,395.2c0.5,0.2,0.9,0.5,1.3,0.6C1295.4,395.7,1294.9,395.4,1294.5,395.2z"/>
		<path class="st1" d="M1297.3,396.6C1297.4,396.7,1297.4,396.7,1297.3,396.6L1297.3,396.6z"/>
		<path class="st1" d="M1296.6,396.3c0.3,0.2,0.6,0.3,0.7,0.3C1297.2,396.6,1297,396.5,1296.6,396.3z"/>
		<path class="st1" d="M1295.8,395.9c0.2,0.1,0.4,0.2,0.5,0.3C1296.2,396,1296,396,1295.8,395.9z"/>
		<path class="st1" d="M1296.3,396.1c0.1,0.1,0.2,0.1,0.3,0.2C1296.5,396.2,1296.4,396.2,1296.3,396.1z"/>
	</g>
	<line class="st4" x1="1311.9" y1="418.9" x2="1313.5" y2="417.6"/>
	<path class="st1" d="M1189.9,581.4c0,0,10.1,28.9,13.4,43.3c3.3,14.4,18.3,25.6,18.3,25.6s5.6-5.6,17.2-1.7
		c11.6,3.9,12.4,15.4,12.4,15.4s-10.3,4.3-32.6,2.1c-22.3-2.1-29.5-9.9-28.7-11.2c0.8-1.3-0.8,1.3-0.8,1.3s-7.4,3.4-3.1,6.9
		c0,0-19.4-8.9-13.1-24.8c0,0-5.7,6.8-3.6,11.1c0,0-35.6-40.7-27.5-68S1189.9,581.4,1189.9,581.4z"/>
	<path class="st18" d="M1083.9,558c0,0,9.1-0.2,14.3-5.8c0,0-1.9,5.4,3.9,8.7c0,0,1.9-7.6,13.9-8.7c0,0,5.5,1.3,2.8,8.7
		c0,0,5.5-0.9,7.2-5.9c0,0-0.3,9.3,6.8,14.8c7.1,5.5,23.1-55.7,23.1-55.7l-74.2,30.7l-1.1,12.1L1083.9,558z"/>
	<path class="st19" d="M1196.1,503.1c0,0,6.5,18.7,4.8,24.8s-12.7,13.1-12.7,25c0,11.8,3.1,26.7,1.8,28.5
		c-1.3,1.8-29.8,14-29.4,21.9c0.4,7.9-13.2,7-5.9,25.9c0,0-33.1-62.7-19.5-82.8c13.6-20.2,14-29.8,14-29.8l36.6-23.8L1196.1,503.1z"
		/>
	<path class="st19" d="M1271.3,318.4c0,0-14.8-7.6-31.6-2.7c0,0,2.5-0.6,5.1-8.2c1.4-4-6.2-10.9,5.4-9.9
		C1260.4,298.5,1267.2,305.2,1271.3,318.4z"/>
	<path class="st20" d="M1285.9,357.8c1,1.6,1.8,1,5.5,3c3.8,2,7.3-8.4,0-7.1c-0.4,0.1-1.9,0.3-4,0.6
		C1287.4,354.2,1284.5,355.6,1285.9,357.8z"/>
	<path class="st1" d="M1086.4,549.8c0,0-14.2,47.1-18.3,58.2c-4.8,13.2-21.3,29-24.1,34.1c-1.4,2.5-3.2,11.7,0.3,9.8
		c5.6-3.1,14.1-2.3,19.1,0c6.6,3.1,10.1,15.6,7.6,16.4c-15.8,5-50.8,9.5-52.6,0c-1.8-9.5-9.9-22.3,6.3-46.9c0,0,16.2-44.8,5.4-56.1"
		/>
	<path class="st19" d="M1000.1,561.4c0,0,2.5,9.4-1.5,16.1c-0.6,1-1.3,1.9-2.2,2.7c0,0,5.7-0.4,7.8-4.1s-11.8,13.5-2,27.4
		c0,0,4.1,7.8,4.9,8.4c0.8,0.6-0.8-0.6-0.8-0.6s0.2-9.4,7.2-9.8c0,0,6,14.7,0,22.9c0,0,16.5,2.5,21.4-6.9c4.9-9.4,7.5-60.5,7.5-60.5
		l-41.6,8.9"/>
	<path class="st18" d="M1012.8,560.9c0,0,2.2,8.4-1.4,14.4c-0.5,0.9-1.1,1.7-1.9,2.4c0,0,5.1-0.3,6.9-3.6s-10.6,12-1.8,24.4
		c0,0,3.6,6.9,4.4,7.5s-0.7-0.5-0.7-0.5s0.1-8.4,6.4-8.7c0,0,5.4,13.1,0,20.4c0,0,13.6-2.9,17.1-11.2c15.7-37.1-0.6-44.2-0.6-44.2
		l-27.7,3.2"/>
	<path class="st1" d="M815.2,564.6c0,0-28.3,17.1-33.4,37.9s-7.8,29.7-9.6,32.3c-1.8,2.7-23,24.4-28.8,20.8
		c-5.8-3.5-12.8-14.6,4-27.9c0,0-3.5-10.2,0.9-14.3c9.2-8.6,14.8-28.3,14.2-39.7"/>
	<path class="st19" d="M891.8,554.6c0,0-63.7,22.3-82.9,14.9l-41.5,6.6l72.3-108.3L891.8,554.6z"/>
	<path class="st1" d="M780.8,486.3c0,0-57.4,55.2-53,77.5c3.6,18.3,43.1-28,75.6-68.4c25.6-31.8,32.6-74.4,32.6-74.4
		s-14.6-15.8-27.5-8.7C793,421,794,464,780.8,486.3z"/>
	<path class="st1" d="M891.8,638.1c0,0,16.5,27,20.3,27.4c3.8,0.4,29,2.1,30.7,2.5c1.7,0.4,22.9,1.3,21.6-5.6
		c-3-16.3-19.6-15.7-25.1-14c-12.5,3.8-22.4-21.5-24.8-27.4c-4.2-10.5-2-16.5,1.3-26C919,585.4,891.8,638.1,891.8,638.1z"/>
	<path class="st19" d="M891.1,369.2c0,0-59.1,4.1-42.5,65.1c16.5,61,49.8,95.3,49.8,95.3s-31.8,68.1-27.1,78.1
		c4.6,9.9,18.5,29.1,20.5,30.4s3.6-15,16.5-16.5c0,0-2.6-16.5,4.6-21.8s3.3-17.9,3.3-17.9s40.3-25.8,39-53.6
		C953.9,500.5,891.1,369.2,891.1,369.2z"/>
	<path class="st18" d="M884.4,369.2c0,0-69.9,1.9-87,71.2c-11.3,45.9,3.6,45.9-39.5,76.8c-48.5,34.7-41,64.8-40.2,73.8
		c0,0,23.8-15.7,51.4-8.9c27.6,6.7,76-35,76.8-71.5c0,0,11.2,24.9,0.7,48.6c0,0,8.9-1.6,13.4-12.8c0,0,13.4,10.4,7.5,38.8
		c0,0,16.7-9.7,16.9-34.3c0,0,6.9,19,17.4,16.6c0,0-7.7-10.6-6.5-21.1c0,0,13.2,0.3,13.9,12.8c0,0,6.6-31.1-1-34.7
		c0,0,10.7,1.7,16.6,22.6c0,0,5-31.1-15.6-43.3c-24.5-14.5-47.7-42.1-26-60.8C900.6,428,904,381.2,884.4,369.2z"/>
	<path class="st21" d="M1038.3,561.1c25.6,2.8,48.6-25.5,85-32.1c36.5-6.6,60.9-38.3,62.3-34c1.4,4.3,6.6,9.9,10.4,10.4
		c3.8,0.5,9.9-14.7,9.5-21.6c-0.5-6.9-59.1-104.2-59.1-104.2s-23.1-7.7-29.3-11.7c-3.1-2-19.6,8.6-21.3,6.5
		c-3.3-4.3-19.9-0.9-23.2-0.5c-3.3,0.5-19.9,1.4-40.7-2.4c-20.8-3.8-38.2,3.4-63.8-2.4c-1.5-0.3-14.1-3.9-28.4-4.7
		c-6.2-0.4-42.4-0.6-44.5-3.2c0,0,15.2,13.1,20.1,68.1s46,116.2,78.4,118.7L1038.3,561.1z"/>
	<path class="st21" d="M1174.1,480.9c0.8-11.1-27.6-33.3-39-68.6"/>
	<path class="st1" d="M948.1,532.4c-41.1-43-44.4-117.2-59.6-152.7c0,0-2.8-15.6-9.9-12.3s0-6.2,4.7-5.9c4.7,0.3,12.6-3.8,15.5-0.1
		c0,0,13.9,12.9,20.1,63.1c6.2,50.2,30.8,101.1,55.4,112.2c24.6,11.1,31.8,13.8,60.8,10.7c28.5-3,64-23.4,102.2-40.7
		c7.7-3.5,39.8-23.4,39.8-23.4s-41.9-64.5-40.7-73.1s-17.5-39.9-21.2-37.8s17.1-7,17.1-7s62.7,113.7,71.8,117.9
		c9.2,4.1,6.6,11.4,1.3,17.5s-3,7.3-8.3,7.6s-10.6-9.3-10.6-9.3s-13.6,15.4-29.8,19.2c-7.9,1.8-28.3,13.9-47.7,22.5
		c-20.5,9.1-39.8,14.8-42.8,15.8C1019.6,572.5,989.2,575.4,948.1,532.4z"/>
	<path class="st19" d="M1154.3,355.7c0,0-40.8,3.4-42.7,18.8c0,0,4.6-5.5,15.8,0c0,0-9.6,12.5,0,19.3c0,0,1.8-21.7,14-11
		c10,8.8,18.8,68.7,60.7,99.2c0,0,15.3,10.3,27.2-0.9c11.9-11.1-2-69.7-2-69.7L1154.3,355.7z"/>
	<path class="st1" d="M1190.6,316.3c0,0,3.9,1.9,5.6,5.1c0,0-5.1-2.9-11.2,1.3c0,0,3.5-1.2,7.3,1.4c0,0-16,8-16.7,13.9
		c-0.7,5.9-34.5,21.6-48.2,22.1c0,0,13.9,0,19.5-1.6c0,0-3.5,0.4-3.8,2.7c0,0,6.8-3.6,11.5-2c0,0-3.5,3.8-4.5,7
		c0,0,9.4-6.9,12.7-5.1c0,0-5.4,8.8-1.9,11.9c0,0,2.3-4.7,3.8-4.9c0,0-1.6,7.3,4.2,9.9c0,0-2.1-3.8,0.2-5.9c0,0,1.8,12.2,16.1,21.8
		c22,14.8,27,38.4,29.3,46.6c3.8,13.5,2.3,11.2,2.3,11.2s1.9-7.6,1.5-11.1c-0.1-0.5-0.2-1-0.4-1.3c-1.4-2.3,6.1,3.8,7.8,22.1
		c0,0,1.4-1.6,2.1-9.2c0,0,1.4,17.3-2.8,18.3c-16.8,4-19.3-12.1-19.5-14.1c-0.8-7.7-2.8,26.9,16.2,27c16.4,0.1,50-43.5,53.1-50
		c3.1-6.6-3.5-29,3.8-29.1c5,0-31.4-55.3-59.3-81.4C1206.7,310.9,1192.1,317.1,1190.6,316.3z"/>
	<path class="st19" d="M1319.7,424.5c-16.3,5.9-34.3-16-42.1-20.3c-9.4-5.2-7.4,3.7-7.4,3.7s2.5,27.3-9.7,32.2
		c-12.1,4.9-18.5-37.6-40.1-35.8c-15.9,1.3-6.1-13.1-6.5-27.7c-0.4-13-20.3-12.8-18.8-30.3c1.9-22.4,28.5-21.1,38.3-29.2
		c16.9-13.9,62.3,0.5,68.6,25.8c2.3,9.2,11.9,24.3,25,36.2c11.9,10.8,25.5,19,22.4,23.1c-6.4,8.5-28.2,16.4-50.1-2.1
		c-8.5-7.2-23.3-19.6-24.8-9.9c-0.7,4.7,6.3,7.1,14.6,14.7c4.4,4,8.8,7.7,14,10.8C1312,420.7,1321.2,423.9,1319.7,424.5z"/>
	<path class="st19" d="M1247.3,339.5c0,0-10.3-7.7-8.3-16.6c1.2-5.3-5.9-17.9-17.6-17.9c-13.3,0-26.9,19.4-19.4,17.9
		c5.5-1.1,9.5-2.9,11.3,0s-4.6,9.7-2.9,17.9c0.5,2.6,2.9,10.6,16.8,9.5"/>
	<g>
		<path class="st22" d="M1242.5,335c-5.1-7.1-2.7-9.1-3.4-14.7c-0.3-2-1.5-15.8-17.3-15.1c-13.3,0.6-15.9,7.3-15.9,7.3
			s18.8-5.4,22.6,7.1c0.3,1,0.5,2.2,0.7,3.3c-1.4-0.8-4.9,0.4-6,0.8c3.3-1,6.6,8,6.6,8c0.3,6.2,1.1,12.1,6.9,14.4
			c2.1,0.8,13.7,1,16.3-2C1255.5,341.1,1247.6,342.1,1242.5,335z"/>
		<path class="st22" d="M1228.5,324.8C1228.4,324.8,1228.4,324.8,1228.5,324.8C1228.4,324.8,1228.4,324.8,1228.5,324.8z"/>
		<path class="st22" d="M1228.7,324.7c-0.1,0-0.2,0.1-0.3,0.1C1228.5,324.8,1228.6,324.7,1228.7,324.7z"/>
	</g>
	<path class="st22" d="M1257.8,313.2c0,0,0.3-3-3.7-2.2c-4.1,0.8,1.3-2.3,3.6-3c2.3-0.8-1.3-2.1-3.4-0.8c0,0,3.1-4.6,8.6-2
		c5.6,2.6,7.1,9.5,7.1,9.5L1257.8,313.2z"/>
	<polygon class="st1" points="979.9,395.6 984.2,424.5 1004,422.4 1002.1,410.1 1024.2,407.5 1033.1,480.1 1021.2,481.3 1023,497.2 
		1065.7,493.2 1064.2,476.9 1051.2,478 1043,405.7 1067.2,403 1068.1,413.9 1084.2,412.2 1081.8,385.6 	"/>
	<polygon class="st1" points="1092.8,412.1 1092,421.7 1101.2,427.5 1101.1,416.4 	"/>
	<polygon class="st1" points="1101.8,406.7 1101,416.3 1110.2,422.1 1110.1,411 	"/>
	<polygon class="st1" points="1110.8,401.3 1110.1,410.9 1119.2,416.7 1119.1,405.6 	"/>
	<polygon class="st1" points="1119.8,395.9 1119.1,405.5 1128.2,411.3 1128.1,400.2 	"/>
	<polygon class="st1" points="1128.8,390.9 1128.1,400.5 1137.2,406.3 1137.1,395.2 	"/>
	<path class="st1" d="M1025.6,459.8l-4.1,0.5l-13.4-21.5l2.2-0.3l-1.6-8.9l-17.4,2l1.2,9.1l2.4-0.3l-6.3,24.5l-5.1,0.8l0.9,8.7
		l15.9-2.1l-1.2-8.6l-2.2,0.4l1.1-3.3l11.6-1.8l1.9,2.6l-2.8,0.4l1,9l16.9-2.4L1025.6,459.8z M999.5,451.9l2.3-7.7l5.4,6.6
		L999.5,451.9z"/>
	<polygon class="st1" points="1091.4,452.2 1095.6,452.2 1096.6,459.8 1082,460.8 1081.2,453.1 1084,453 1082.6,439 1075.9,454.7 
		1064.2,441 1065.3,455.6 1068.5,455.4 1069.1,463.6 1054.8,465.4 1053.8,456.9 1056.9,456.5 1054.7,433.3 1050.3,433.7 
		1049.4,424.5 1063.1,422.9 1072.6,438.3 1078.5,420.4 1089.9,419 1091,427.4 1088.5,427.8 	"/>
	<g>
		<path class="st1" d="M1002.3,517.3c0.2,0.3,0.4,0.5,0.5,0.6c1.7,2.3,2.8,3.8,3.5,4.5c0.7,0.7,1.2,1,1.7,1c0.7-0.1,1.2-0.7,1.5-1.9
			c0.3,0.1,0.4,0.3,0.5,0.4c0.1,0.5-0.2,1.2-0.8,2.1c-0.6,0.9-1.1,1.3-1.6,1.4c-0.7,0.1-1.7-0.5-2.9-1.8c-1.3-1.3-2.6-3.1-4-5.3
			c-0.4,0.1-0.8,0.2-1.1,0.2c-0.3,0-0.7,0.1-1.2,0.1l0,0.8l0,1.4c0,1.2-0.1,2-0.4,2.6c-0.3,0.6-0.9,1.2-1.9,1.8l2.9-0.2l-1.3,1.6
			l-5.3,0.5l1.3-1.7l1.3,0c0.9-0.8,1.3-2.1,1.3-4.1l0-1.2l-0.3-9.4c-3.6,1.2-5.2,2.9-4.9,5c0.1,0.8,0.4,1.5,0.8,2.1l-1.7,2
			c-0.3-0.6-0.4-1.2-0.5-1.9c-0.3-2.2,0.4-4.1,2-5.8c1.7-1.7,4-2.7,6.9-3.1c4-0.6,6.2,0.4,6.6,2.9
			C1005.4,513.8,1004.4,515.6,1002.3,517.3z M997.9,510.3l0.2,7.2c0.7,0,1.3,0,1.8-0.1c0.5-0.1,1-0.2,1.6-0.4
			c1.3-1.2,1.8-2.6,1.6-4.1C1002.9,510.7,1001.1,509.8,997.9,510.3z"/>
		<path class="st1" d="M1017.5,519.5c0.2,0.1,0.3,0.3,0.4,0.4c0,0.3-0.2,0.7-0.6,1.4c-1.2,1.8-2.4,2.8-3.8,3
			c-0.8,0.1-1.6-0.1-2.2-0.7c-0.6-0.6-1-1.4-1.2-2.4c-0.3-1.8,0.2-3.8,1.3-5.9s2.4-3.2,3.7-3.4c1-0.1,1.6,0.3,1.7,1.4
			c0.2,1.2-0.2,2.4-1.2,3.7c-1,1.3-2.3,2.3-3.9,3c0.4,1.9,1.4,2.8,2.7,2.6C1015.9,522.4,1016.9,521.3,1017.5,519.5z M1011.7,518.5
			c0.2,0,0.5,0.1,0.7,0c1-0.1,1.8-0.6,2.5-1.3s0.9-1.5,0.8-2.3c-0.1-0.9-0.7-1.4-1.7-1.2c-0.7,0.1-1.3,0.6-1.7,1.5
			C1011.8,516.1,1011.6,517.2,1011.7,518.5z"/>
		<path class="st1" d="M1025.1,519.9c1.8-3.5,2.6-5.9,2.4-7.1c-0.1-0.5-0.4-0.8-0.9-1l1.3-1.8c0.6,0.2,1,0.6,1.1,1.3
			c0.1,0.8-0.4,2.5-1.6,5.1c-0.3,0.6-0.5,1-0.6,1.2l-0.2,0.6l-0.4,1c-0.2,0.5-0.5,1.1-0.7,1.8l-1.5,1.9c-0.7-2.6-1.5-4.9-2.5-6.9
			c-1-2-1.8-3-2.3-2.9c-0.6,0.1-1,0.8-1,2c-0.2,0-0.4-0.2-0.4-0.3c-0.1-0.6,0.1-1.3,0.5-2.1c0.4-0.8,0.9-1.2,1.3-1.3
			C1021.3,510.9,1023.1,513.8,1025.1,519.9z"/>
		<path class="st1" d="M1038,516.5c0.2,0.1,0.3,0.3,0.4,0.4c0,0.3-0.2,0.7-0.6,1.4c-1.2,1.8-2.4,2.8-3.8,3c-0.8,0.1-1.6-0.1-2.2-0.7
			c-0.6-0.6-1-1.4-1.2-2.4c-0.3-1.8,0.2-3.8,1.3-5.9c1.1-2.1,2.4-3.2,3.7-3.4c1-0.1,1.6,0.3,1.7,1.4c0.2,1.2-0.2,2.4-1.2,3.7
			c-1,1.3-2.3,2.3-3.9,3c0.4,1.9,1.4,2.8,2.7,2.6C1036.4,519.4,1037.4,518.4,1038,516.5z M1032.1,515.5c0.2,0,0.5,0.1,0.7,0
			c1-0.1,1.8-0.6,2.5-1.3c0.7-0.7,0.9-1.5,0.8-2.3c-0.1-0.9-0.7-1.4-1.7-1.2c-0.7,0.1-1.3,0.6-1.7,1.5
			C1032.3,513.1,1032.1,514.2,1032.1,515.5z"/>
		<path class="st1" d="M1045.8,515.7c0.2,0.1,0.4,0.2,0.4,0.3c0,0.3-0.2,0.9-0.8,1.9c-0.8,1.3-1.6,2-2.4,2.1c-0.6,0.1-0.9-0.3-1.1-1
			c0-0.3-0.1-1.4-0.1-3.1l0-3.4l0-0.9l0-0.7c0-0.3,0-0.5,0-0.7c-0.1-0.4-0.2-0.6-0.4-0.6c-0.6,0.1-1.2,0.9-1.7,2.4
			c-0.2-0.1-0.3-0.2-0.3-0.4c-0.1-0.5,0.3-1.2,1.1-2.2c0.8-1,1.5-1.5,2-1.6c0.6-0.1,1,0.3,1.1,1.1c0,0.2,0,0.5,0,1l0,0.8
			c0,0.1,0,0.4,0,1l0,3.5l0,0.8c0,0.8,0,1.3,0.1,1.6c0.1,0.3,0.2,0.5,0.4,0.5C1044.7,518.2,1045.3,517.3,1045.8,515.7z
			 M1041.9,506.4l0.7-2.7c0.9-0.5,1.5-1.1,2-1.9c0.1,0.1,0.2,0.2,0.2,0.3C1044.9,503.3,1044,504.7,1041.9,506.4z"/>
		<path class="st1" d="M1052.2,514.7c0.2,0.1,0.4,0.2,0.4,0.4c0.1,0.6-0.2,1.4-1,2.4s-1.4,1.5-2,1.6c-0.7,0.1-1.1-0.3-1.2-1.3
			c-0.1-0.6-0.1-1.2-0.2-1.8l0-1.1l-0.3-8.6c-0.1-2.6,0.5-4.9,1.7-6.8c1.2-1.9,2.8-3,4.7-3.3c0.5-0.1,0.9-0.1,1.2-0.1l-1.5,2
			c-0.4-0.1-0.9-0.1-1.4,0c-1.2,0.2-2.1,0.7-2.5,1.7c-0.5,0.9-0.7,2.4-0.6,4.5l0.3,10.3c0,0.8,0.1,1.4,0.1,1.7
			c0.1,0.7,0.3,1.1,0.5,1c0.3,0,0.6-0.3,0.9-0.9C1051.8,515.9,1052.1,515.3,1052.2,514.7z"/>
		<path class="st1" d="M1058.8,513.8c0.2,0.1,0.4,0.2,0.4,0.4c0.1,0.6-0.2,1.4-1,2.4c-0.7,1-1.4,1.5-2,1.6c-0.7,0.1-1.1-0.3-1.2-1.3
			c-0.1-0.6-0.1-1.2-0.2-1.8l0-1.1l-0.3-8.6c-0.1-2.6,0.5-4.9,1.7-6.8c1.2-1.9,2.8-3,4.7-3.3c0.5-0.1,0.9-0.1,1.2-0.1l-1.5,2
			c-0.4-0.1-0.9-0.1-1.4,0c-1.2,0.2-2.1,0.7-2.5,1.7c-0.5,0.9-0.7,2.4-0.6,4.5l0.3,10.3c0,0.8,0.1,1.4,0.1,1.7
			c0.1,0.7,0.3,1.1,0.5,1c0.3,0,0.6-0.3,0.9-0.9C1058.5,515,1058.7,514.4,1058.8,513.8z"/>
		<path class="st1" d="M1067.8,512.2c0.2,0.1,0.3,0.3,0.4,0.4c0,0.3-0.2,0.7-0.6,1.4c-1.2,1.8-2.4,2.8-3.8,3
			c-0.8,0.1-1.6-0.1-2.2-0.7c-0.6-0.6-1-1.4-1.2-2.4c-0.3-1.8,0.2-3.8,1.3-5.9c1.1-2.1,2.4-3.2,3.7-3.4c1-0.1,1.6,0.3,1.7,1.4
			c0.2,1.2-0.2,2.4-1.2,3.7s-2.3,2.3-3.9,3c0.4,1.9,1.4,2.8,2.7,2.6C1066.2,515.1,1067.2,514,1067.8,512.2z M1062,511.2
			c0.2,0,0.5,0.1,0.7,0c1-0.1,1.8-0.6,2.5-1.3c0.7-0.7,0.9-1.5,0.8-2.3c-0.1-0.9-0.7-1.4-1.7-1.2c-0.7,0.1-1.3,0.6-1.7,1.5
			C1062.2,508.8,1062,509.9,1062,511.2z"/>
		<path class="st1" d="M1078.3,505l-1.7,2.2c-0.3-0.6-0.5-1.2-0.6-1.8c-0.3-2.1,0.2-3.9,1.6-5.4c1.4-1.5,3.3-2.4,5.9-2.8l1-0.1
			c-0.1,1.9-0.1,3.2-0.1,3.8l0.2,6l0,1.4c0,1.2-0.1,2-0.4,2.6c-0.3,0.6-0.9,1.2-1.9,1.8l3.5-0.3l-1.3,1.6l-6,0.6l1.3-1.7l1.3,0
			c0.9-0.8,1.3-2.1,1.3-4.1l0-1.2l-0.3-8.6l-0.4,0.1c-3.4,0.5-4.9,1.8-4.6,4.1C1077.5,503.7,1077.8,504.3,1078.3,505z"/>
		<path class="st1" d="M1094.8,504.2l-1-1.7l-0.6-1.1c-0.2-0.4-0.5-0.8-0.8-1.2c-0.4-0.6-0.6-1-0.7-1.1c-0.6-1-1.1-1.4-1.5-1.4
			c-0.8,0.1-1.4,1-1.7,2.6c-0.3,0-0.4-0.2-0.5-0.5c-0.1-0.8,0.1-1.6,0.8-2.6s1.3-1.5,1.9-1.6c0.5-0.1,1,0.2,1.6,0.7
			c0.5,0.5,1.3,1.7,2.4,3.5l1.3,2.2l0.3-0.8l0.6-1.5c1.4-3.5,3-5.4,4.9-5.7c0.6-0.1,1.2,0,1.8,0.1l-1.5,2c-0.4-0.1-0.7-0.2-0.9-0.2
			c-0.7,0.1-1.4,0.6-2,1.5c-0.6,0.9-1.4,2.5-2.2,4.8l-0.3,0.7l1.3,2.2l0.7,1.2l0.7,1.1c1,1.6,1.8,2.4,2.4,2.3
			c0.9-0.1,1.5-0.9,1.7-2.4c0.3,0.1,0.5,0.2,0.5,0.5c0.1,0.4-0.1,0.9-0.5,1.8c-0.6,1.2-1.3,1.9-2.2,2c-0.7,0.1-1.3-0.2-1.9-0.8
			c-0.6-0.7-1.6-2-2.9-4.2l-0.9-1.5l-0.2,0.6c-1.7,4.8-3.7,7.3-6.1,7.7c-0.5,0.1-1.1,0-1.7-0.2l1.5-2c0.3,0.1,0.7,0.2,1.1,0.1
			c1.1-0.2,2-1.1,3-2.9c0.8-1.5,1.3-2.8,1.7-3.9L1094.8,504.2z"/>
	</g>
	<path class="st18" d="M1269.7,350.6c0,0-3.5,15.9-9.6,21.2c-6.1,5.4-2.1,16.8,7.5,15.8c9.7-1.1,10-5.9,24.7,6.6
		c11.3,9.6,14.4,15.3,35.2,17c15.6,1.3,23-12,20-16c-5.8-7.8-22.1-15.2-32-28.9c-12.3-17-13.5-23.5-13.5-23.5s-14.3-18.5-20.5-14.4
		S1269.7,350.6,1269.7,350.6"/>
	<path class="st22" d="M1222.8,353.4c-10.4,6.4-5.3,7.8-12.5,13.6c0,0,8-7.8,35.6-7s29.8-9.8,29.8-9.8s-4.4,5.5-12.9,6.1
		C1249.2,357.3,1231.9,347.9,1222.8,353.4z"/>
	<path class="st22" d="M1303.3,349.3c0,0-2.5-7.6-6.5-12.4c-4.2-5-9.9-7.3-11.6-2.1c-2.6,8.1-9,14-15.5,15.9
		c-14.5,4.2-35.7-0.2-35.7-0.2s35.2-6.3,21.4-13.9c-8.1-4.5-9.7,1.5-9.7,1.5s-2.1-5.8,9.7-7.4c0,0-2.8-2-5.3-0.9
		c-2.5,1.1,7.8-5.3,14.7-0.9c0,0-1.8-2.9-5.8-4c0,0,8.1-0.7,14.6,2.2c0,0,0.4-2.3-6.5-2.9c0,0,7.1-1.9,11.1,2.3c1,1.1,2.1-1.2,1-3.3
		c-0.8-1.6-0.5-3-0.5-3c-0.2,2.1,5.7,4,5.7,4C1295.3,326.8,1302.8,338.5,1303.3,349.3"/>
	<path class="st20" d="M1285.9,357.8c1,1.6,1.8,1,5.5,3c3.8,2,7.3-8.4,0-7.1c-0.4,0.1-1.9,0.3-4,0.6
		C1287.4,354.2,1284.5,355.6,1285.9,357.8z"/>
	<path class="st22" d="M1291.5,354.5c-0.5,0.5-1.6,1.8-1.5,3.2c0.1,1,0.9,1.7,1.9,1.7h0.5c0.2,0,0.4-0.2,0.4-0.4
		c-0.2-0.8-0.4-2.4,0.4-3.2c0.1-0.2,0.1-0.4-0.1-0.5l-1.2-0.8C1291.8,354.4,1291.6,354.4,1291.5,354.5z"/>
	<path class="st1" d="M1292.2,355.2c0,0-0.1,0.9-0.5,1.2c-0.5,0.2,0.4,1.1,1.7,0.6c1.3-0.6,1.3-1.2,0.9-1.4
		C1293.7,355.4,1293.1,354.6,1292.2,355.2z"/>
	<path class="st23" d="M1310.6,359c0,0,1.4,12.5-4.2,12.8c-5.6,0.3-24.4-5.3-24.1,0c0.2,3.4,22.5,4.2,33.7,19
		c5.7,7.5,15.2,6.8,18.9,7.8c3.2,0.9,14.2-0.3,12.7-3.4c-2.2-4.4-13.3-11-16.5-13.8C1320.8,372.5,1317.5,369.2,1310.6,359"/>
	<path class="st2" d="M1334.9,398.6c-0.3,2.3,2.1,5.5,2.3,7.7s-1.4,2,0,3.8c0.8,1,5.5-0.7,9.2-3.3c2.8-1.9,5-4.3,4.6-6.1
		c-0.5-2.4-8.4-12.8-9.9-9C1338.8,397.1,1335.1,397.6,1334.9,398.6z"/>
	<path d="M1339,400.6c0,0-3.1-0.6-1.3,3c1.7,3.6-0.3,4.5,0.4,4.9s4-1.6,4.1-3.1S1342.2,399,1339,400.6z"/>
	<path class="st23" d="M791.7,474.3c0,0,14.5-51.2,29.4-52.2c0,0-2.5,14.3,3.4,24.8c0.4,0.7,2-59.7,42.9-75.1
		c7.7-2.9-45.1,9.2-59.9,40.5C796.5,435.8,795.5,440.4,791.7,474.3"/>
	<path class="st24" d="M967.6,282.7l8.3,9.6c0,0,9-8.2,6.8-14.2l-11-1.8L967.6,282.7z"/>
	<g>
		<path class="st24" d="M906,210.5l75.5,48.5c2.8,1.8,3.7,5.6,1.8,8.4l-21,32.6c-1.8,2.8-5.6,3.7-8.4,1.8l-75.5-48.5
			c-2.8-1.8-6.6-1-8.4,1.8l-10.3,16c-1.8,2.8-5.6,3.7-8.4,1.8l-25.5-16.4c-2.8-1.8-3.7-5.6-1.8-8.4l10.3-16c1.8-2.8,1-6.6-1.8-8.4
			l-64.9-41.7c-2.8-1.8-3.7-5.6-1.8-8.4l21-32.6c1.8-2.8,5.6-3.7,8.4-1.8l64.9,41.7c2.8,1.8,6.6,1,8.4-1.8l11.5-17.9
			c1.8-2.8,5.6-3.7,8.4-1.8l25.5,16.4c2.8,1.8,3.7,5.6,1.8,8.4L904.2,202C902.4,204.9,903.2,208.6,906,210.5z"/>
	</g>
	<path class="st9" d="M860.8,24.5l36.1-14.2c3.1-1.2,6.7,0.3,7.9,3.5l31.6,80.6c1.9,4.8,8.5,5.2,11,0.7c2.3-4.2,4.9-7.6,7.8-10.4
		c5.6-5.3,12.8-9.7,21.8-13.2c17-6.6,31.6-7,43.9-1c12.3,6,21.6,16.9,27.8,32.8l31.3,79.8c1.2,3.1-0.3,6.7-3.5,7.9l-36.1,14.2
		c-3.1,1.2-6.7-0.3-7.9-3.5l-24.4-62.3c-2.7-6.8-5.4-12.1-8.1-15.9c-2.7-3.8-5.7-6.3-9.1-7.6c-5.6-2-11.4-1.9-17.4,0.5
		c-8,3.2-13.3,8-15.7,14.5c-2.4,6.5-1.9,14.2,1.6,23.1l25.9,66.2c1.2,3.1-0.3,6.7-3.5,7.9l-36.1,14.2c-3.1,1.2-6.7-0.3-7.9-3.5
		L857.4,32.4C856.1,29.3,857.7,25.8,860.8,24.5z"/>
	<path class="st9" d="M1052.3,197.5l0.7,11.5c0,0,11.4,0.4,15.1-5.4l-9.7-10.3L1052.3,197.5z"/>
	<path class="st5" d="M991,78.8c0,0,8.6-4.8,17.3-0.5"/>
	<path class="st5" d="M1012,80.9c0,0,2.3,1,4,2.7"/>
	<line class="st5" x1="806" y1="157" x2="810.7" y2="160.2"/>
	<path class="st5" d="M814.9,162.8c0,0,34.9,22.8,36.2,23.6"/>
	<line class="st5" x1="900.9" y1="283.8" x2="905.3" y2="286.8"/>
	<line class="st5" x1="909.3" y1="289.1" x2="925.7" y2="299.4"/>
	<path class="st5" d="M892,5c0,0,15-6.5,18-2.4s9,21.5,9,21.5"/>
	<line class="st5" x1="920.7" y1="28.5" x2="922.4" y2="32.9"/>
</g>
</svg>
