<?xml version="1.0" encoding="utf-8"?>
<!-- Generator: Adobe Illustrator 21.1.0, SVG Export Plug-In . SVG Version: 6.00 Build 0)  -->
<svg version="1.1" xmlns="http://www.w3.org/2000/svg" xmlns:xlink="http://www.w3.org/1999/xlink" x="0px" y="0px"
	 viewBox="0 0 634.2 672.3" style="enable-background:new 0 0 634.2 672.3;" xml:space="preserve">
<style type="text/css">
	.st0{fill:#FFFFFF;}
	.st1{fill:#262422;}
	.st2{fill:#F7DECB;}
	.st3{fill:#F3AEAE;}
	.st4{fill:none;stroke:#273954;stroke-width:1.8433;stroke-linecap:round;stroke-miterlimit:10;}
	.st5{fill:#F9ECEE;stroke:#273954;stroke-width:2;stroke-linecap:round;stroke-miterlimit:10;}
	.st6{fill:#F9ECEE;}
	.st7{fill:#FAC7D0;}
	.st8{fill:#F37D93;}
	.st9{fill:#FEF4E9;}
	.st10{fill:#273954;}
	.st11{fill:#3F688D;stroke:#010101;stroke-width:9;stroke-miterlimit:10;}
	.st12{fill:#F37D93;stroke:#010101;stroke-width:9;stroke-miterlimit:10;}
	.st13{fill:#FAC6D0;}
	.st14{fill:#FDF4E9;}
	.st15{fill:none;stroke:#273954;stroke-width:2;stroke-linecap:round;stroke-miterlimit:10;}
	.st16{fill:none;}
	.st17{fill:#DB9E5F;}
	.st18{fill:#B57A2B;}
	.st19{fill:#18120B;}
	.st20{fill:#7A2434;}
	.st21{fill:#71471C;}
	.st22{fill:#E5B68B;}
	.st23{fill:#3F688D;}
	.st24{fill:#F9ECEE;stroke:#273954;stroke-width:1.8433;stroke-linecap:round;stroke-miterlimit:10;}
</style>
<g id="Layer_1">
</g>
<g id="Layer_7">
	<path class="st4" d="M343.2,201.9c0,0,1.9,56.3,30.1,92c43.8,55.3,46.5,100.1,46.5,100.1"/>
	<path class="st4" d="M420.3,394c0,0-36.7-83.6-90.6-80.5c-57.6,3.3-72.3-31.8-72.3-31.8"/>
</g>
<g id="Layer_2">
</g>
<g id="Layer_3">
</g>
<g id="Layer_5">
</g>
<g id="Layer_4">
	<path class="st1" d="M606.4,409.6c0,0,1.9,2.6,3.3,7.7c1.4,5.1-15.1-10.1-15.1-10.1S602.5,405,606.4,409.6"/>
	<path class="st2" d="M597.2,408.5c0,0,9,2.4,11,6.7c2,4.3-10.7-0.7-10.7-0.7L597.2,408.5z"/>
	<path class="st3" d="M576.6,390.3c0,0,16.2,9.7,25.6,20.1c1.5,1.6,2.7,6,2,7.6l-18.9-9.5l-26.5-18.8L576.6,390.3z"/>
	<path class="st0" d="M565.6,390.4c0.3,0.1,0.6,0.2,0.8,0.5c1.2,1.6,6.7,7.9,21.9,14.2c10.5,4.4,2.7,2.6,3.4,4.9
		c0.7,2.3,11.2,7,13.9,5.5c0.2-0.1,1.9-1.5,2.4-0.6c0.9,1.7,1.4,3.8-0.8,4c-4.1,0.3-8.4-0.8-9.6-1.1c-0.2,0-0.4-0.1-0.5-0.2
		l-32.5-25C563.5,391.9,564.3,390.2,565.6,390.4L565.6,390.4z"/>
	<g>
		<path class="st1" d="M609.7,418.1c0.1-0.3-0.1-0.6-0.4-0.5c-3.7,1.2-15.5-2.9-18.3-4.7c-1.6-1-1.9-5.5-4.6-5.5
			c-1.4,0-7.1-3.8-13.3-8.3c-1.9-1.4-8.4-6.5-9-7.6c-1-1.6,4.9-1.4,10.4,1c0.3,0.1,0.6-0.2,0.4-0.5c-1.8-2.7-7.3-9.7-15-6.5
			l-6.2,2.8c-0.2,0.1-0.3,0.4-0.1,0.6c4.4,3.8,41.7,35.7,49.3,34.3C607.6,422.5,609.2,419.5,609.7,418.1z"/>
		<path class="st0" d="M576.2,393.3c0.1,0.1,0.3,0.1,0.4,0.2C576.4,393.5,576.3,393.4,576.2,393.3z"/>
		<path class="st0" d="M576.6,393.5c0.1,0.1,0.3,0.1,0.4,0.2C576.8,393.7,576.7,393.6,576.6,393.5z"/>
		<path class="st0" d="M575.9,393.2c0.1,0.1,0.2,0.1,0.3,0.2C576.1,393.3,576,393.2,575.9,393.2z"/>
		<path class="st0" d="M575.5,393C575.6,393,575.6,393,575.5,393C575.6,393,575.5,393,575.5,393z"/>
		<path class="st0" d="M575.6,393.1c0.1,0,0.1,0.1,0.2,0.1C575.8,393.1,575.7,393.1,575.6,393.1z"/>
		<path class="st0" d="M577,393.7c0.2,0.1,0.5,0.2,0.7,0.3C577.5,394,577.2,393.8,577,393.7z"/>
		<path class="st0" d="M577.7,394.1c0.5,0.2,0.9,0.5,1.3,0.6C578.6,394.5,578.1,394.3,577.7,394.1z"/>
		<path class="st0" d="M580.5,395.4C580.6,395.5,580.6,395.5,580.5,395.4L580.5,395.4z"/>
		<path class="st0" d="M579.8,395.1c0.3,0.2,0.6,0.3,0.7,0.3C580.4,395.4,580.2,395.3,579.8,395.1z"/>
		<path class="st0" d="M579,394.7c0.2,0.1,0.4,0.2,0.5,0.3C579.3,394.9,579.2,394.8,579,394.7z"/>
		<path class="st0" d="M579.5,394.9c0.1,0.1,0.2,0.1,0.3,0.2C579.7,395.1,579.6,395,579.5,394.9z"/>
	</g>
	<line class="st3" x1="595.1" y1="412.7" x2="596.7" y2="411.4"/>
	<path class="st0" d="M473.1,580.2c0,0,10.1,28.9,13.4,43.3c3.3,14.4,18.3,25.6,18.3,25.6s5.6-5.6,17.2-1.7
		c11.6,3.9,12.4,15.4,12.4,15.4s-10.3,4.3-32.6,2.1c-22.3-2.1-29.5-9.9-28.7-11.2s-0.8,1.3-0.8,1.3s-7.4,3.4-3.1,6.9
		c0,0-19.4-8.9-13.1-24.8c0,0-5.7,6.8-3.6,11.1c0,0-35.6-40.7-27.5-68C433.1,552.9,473.1,580.2,473.1,580.2z"/>
	<path class="st17" d="M367.1,556.8c0,0,9.1-0.2,14.3-5.8c0,0-1.9,5.4,3.9,8.7c0,0,1.9-7.6,13.9-8.7c0,0,5.5,1.3,2.8,8.7
		c0,0,5.5-0.9,7.2-5.9c0,0-0.3,9.3,6.8,14.8s23.1-55.7,23.1-55.7l-74.2,30.7l-1.1,12.1L367.1,556.8z"/>
	<path class="st18" d="M479.3,501.9c0,0,6.5,18.7,4.8,24.8s-12.7,13.1-12.7,25c0,11.8,3.1,26.7,1.8,28.5s-29.8,14-29.4,21.9
		s-13.2,7-5.9,25.9c0,0-33.1-62.7-19.5-82.8s14-29.8,14-29.8l36.6-23.8L479.3,501.9z"/>
	<path class="st18" d="M554.4,317.2c0,0-14.8-7.6-31.6-2.7c0,0,2.5-0.6,5.1-8.2c1.4-4-6.2-10.9,5.4-9.9
		C543.6,297.3,550.4,304,554.4,317.2z"/>
	<path class="st19" d="M569.1,356.6c1,1.6,1.8,1,5.5,3c3.8,2,7.3-8.4,0-7.1c-0.4,0.1-1.9,0.3-4,0.6
		C570.6,353.1,567.7,354.5,569.1,356.6z"/>
	<path class="st0" d="M369.5,548.7c0,0-14.2,47.1-18.3,58.2c-4.8,13.2-21.3,29-24.1,34.1c-1.4,2.5-3.2,11.7,0.3,9.8
		c5.6-3.1,14.1-2.3,19.1,0c6.6,3.1,10.1,15.6,7.6,16.4c-15.8,5-50.8,9.5-52.6,0s-9.9-22.3,6.3-46.9c0,0,16.2-44.8,5.4-56.1"/>
	<path class="st18" d="M283.3,560.2c0,0,2.5,9.4-1.5,16.1c-0.6,1-1.3,1.9-2.2,2.7c0,0,5.7-0.4,7.8-4.1c2-3.7-11.8,13.5-2,27.4
		c0,0,4.1,7.8,4.9,8.4c0.8,0.6-0.8-0.6-0.8-0.6s0.2-9.4,7.2-9.8c0,0,6,14.7,0,22.9c0,0,16.5,2.5,21.4-6.9c4.9-9.4,7.5-60.5,7.5-60.5
		l-41.6,8.9"/>
	<path class="st17" d="M295.9,559.8c0,0,2.2,8.4-1.4,14.4c-0.5,0.9-1.1,1.7-1.9,2.4c0,0,5.1-0.3,6.9-3.6c1.8-3.3-10.6,12-1.8,24.4
		c0,0,3.6,6.9,4.4,7.5c0.7,0.5-0.7-0.5-0.7-0.5s0.1-8.4,6.4-8.7c0,0,5.4,13.1,0,20.4c0,0,13.6-2.9,17.1-11.2
		c15.7-37.1-0.6-44.2-0.6-44.2l-27.7,3.2"/>
	<path class="st0" d="M98.3,563.4c0,0-28.3,17.1-33.4,37.9s-7.8,29.7-9.6,32.3c-1.8,2.7-23,24.4-28.8,20.8
		c-5.8-3.5-12.8-14.6,4-27.9c0,0-3.5-10.2,0.9-14.3c9.2-8.6,14.8-28.3,14.2-39.7"/>
	<path class="st18" d="M174.9,553.5c0,0-63.7,22.3-82.9,14.9L50.5,575l72.3-108.3L174.9,553.5z"/>
	<path class="st0" d="M63.9,485.2c0,0-57.4,55.2-53,77.5c3.6,18.3,43.1-28,75.6-68.4c25.6-31.8,32.6-74.4,32.6-74.4
		s-14.6-15.8-27.5-8.7C76.2,419.8,77.1,462.8,63.9,485.2z"/>
	<path class="st0" d="M174.9,636.9c0,0,16.5,27,20.3,27.4c3.8,0.4,29,2.1,30.7,2.5c1.7,0.4,22.9,1.3,21.6-5.6
		c-3-16.3-19.6-15.7-25.1-14c-12.5,3.8-22.4-21.5-24.8-27.4c-4.2-10.5-2-16.5,1.3-26C202.2,584.2,174.9,636.9,174.9,636.9z"/>
	<path class="st18" d="M174.3,368c0,0-59.1,4.1-42.5,65.1s49.8,95.3,49.8,95.3s-31.8,68.1-27.1,78.1c4.6,9.9,18.5,29.1,20.5,30.4
		c2,1.3,3.6-15,16.5-16.5c0,0-2.6-16.5,4.6-21.8c7.3-5.3,3.3-17.9,3.3-17.9s40.3-25.8,39-53.6C237.1,499.4,174.3,368,174.3,368z"/>
	<path class="st17" d="M167.6,368c0,0-69.9,1.9-87,71.2c-11.3,45.9,3.6,45.9-39.5,76.8c-48.5,34.7-41,64.8-40.2,73.8
		c0,0,23.8-15.7,51.4-8.9c27.6,6.7,76-35,76.8-71.5c0,0,11.2,24.9,0.7,48.6c0,0,8.9-1.6,13.4-12.8c0,0,13.4,10.4,7.5,38.8
		c0,0,16.7-9.7,16.9-34.3c0,0,6.9,19,17.4,16.6c0,0-7.7-10.6-6.5-21.1c0,0,13.2,0.3,13.9,12.8c0,0,6.6-31.1-1-34.7
		c0,0,10.7,1.7,16.6,22.6c0,0,5-31.1-15.6-43.3c-24.5-14.5-47.7-42.1-26-60.8C183.8,426.8,187.2,380,167.6,368z"/>
	<path class="st20" d="M321.5,559.9c25.6,2.8,48.6-25.5,85-32.1c36.5-6.6,60.9-38.3,62.3-34c1.4,4.3,6.6,9.9,10.4,10.4
		c3.8,0.5,9.9-14.7,9.5-21.6c-0.5-6.9-59.1-104.2-59.1-104.2s-23.1-7.7-29.3-11.7c-3.1-2-19.6,8.6-21.3,6.5
		c-3.3-4.3-19.9-0.9-23.2-0.5c-3.3,0.5-19.9,1.4-40.7-2.4c-20.8-3.8-38.2,3.4-63.8-2.4c-1.5-0.3-14.1-3.9-28.4-4.7
		c-6.2-0.4-42.4-0.6-44.5-3.2c0,0,15.2,13.1,20.1,68.1c4.9,55,46,116.2,78.4,118.7L321.5,559.9z"/>
	<path class="st20" d="M457.3,479.7c0.8-11.1-27.6-33.3-39-68.6"/>
	<path class="st0" d="M231.3,531.2c-41.1-43-44.4-117.2-59.6-152.7c0,0-2.8-15.6-9.9-12.3c-7.1,3.3,0-6.2,4.7-5.9
		c4.7,0.3,12.6-3.8,15.5-0.1c0,0,13.9,12.9,20.1,63.1c6.2,50.2,30.8,101.1,55.4,112.2s31.8,13.8,60.8,10.7
		c28.5-3,64-23.4,102.2-40.7c7.7-3.5,39.8-23.4,39.8-23.4s-41.9-64.5-40.7-73.1s-17.5-39.9-21.2-37.8s17.1-7,17.1-7
		s62.7,113.7,71.8,117.9c9.2,4.1,6.6,11.4,1.3,17.5s-3,7.3-8.3,7.6s-10.6-9.3-10.6-9.3s-13.6,15.4-29.8,19.2
		c-7.9,1.8-28.3,13.9-47.7,22.5c-20.5,9.1-39.8,14.8-42.8,15.8C302.7,571.3,272.4,574.2,231.3,531.2z"/>
	<path class="st18" d="M437.5,354.5c0,0-40.8,3.4-42.7,18.8c0,0,4.6-5.5,15.8,0c0,0-9.6,12.5,0,19.3c0,0,1.8-21.7,14-11
		c10,8.8,18.8,68.7,60.7,99.2c0,0,15.3,10.3,27.2-0.9c11.9-11.1-2-69.7-2-69.7L437.5,354.5z"/>
	<path class="st0" d="M473.7,315.1c0,0,3.9,1.9,5.6,5.1c0,0-5.1-2.9-11.2,1.3c0,0,3.5-1.2,7.3,1.4c0,0-16,8-16.7,13.9
		s-34.5,21.6-48.2,22.1c0,0,13.9,0,19.5-1.6c0,0-3.5,0.4-3.8,2.7c0,0,6.8-3.6,11.5-2c0,0-3.5,3.8-4.5,7c0,0,9.4-6.9,12.7-5.1
		c0,0-5.4,8.8-1.9,11.9c0,0,2.3-4.7,3.8-4.9c0,0-1.6,7.3,4.2,9.9c0,0-2.1-3.8,0.2-5.9c0,0,1.8,12.2,16.1,21.8
		c22,14.8,27,38.4,29.3,46.6c3.8,13.5,2.3,11.2,2.3,11.2s1.9-7.6,1.5-11.1c-0.1-0.5-0.2-1-0.4-1.3c-1.4-2.3,6.1,3.8,7.8,22.1
		c0,0,1.4-1.6,2.1-9.2c0,0,1.4,17.3-2.8,18.3c-16.8,4-19.3-12.1-19.5-14.1c-0.8-7.7-2.8,26.9,16.2,27c16.4,0.1,50-43.5,53.1-50
		c3.1-6.6-3.5-29,3.8-29.1c5,0-31.4-55.3-59.3-81.4C489.9,309.7,475.3,315.9,473.7,315.1z"/>
	<path class="st18" d="M602.9,423.3c-16.3,5.9-34.3-16-42.1-20.3c-9.4-5.2-7.4,3.7-7.4,3.7s2.5,27.3-9.7,32.2
		c-12.1,4.9-18.5-37.6-40.1-35.8c-15.9,1.3-6.1-13.1-6.5-27.7c-0.4-13-20.3-12.8-18.8-30.3c1.9-22.4,28.5-21.1,38.3-29.2
		c16.9-13.9,62.3,0.5,68.6,25.8c2.3,9.2,11.9,24.3,25,36.2c11.9,10.8,25.5,19,22.4,23.1c-6.4,8.5-28.2,16.4-50.1-2.1
		c-8.5-7.2-23.3-19.6-24.8-9.9c-0.7,4.7,6.3,7.1,14.6,14.7c4.4,4,8.8,7.7,14,10.8C595.1,419.5,604.3,422.8,602.9,423.3z"/>
	<path class="st18" d="M530.5,338.3c0,0-10.3-7.7-8.3-16.6c1.2-5.3-5.9-17.9-17.6-17.9c-13.3,0-26.9,19.4-19.4,17.9
		c5.5-1.1,9.5-2.9,11.3,0s-4.6,9.7-2.9,17.9c0.5,2.6,2.9,10.6,16.8,9.5"/>
	<g>
		<path class="st21" d="M525.6,333.8c-5.1-7.1-2.7-9.1-3.4-14.7c-0.3-2-1.5-15.8-17.3-15.1c-13.3,0.6-15.9,7.3-15.9,7.3
			s18.8-5.4,22.6,7.1c0.3,1,0.5,2.2,0.7,3.3c-1.4-0.8-4.9,0.4-6,0.8c3.3-1,6.6,8,6.6,8c0.3,6.2,1.1,12.1,6.9,14.4
			c2.1,0.8,13.7,1,16.3-2C538.6,339.9,530.8,340.9,525.6,333.8z"/>
		<path class="st21" d="M511.6,323.6C511.6,323.7,511.6,323.7,511.6,323.6C511.6,323.7,511.6,323.6,511.6,323.6z"/>
		<path class="st21" d="M511.9,323.5c-0.1,0-0.2,0.1-0.3,0.1C511.7,323.6,511.8,323.6,511.9,323.5z"/>
	</g>
	<path class="st21" d="M541,312.1c0,0,0.3-3-3.7-2.2c-4.1,0.8,1.3-2.3,3.6-3c2.3-0.8-1.3-2.1-3.4-0.8c0,0,3.1-4.6,8.6-2
		c5.6,2.6,7.1,9.5,7.1,9.5L541,312.1z"/>
	<polygon class="st0" points="263.1,394.5 267.4,423.3 287.2,421.3 285.2,408.9 307.4,406.4 316.3,478.9 304.4,480.1 306.2,496.1 
		348.9,492 347.4,475.7 334.3,476.9 326.2,404.6 350.3,401.8 351.3,412.7 367.3,411 365,384.4 	"/>
	<polygon class="st0" points="376,410.9 375.2,420.5 384.4,426.3 384.2,415.2 	"/>
	<polygon class="st0" points="385,405.5 384.2,415.1 393.4,420.9 393.2,409.8 	"/>
	<polygon class="st0" points="394,400.1 393.2,409.7 402.4,415.5 402.2,404.4 	"/>
	<polygon class="st0" points="403,394.7 402.2,404.3 411.4,410.1 411.3,399 	"/>
	<polygon class="st0" points="412,389.7 411.2,399.3 420.4,405.1 420.3,394 	"/>
	<path class="st0" d="M308.8,458.6l-4.1,0.5l-13.4-21.5l2.2-0.3l-1.6-8.9l-17.4,2l1.2,9.1l2.4-0.3l-6.3,24.5l-5.1,0.8l0.9,8.7
		l15.9-2.1l-1.2-8.6l-2.2,0.4l1.1-3.3l11.6-1.8l1.9,2.6l-2.8,0.4l1,9l16.9-2.4L308.8,458.6z M282.6,450.8l2.3-7.7l5.4,6.6
		L282.6,450.8z"/>
	<polygon class="st0" points="374.6,451 378.8,451 379.8,458.6 365.2,459.6 364.3,451.9 367.2,451.8 365.7,437.8 359.1,453.5 
		347.4,439.9 348.5,454.5 351.7,454.2 352.3,462.4 338,464.2 336.9,455.7 340.1,455.3 337.9,432.1 333.5,432.5 332.6,423.3 
		346.3,421.7 355.8,437.1 361.6,419.3 373,417.9 374.2,426.2 371.7,426.7 	"/>
	<g>
		<path class="st0" d="M285.4,516.1c0.2,0.3,0.4,0.5,0.5,0.6c1.7,2.3,2.8,3.8,3.5,4.5c0.7,0.7,1.2,1,1.7,1c0.7-0.1,1.2-0.7,1.5-1.9
			c0.3,0.1,0.4,0.3,0.5,0.4c0.1,0.5-0.2,1.2-0.8,2.1c-0.6,0.9-1.1,1.3-1.6,1.4c-0.7,0.1-1.7-0.5-2.9-1.8c-1.3-1.3-2.6-3.1-4-5.3
			c-0.4,0.1-0.8,0.2-1.1,0.2c-0.3,0-0.7,0.1-1.2,0.1l0,0.8l0,1.4c0,1.2-0.1,2-0.4,2.6c-0.3,0.6-0.9,1.2-1.9,1.8l2.9-0.2l-1.3,1.6
			l-5.3,0.5l1.3-1.7l1.3,0c0.9-0.8,1.3-2.1,1.3-4.1l0-1.2l-0.3-9.4c-3.6,1.2-5.2,2.9-4.9,5c0.1,0.8,0.4,1.5,0.8,2.1l-1.7,2
			c-0.3-0.6-0.4-1.2-0.5-1.9c-0.3-2.2,0.4-4.1,2-5.8c1.7-1.7,4-2.7,6.9-3.1c4-0.6,6.2,0.4,6.6,2.9
			C288.6,512.6,287.6,514.4,285.4,516.1z M281.1,509.1l0.2,7.2c0.7,0,1.3,0,1.8-0.1c0.5-0.1,1-0.2,1.6-0.4c1.3-1.2,1.8-2.6,1.6-4.1
			C286,509.5,284.3,508.6,281.1,509.1z"/>
		<path class="st0" d="M300.7,518.3c0.2,0.1,0.3,0.3,0.4,0.4c0,0.3-0.2,0.7-0.6,1.4c-1.2,1.8-2.4,2.8-3.8,3
			c-0.8,0.1-1.6-0.1-2.2-0.7c-0.6-0.6-1-1.4-1.2-2.4c-0.3-1.8,0.2-3.8,1.3-5.9c1.1-2.1,2.4-3.2,3.7-3.4c1-0.1,1.6,0.3,1.7,1.4
			c0.2,1.2-0.2,2.4-1.2,3.7c-1,1.3-2.3,2.3-3.9,3c0.4,1.9,1.4,2.8,2.7,2.6C299.1,521.2,300.1,520.2,300.7,518.3z M294.8,517.3
			c0.2,0,0.5,0.1,0.7,0c1-0.1,1.8-0.6,2.5-1.3s0.9-1.5,0.8-2.3c-0.1-0.9-0.7-1.4-1.7-1.2c-0.7,0.1-1.3,0.6-1.7,1.5
			C295,514.9,294.8,516,294.8,517.3z"/>
		<path class="st0" d="M308.3,518.7c1.8-3.5,2.6-5.9,2.4-7.1c-0.1-0.5-0.4-0.8-0.9-1l1.3-1.8c0.6,0.2,1,0.6,1.1,1.3
			c0.1,0.8-0.4,2.5-1.6,5.1c-0.3,0.6-0.5,1-0.6,1.2l-0.2,0.6l-0.4,1c-0.2,0.5-0.5,1.1-0.7,1.8l-1.5,1.9c-0.7-2.6-1.5-4.9-2.5-6.9
			c-1-2-1.8-3-2.3-2.9c-0.6,0.1-1,0.8-1,2c-0.2,0-0.4-0.2-0.4-0.3c-0.1-0.6,0.1-1.3,0.5-2.1c0.4-0.8,0.9-1.2,1.3-1.3
			C304.5,509.7,306.3,512.6,308.3,518.7z"/>
		<path class="st0" d="M321.1,515.3c0.2,0.1,0.3,0.3,0.4,0.4c0,0.3-0.2,0.7-0.6,1.4c-1.2,1.8-2.4,2.8-3.8,3
			c-0.8,0.1-1.6-0.1-2.2-0.7s-1-1.4-1.2-2.4c-0.3-1.8,0.2-3.8,1.3-5.9c1.1-2.1,2.4-3.2,3.7-3.4c1-0.1,1.6,0.3,1.7,1.4
			c0.2,1.2-0.2,2.4-1.2,3.7c-1,1.3-2.3,2.3-3.9,3c0.4,1.9,1.4,2.8,2.7,2.6C319.5,518.2,320.5,517.2,321.1,515.3z M315.3,514.3
			c0.2,0,0.5,0.1,0.7,0c1-0.1,1.8-0.6,2.5-1.3c0.7-0.7,0.9-1.5,0.8-2.3c-0.1-0.9-0.7-1.4-1.7-1.2c-0.7,0.1-1.3,0.6-1.7,1.5
			S315.2,513.1,315.3,514.3z"/>
		<path class="st0" d="M328.9,514.5c0.2,0.1,0.4,0.2,0.4,0.3c0,0.3-0.2,0.9-0.8,1.9c-0.8,1.3-1.6,2-2.4,2.1c-0.6,0.1-0.9-0.3-1.1-1
			c0-0.3-0.1-1.4-0.1-3.1l0-3.4l0-0.9l0-0.7c0-0.3,0-0.5,0-0.7c-0.1-0.4-0.2-0.6-0.4-0.6c-0.6,0.1-1.2,0.9-1.7,2.4
			c-0.2-0.1-0.3-0.2-0.3-0.4c-0.1-0.5,0.3-1.2,1.1-2.2c0.8-1,1.5-1.5,2-1.6c0.6-0.1,1,0.3,1.1,1.1c0,0.2,0,0.5,0,1l0,0.8
			c0,0.1,0,0.4,0,1l0,3.5l0,0.8c0,0.8,0,1.3,0.1,1.6c0.1,0.3,0.2,0.5,0.4,0.5C327.9,517,328.4,516.2,328.9,514.5z M325.1,505.2
			l0.7-2.7c0.9-0.5,1.5-1.1,2-1.9c0.1,0.1,0.2,0.2,0.2,0.3C328.1,502.1,327.2,503.5,325.1,505.2z"/>
		<path class="st0" d="M335.3,513.6c0.2,0.1,0.4,0.2,0.4,0.4c0.1,0.6-0.2,1.4-1,2.4s-1.4,1.5-2,1.6c-0.7,0.1-1.1-0.3-1.2-1.3
			c-0.1-0.6-0.1-1.2-0.2-1.8l0-1.1l-0.3-8.6c-0.1-2.6,0.5-4.9,1.7-6.8c1.2-1.9,2.8-3,4.7-3.3c0.5-0.1,0.9-0.1,1.2-0.1l-1.5,2
			c-0.4-0.1-0.9-0.1-1.4,0c-1.2,0.2-2.1,0.7-2.5,1.7c-0.5,0.9-0.7,2.4-0.6,4.5l0.3,10.3c0,0.8,0.1,1.4,0.1,1.7
			c0.1,0.7,0.3,1.1,0.5,1c0.3,0,0.6-0.3,0.9-0.9C335,514.7,335.2,514.2,335.3,513.6z"/>
		<path class="st0" d="M342,512.6c0.2,0.1,0.4,0.2,0.4,0.4c0.1,0.6-0.2,1.4-1,2.4s-1.4,1.5-2,1.6c-0.7,0.1-1.1-0.3-1.2-1.3
			c-0.1-0.6-0.1-1.2-0.2-1.8l0-1.1l-0.3-8.6c-0.1-2.6,0.5-4.9,1.7-6.8c1.2-1.9,2.8-3,4.7-3.3c0.5-0.1,0.9-0.1,1.2-0.1l-1.5,2
			c-0.4-0.1-0.9-0.1-1.4,0c-1.2,0.2-2.1,0.7-2.5,1.7c-0.5,0.9-0.7,2.4-0.6,4.5l0.3,10.3c0,0.8,0.1,1.4,0.1,1.7
			c0.1,0.7,0.3,1.1,0.5,1c0.3,0,0.6-0.3,0.9-0.9C341.6,513.8,341.9,513.2,342,512.6z"/>
		<path class="st0" d="M351,511c0.2,0.1,0.3,0.3,0.4,0.4c0,0.3-0.2,0.7-0.6,1.4c-1.2,1.8-2.4,2.8-3.8,3c-0.8,0.1-1.6-0.1-2.2-0.7
			s-1-1.4-1.2-2.4c-0.3-1.8,0.2-3.8,1.3-5.9s2.4-3.2,3.7-3.4c1-0.1,1.6,0.3,1.7,1.4c0.2,1.2-0.2,2.4-1.2,3.7s-2.3,2.3-3.9,3
			c0.4,1.9,1.4,2.8,2.7,2.6C349.4,513.9,350.4,512.9,351,511z M345.1,510c0.2,0,0.5,0.1,0.7,0c1-0.1,1.8-0.6,2.5-1.3
			c0.7-0.7,0.9-1.5,0.8-2.3c-0.1-0.9-0.7-1.4-1.7-1.2c-0.7,0.1-1.3,0.6-1.7,1.5S345.1,508.7,345.1,510z"/>
		<path class="st0" d="M361.4,503.8l-1.7,2.2c-0.3-0.6-0.5-1.2-0.6-1.8c-0.3-2.1,0.2-3.9,1.6-5.4c1.4-1.5,3.3-2.4,5.9-2.8l1-0.1
			c-0.1,1.9-0.1,3.2-0.1,3.8l0.2,6l0,1.4c0,1.2-0.1,2-0.4,2.6c-0.3,0.6-0.9,1.2-1.9,1.8l3.5-0.3l-1.3,1.6l-6,0.6l1.3-1.7l1.3,0
			c0.9-0.8,1.3-2.1,1.3-4.1l0-1.2l-0.3-8.6l-0.4,0.1c-3.4,0.5-4.9,1.8-4.6,4.1C360.6,502.5,360.9,503.2,361.4,503.8z"/>
		<path class="st0" d="M378,503l-1-1.7l-0.6-1.1c-0.2-0.4-0.5-0.8-0.8-1.2c-0.4-0.6-0.6-1-0.7-1.1c-0.6-1-1.1-1.4-1.5-1.4
			c-0.8,0.1-1.4,1-1.7,2.6c-0.3,0-0.4-0.2-0.5-0.5c-0.1-0.8,0.1-1.6,0.8-2.6c0.6-1,1.3-1.5,1.9-1.6c0.5-0.1,1,0.2,1.6,0.7
			c0.5,0.5,1.3,1.7,2.4,3.5l1.3,2.2l0.3-0.8l0.6-1.5c1.4-3.5,3-5.4,4.9-5.7c0.6-0.1,1.2,0,1.8,0.1l-1.5,2c-0.4-0.1-0.7-0.2-0.9-0.2
			c-0.7,0.1-1.4,0.6-2,1.5c-0.6,0.9-1.4,2.5-2.2,4.8l-0.3,0.7l1.3,2.2l0.7,1.2l0.7,1.1c1,1.6,1.8,2.4,2.4,2.3
			c0.9-0.1,1.5-0.9,1.7-2.4c0.3,0.1,0.5,0.2,0.5,0.5c0.1,0.4-0.1,0.9-0.5,1.8c-0.6,1.2-1.3,1.9-2.2,2c-0.7,0.1-1.3-0.2-1.9-0.8
			c-0.6-0.7-1.6-2-2.9-4.2l-0.9-1.5l-0.2,0.6c-1.7,4.8-3.7,7.3-6.1,7.7c-0.5,0.1-1.1,0-1.7-0.2l1.5-2c0.3,0.1,0.7,0.2,1.1,0.1
			c1.1-0.2,2-1.1,3-2.9c0.8-1.5,1.3-2.8,1.7-3.9L378,503z"/>
	</g>
	<path class="st17" d="M552.9,349.5c0,0-3.5,15.9-9.6,21.2c-6.1,5.4-2.1,16.8,7.5,15.8c9.7-1.1,10-5.9,24.7,6.6
		c11.3,9.6,14.4,15.3,35.2,17c15.6,1.3,23-12,20-16c-5.8-7.8-22.1-15.2-32-28.9c-12.3-17-13.5-23.5-13.5-23.5s-14.3-18.5-20.5-14.4
		S552.9,349.5,552.9,349.5"/>
	<path class="st21" d="M506,352.3c-10.4,6.4-5.3,7.8-12.5,13.6c0,0,8-7.8,35.6-7c27.6,0.8,29.8-9.8,29.8-9.8s-4.4,5.5-12.9,6.1
		C532.3,356.1,515.1,346.8,506,352.3z"/>
	<path class="st21" d="M586.4,348.1c0,0-2.5-7.6-6.5-12.4c-4.2-5-9.9-7.3-11.6-2.1c-2.6,8.1-9,14-15.5,15.9
		c-14.5,4.2-35.7-0.2-35.7-0.2s35.2-6.3,21.4-13.9c-8.1-4.5-9.7,1.5-9.7,1.5s-2.1-5.8,9.7-7.4c0,0-2.8-2-5.3-0.9
		c-2.5,1.1,7.8-5.3,14.7-0.9c0,0-1.8-2.9-5.8-4c0,0,8.1-0.7,14.6,2.2c0,0,0.4-2.3-6.5-2.9c0,0,7.1-1.9,11.1,2.3c1,1.1,2.1-1.2,1-3.3
		c-0.8-1.6-0.5-3-0.5-3c-0.2,2.1,5.7,4,5.7,4C578.5,325.6,585.9,337.3,586.4,348.1"/>
	<path class="st19" d="M569.1,356.6c1,1.6,1.8,1,5.5,3c3.8,2,7.3-8.4,0-7.1c-0.4,0.1-1.9,0.3-4,0.6
		C570.6,353.1,567.7,354.5,569.1,356.6z"/>
	<path class="st21" d="M574.7,353.3c-0.5,0.5-1.6,1.8-1.5,3.2c0.1,1,0.9,1.7,1.9,1.7h0.5c0.2,0,0.4-0.2,0.4-0.4
		c-0.2-0.8-0.4-2.4,0.4-3.2c0.1-0.2,0.1-0.4-0.1-0.5l-1.2-0.8C575,353.2,574.8,353.2,574.7,353.3z"/>
	<path class="st0" d="M575.4,354c0,0-0.1,0.9-0.5,1.2c-0.5,0.2,0.4,1.1,1.7,0.6c1.3-0.6,1.3-1.2,0.9-1.4
		C576.9,354.3,576.3,353.5,575.4,354z"/>
	<path class="st22" d="M593.7,357.8c0,0,1.4,12.5-4.2,12.8c-5.6,0.3-24.4-5.3-24.1,0c0.2,3.4,22.5,4.2,33.7,19
		c5.7,7.5,15.2,6.8,18.9,7.8c3.2,0.9,14.2-0.3,12.7-3.4c-2.2-4.4-13.3-11-16.5-13.8C604,371.3,600.7,368,593.7,357.8"/>
	<path class="st1" d="M618.1,397.5c-0.3,2.3,2.1,5.5,2.3,7.7c0.1,2.1-1.4,2,0,3.8c0.8,1,5.5-0.7,9.2-3.3c2.8-1.9,5-4.3,4.6-6.1
		c-0.5-2.4-8.4-12.8-9.9-9C622,396,618.2,396.5,618.1,397.5z"/>
	<path d="M622.2,399.5c0,0-3.1-0.6-1.3,3c1.7,3.6-0.3,4.5,0.4,4.9s4-1.6,4.1-3.1C625.5,402.9,625.4,397.8,622.2,399.5z"/>
	<path class="st22" d="M74.9,473.1c0,0,14.5-51.2,29.4-52.2c0,0-2.5,14.3,3.4,24.8c0.4,0.7,2-59.7,42.9-75.1
		c7.7-2.9-45.1,9.2-59.9,40.5C79.7,434.6,78.6,439.3,74.9,473.1"/>
</g>
<g id="Layer_6">
	<path class="st23" d="M250.8,281.5l8.3,9.6c0,0,9-8.2,6.8-14.2l-11-1.8L250.8,281.5z"/>
	<g>
		<path class="st23" d="M189.2,209.3l75.5,48.5c2.8,1.8,3.7,5.6,1.8,8.4l-21,32.6c-1.8,2.8-5.6,3.7-8.4,1.8l-75.5-48.5
			c-2.8-1.8-6.6-1-8.4,1.8l-10.3,16c-1.8,2.8-5.6,3.7-8.4,1.8L109,255.5c-2.8-1.8-3.7-5.6-1.8-8.4l10.3-16c1.8-2.8,1-6.6-1.8-8.4
			l-64.9-41.7c-2.8-1.8-3.7-5.6-1.8-8.4l21-32.6c1.8-2.8,5.6-3.7,8.4-1.8l64.9,41.7c2.8,1.8,6.6,1,8.4-1.8l11.5-17.9
			c1.8-2.8,5.6-3.7,8.4-1.8l25.5,16.4c2.8,1.8,3.7,5.6,1.8,8.4l-11.5,17.9C185.5,203.7,186.4,207.5,189.2,209.3z"/>
	</g>
	<path class="st8" d="M144,23.3l36.1-14.2c3.1-1.2,6.7,0.3,7.9,3.5l31.6,80.6c1.9,4.8,8.5,5.2,11,0.7c2.3-4.2,4.9-7.6,7.8-10.4
		c5.6-5.3,12.8-9.7,21.8-13.2c17-6.6,31.6-7,43.9-1c12.3,6,21.6,16.9,27.8,32.8l31.3,79.8c1.2,3.1-0.3,6.7-3.5,7.9l-36.1,14.2
		c-3.1,1.2-6.7-0.3-7.9-3.5l-24.4-62.3c-2.7-6.8-5.4-12.1-8.1-15.9c-2.7-3.8-5.7-6.3-9.1-7.6c-5.6-2-11.4-1.9-17.4,0.5
		c-8,3.2-13.3,8-15.7,14.5c-2.4,6.5-1.9,14.2,1.6,23.1l25.9,66.2c1.2,3.1-0.3,6.7-3.5,7.9l-36.1,14.2c-3.1,1.2-6.7-0.3-7.9-3.5
		L140.5,31.3C139.3,28.1,140.8,24.6,144,23.3z"/>
	<path class="st8" d="M335.5,196.4l0.7,11.5c0,0,11.4,0.4,15.1-5.4l-9.7-10.3L335.5,196.4z"/>
	<path class="st4" d="M274.2,77.7c0,0,8.6-4.8,17.3-0.5"/>
	<path class="st4" d="M295.2,79.7c0,0,2.3,1,4,2.7"/>
	<line class="st4" x1="89.2" y1="155.9" x2="93.8" y2="159.1"/>
	<path class="st4" d="M98,161.6c0,0,34.9,22.8,36.2,23.6"/>
	<line class="st4" x1="184.1" y1="282.6" x2="188.4" y2="285.7"/>
	<line class="st4" x1="192.5" y1="288" x2="208.9" y2="298.2"/>
	<path class="st4" d="M175.2,3.8c0,0,15-6.5,18-2.4s9,21.5,9,21.5"/>
	<line class="st4" x1="203.9" y1="27.4" x2="205.6" y2="31.8"/>
</g>
</svg>
