<?xml version="1.0" encoding="utf-8"?>
<!-- Generator: Adobe Illustrator 21.1.0, SVG Export Plug-In . SVG Version: 6.00 Build 0)  -->
<svg version="1.1" id="Layer_1" xmlns="http://www.w3.org/2000/svg" xmlns:xlink="http://www.w3.org/1999/xlink" x="0px" y="0px"
	 viewBox="0 0 467.9 500" style="enable-background:new 0 0 467.9 500;" xml:space="preserve">
<style type="text/css">
	.st0{fill:#3F688D;}
	.st1{fill:#F37D93;}
</style>
<path class="st0" d="M123.4,273.4v218.8c0,4.3-3.5,7.8-7.8,7.8H65.7c-4.3,0-7.8-3.5-7.8-7.8V273.4c0-4.3-3.5-7.8-7.8-7.8H7.8
	c-4.3,0-7.8-3.5-7.8-7.8v-45.5c0-4.3,3.5-7.8,7.8-7.8h42.4c4.3,0,7.8-3.5,7.8-7.8V7.8c0-4.3,3.5-7.8,7.8-7.8h49.9
	c4.3,0,7.8,3.5,7.8,7.8v189.1c0,4.3,3.5,7.8,7.8,7.8h50c4.3,0,7.8,3.5,7.8,7.8v45.5c0,4.3-3.5,7.8-7.8,7.8h-50
	C126.8,265.7,123.4,269.2,123.4,273.4z"/>
<path class="st1" d="M232,0h49.9c4.3,0,7.8,3.5,7.8,7.9v211.2c0,6.5,7.2,10.1,12.4,6.4c19.9-14.5,41.5-21.8,64.7-21.8
	c32,0,57.6,10.6,76.8,31.7c16.3,18.4,24.4,47.7,24.4,87.9v168.8c0,4.4-3.5,7.9-7.8,7.9h-49.9c-4.3,0-7.8-3.5-7.8-7.9V329.5
	c0-23.1-4-39.8-12.1-50.2c-8-10.4-21-15.5-38.8-15.5c-22.9,0-39,7.2-48.3,21.6c-9.1,14.6-13.7,39.7-13.7,75.2v131.5
	c0,4.4-3.5,7.9-7.8,7.9H232c-4.3,0-7.8-3.5-7.8-7.9V7.9C224.2,3.5,227.7,0,232,0z"/>
</svg>
