<svg width="17" height="19" viewBox="0 0 17 19" fill="none" xmlns="http://www.w3.org/2000/svg">
<path d="M4.01758 10.793V19H1.60059V10.793H0.569336V8.53711H1.60059V4.70215H4.01758V8.53711H5.89746V10.793H4.01758Z" fill="#3E678C"/>
<path d="M7.54102 0.856445H9.95801V9.40723C10.8174 8.63379 11.7663 8.24707 12.8047 8.24707C13.9863 8.24707 14.9316 8.63021 15.6406 9.39648C16.2422 10.0625 16.543 11.126 16.543 12.5869V19H14.126V12.8125C14.126 11.9746 13.9756 11.3695 13.6748 10.9971C13.3812 10.6175 12.9049 10.4277 12.2461 10.4277C11.401 10.4277 10.8066 10.6891 10.4629 11.2119C10.1263 11.7419 9.95801 12.6514 9.95801 13.9404V19H7.54102V0.856445Z" fill="#FF7C93"/>
</svg>
